<svg width="158" height="305" viewBox="0 0 158 305" fill="none" xmlns="http://www.w3.org/2000/svg">
<path d="M79.1661 41.8516H76.6348V214.85H79.1661V41.8516Z" fill="#0E7DA0"/>
<path d="M94.6915 92.9916H61.8681C56.4678 92.9916 52.0801 88.6034 52.0801 83.2025V50.375C52.0801 44.9741 56.4678 40.5858 61.8681 40.5858H94.6915C100.092 40.5858 104.479 44.9741 104.479 50.375V83.2025C104.479 88.6034 100.092 92.9916 94.6915 92.9916Z" fill="url(#paint0_linear_3_17095)"/>
<path d="M117.558 50.8813C122.621 46.8306 138.99 37.8009 138.99 37.8009C140.594 36.5351 142.534 35.86 144.559 35.86C148.188 35.86 151.394 35.0161 153.757 33.6659C156.119 32.3156 157.554 30.4591 157.638 28.3493L157.132 26.324C155.613 23.1172 150.635 20.8387 144.644 20.8387C141.016 20.8387 137.809 21.6826 135.447 23.0328C133.084 24.383 131.649 26.2396 131.565 28.3493C131.565 28.5181 131.565 28.6025 131.565 28.7713C131.565 28.8557 131.565 28.94 131.565 29.1088C131.565 29.2776 131.649 29.362 131.649 29.5308C131.649 29.6152 131.649 29.6995 131.734 29.7839C131.818 29.9527 131.818 30.1215 131.903 30.2059C131.903 30.2903 131.987 30.3747 131.987 30.4591C132.071 30.7122 132.24 30.881 132.409 31.1342L131.481 31.5561C126.587 33.0751 120.343 35.6068 113.93 39.9107C110.723 42.1048 107.939 44.2989 105.661 46.4087C100.514 48.6872 91.0632 52.0627 78.9126 52.0627C69.1246 52.0627 59.6742 50.0374 52.1644 46.4087C50.0549 44.3833 47.608 42.1892 44.5703 40.0794C37.82 35.3536 31.2384 32.9063 26.26 31.4717C25.9225 31.3029 25.6694 31.2186 25.3319 31.0498C25.5007 30.7966 25.585 30.6278 25.7538 30.3747C25.7538 30.2903 25.8381 30.2059 25.8381 30.1215C25.9225 29.9527 26.0069 29.8683 26.0069 29.6995C26.0069 29.6152 26.0913 29.5308 26.0913 29.4464C26.0913 29.2776 26.1757 29.1932 26.1757 29.0244C26.1757 28.94 26.1757 28.8557 26.1757 28.6869C26.1757 28.5181 26.1757 28.4337 26.1757 28.2649C26.1757 26.1552 24.6569 24.2986 22.2942 22.9484C19.9316 21.5982 16.6409 20.7543 13.0969 20.7543C7.10602 20.7543 2.12764 23.1172 0.608818 26.2396L0.102539 28.2649C0.102539 30.3747 1.62137 32.2312 3.98398 33.5815C6.34659 34.9317 9.63737 35.7756 13.1813 35.7756C15.2064 35.7756 17.1471 36.4507 18.7503 37.7165C18.7503 37.7165 35.1198 46.7462 40.1826 50.7969C46.1735 55.6915 49.7174 59.911 49.7174 65.565C49.7174 69.1938 47.4392 76.3669 44.8234 79.5737C43.3046 81.4303 41.4483 83.118 39.1701 84.7214L16.894 97.8018C15.7971 97.633 14.6157 97.5486 13.3501 97.5486C7.35915 97.5486 2.38079 99.8271 0.861971 103.034L0.355692 104.806C0.355692 104.891 0.355692 104.975 0.355692 105.059C0.355692 107.169 1.79014 109.026 4.15275 110.376C6.51536 111.726 9.80614 112.57 13.3501 112.57C20.5223 112.57 26.3444 109.194 26.3444 105.059C26.3444 103.456 27.1882 101.937 28.7071 101.346C28.7071 101.346 43.8953 90.9663 49.633 88.4346C58.4085 84.6371 68.3652 84.7214 78.4907 84.6371C88.6162 84.7214 98.5729 84.6371 107.348 88.4346C113.086 90.8819 128.274 101.346 128.274 101.346C129.793 101.937 130.637 103.456 130.637 105.059C130.637 109.194 136.459 112.57 143.631 112.57C147.26 112.57 150.466 111.726 152.829 110.376C155.191 109.026 156.626 107.085 156.626 105.059C156.626 104.975 156.626 104.891 156.626 104.806L156.119 103.034C154.601 99.9115 149.622 97.5486 143.631 97.5486C142.45 97.5486 141.269 97.633 140.087 97.8018L118.571 84.8902C116.293 83.2868 114.436 81.599 112.917 79.7425C110.302 76.5357 108.023 69.2782 108.023 65.7338C108.023 60.0797 111.567 55.7759 117.558 50.8813Z" fill="#0E7DA0"/>
<path d="M156.034 103.118C156.034 102.105 155.612 101.177 154.684 100.249C152.575 98.139 148.609 96.8731 144.306 96.8731C141.521 96.8731 138.905 95.7761 137.049 93.7507C131.311 87.5903 121.017 76.6197 116.629 71.4719L116.545 71.3875C114.773 69.2778 113.085 67.3368 111.651 65.4803C109.035 62.2735 107.685 58.3916 107.685 54.1721C107.685 47.6741 111.989 41.9356 118.992 38.8976C123.295 37.041 134.602 34.0874 139.243 32.906C140.34 32.6528 141.606 32.484 142.871 32.484C143.124 32.484 143.462 32.484 143.715 32.484C144.053 32.484 144.306 32.484 144.643 32.484C147.934 32.484 150.972 31.7245 153.25 30.4587C155.275 29.2772 156.456 27.7582 156.456 26.2392C156.456 25.2265 156.034 24.2982 155.106 23.37C152.997 21.2602 149.031 19.9944 144.728 19.9944C141.437 19.9944 138.399 20.7539 136.121 22.0197C134.096 23.2012 132.915 24.7202 132.915 26.2392C132.915 26.3236 132.915 26.3236 132.915 26.408V26.4924V26.6611V26.7455V26.9143V27.1675C132.83 27.4207 132.408 30.0367 127.852 31.4713H127.767H127.683C121.776 32.5684 111.145 34.5094 106.673 35.1845L105.491 35.3533C94.3533 36.8723 86.9279 37.8849 79.0807 38.1381C71.2334 37.8849 63.8081 36.8723 52.67 35.3533L51.4887 35.1845C46.9323 34.5938 36.3849 32.6528 30.4783 31.4713H30.394H30.3096C25.7531 30.0367 25.2468 27.505 25.2468 27.1675V26.9987V26.8299V26.7455V26.5768V26.4924C25.2468 26.408 25.2468 26.408 25.2468 26.3236C25.2468 24.8046 24.0655 23.2856 22.0404 22.1041C19.7622 20.7539 16.7245 20.0788 13.4338 20.0788C9.13043 20.0788 5.1646 21.3446 3.05512 23.4544C2.12695 24.3826 1.70508 25.3109 1.70508 26.3236C1.70508 27.8426 2.88637 29.3616 4.91147 30.5431C7.18971 31.8933 10.2274 32.5684 13.5181 32.5684C13.8557 32.5684 14.1088 32.5684 14.4463 32.5684C14.6994 32.5684 15.037 32.5684 15.2901 32.5684C16.5558 32.5684 17.7371 32.7372 18.9184 32.9904C23.5592 34.1718 34.866 37.1254 39.1694 38.982C46.2572 42.1044 50.4762 47.7585 50.4762 54.2565C50.4762 58.3916 49.1261 62.2735 46.5103 65.5647C45.0759 67.3368 43.3883 69.3622 41.6164 71.4719L41.532 71.5563C37.2286 76.7041 26.85 87.6747 21.1123 93.8351C19.2559 95.7761 16.6402 96.9575 13.94 96.9575C9.55233 96.9575 5.5865 98.2234 3.5614 100.333C2.63323 101.261 2.21133 102.19 2.21133 103.202C2.21133 104.721 3.39265 106.24 5.41775 107.422C7.69599 108.772 10.7336 109.447 14.0244 109.447C18.3277 109.447 22.2936 108.181 24.403 106.072C25.3312 105.143 25.7531 104.215 25.7531 103.202C25.7531 100.839 26.5969 98.7297 28.2001 97.2951L42.7133 84.3835C52.7544 75.4382 65.6644 70.4592 79.165 70.4592C92.6657 70.4592 105.576 75.4382 115.617 84.3835L130.13 97.2951C131.733 98.7297 132.577 100.839 132.577 103.202C132.577 104.215 132.999 105.228 133.927 106.072C136.037 108.181 140.002 109.447 144.306 109.447C147.596 109.447 150.634 108.688 152.912 107.422C154.853 106.156 156.034 104.637 156.034 103.118Z" fill="#78D9FF"/>
<path d="M23.5581 102.612C23.5581 102.696 23.5581 102.781 23.5581 102.865C23.5581 102.949 23.4737 103.034 23.4737 103.118C23.4737 103.202 23.4737 103.287 23.3893 103.371C23.3893 103.456 23.3049 103.54 23.3049 103.624C23.3049 103.709 23.2206 103.793 23.2206 103.878C23.1362 103.962 23.1362 104.046 23.0518 104.131C22.9674 104.215 22.9674 104.3 22.883 104.384C22.7987 104.468 22.7143 104.553 22.6299 104.637C22.5455 104.721 22.5455 104.806 22.4611 104.806C22.3768 104.89 22.2924 104.975 22.208 105.059C22.1236 105.143 22.1236 105.228 22.0392 105.228C21.9549 105.312 21.7861 105.397 21.7017 105.481C21.6174 105.565 21.533 105.565 21.533 105.65C21.3642 105.819 21.1111 105.903 20.8579 106.072C17.1453 108.181 11.1544 108.181 7.52605 106.072C7.27292 105.903 7.10414 105.819 6.851 105.65C6.76663 105.65 6.76664 105.565 6.68226 105.565C6.5135 105.481 6.42912 105.312 6.26037 105.228C6.17599 105.143 6.17598 105.143 6.0916 105.059C6.00722 104.975 5.83847 104.89 5.75409 104.721C5.66971 104.637 5.6697 104.637 5.58532 104.553C5.50094 104.468 5.41657 104.384 5.33219 104.215C5.24781 104.131 5.2478 104.046 5.16342 103.962C5.07904 103.878 5.07906 103.793 4.99468 103.709C4.99468 103.624 4.91029 103.54 4.91029 103.456C4.91029 103.371 4.82591 103.287 4.82591 103.202C4.82591 103.118 4.82591 103.034 4.74153 102.949C4.74153 102.865 4.65717 102.781 4.65717 102.696C4.65717 102.612 4.65717 102.527 4.65717 102.443C4.48841 100.924 5.41657 99.4049 7.44167 98.3079C11.1544 96.1982 17.1453 96.1982 20.7736 98.3079C22.6299 99.4049 23.5581 100.755 23.4737 102.19C23.5581 102.443 23.5581 102.527 23.5581 102.612Z" fill="#8AE8FF"/>
<path d="M5.58436 95.3544C5.58436 95.4388 5.58436 95.5232 5.66874 95.6076C5.66874 95.692 5.66875 95.7764 5.75313 95.8608C5.75313 95.9452 5.83751 96.0296 5.83751 96.114C5.83751 96.1983 5.9219 96.2827 5.9219 96.2827C6.00628 96.3671 6.00626 96.4515 6.09064 96.5359C6.09064 96.6203 6.17502 96.7047 6.17502 96.7047C6.2594 96.7891 6.34377 96.8735 6.42815 96.9578C6.51253 97.0422 6.51254 97.0422 6.59692 97.1266C6.6813 97.211 6.76567 97.2954 6.85005 97.3798C6.93443 97.4642 6.93444 97.4642 7.01881 97.5486C7.10319 97.633 7.27195 97.7173 7.35633 97.8861C7.44071 97.8861 7.44072 97.9705 7.52509 97.9705C7.69385 98.1393 7.8626 98.2237 8.11573 98.3081C11.4065 100.249 16.8912 100.249 20.182 98.3081C20.3507 98.2237 20.6039 98.0549 20.7726 97.9705C20.857 97.8861 20.857 97.8861 20.9414 97.8017C21.0258 97.7174 21.1945 97.633 21.2789 97.5486C21.3633 97.4642 21.3633 97.4642 21.4477 97.3798C21.532 97.2954 21.6164 97.211 21.7008 97.1266C21.7852 97.0422 21.7852 96.9578 21.8696 96.9578C21.9539 96.8735 22.0383 96.7891 22.0383 96.7047C22.1227 96.6203 22.1227 96.5359 22.1227 96.5359C22.2071 96.4515 22.2071 96.3671 22.2915 96.2827C22.2915 96.1983 22.3758 96.114 22.3758 96.114C22.3758 96.0296 22.4602 95.9452 22.4602 95.8608C22.4602 95.7764 22.4602 95.692 22.5446 95.692C22.5446 95.6076 22.629 95.5232 22.629 95.4388C22.629 95.3544 22.629 95.2701 22.629 95.1857C22.629 95.1013 22.629 95.0169 22.629 94.9325L22.7133 102.106C22.7133 103.371 21.8696 104.637 20.182 105.65C16.8068 107.591 11.4065 107.591 8.11573 105.65C6.42815 104.722 5.58436 103.456 5.58436 102.19L5.5 95.0169C5.5 95.1013 5.5 95.1857 5.5 95.2701C5.58438 95.1857 5.58436 95.2701 5.58436 95.3544Z" fill="url(#paint1_linear_3_17095)"/>
<path d="M22.629 95.1013C22.629 95.1857 22.629 95.2701 22.629 95.3545C22.629 95.4388 22.629 95.5232 22.5446 95.6076C22.5446 95.692 22.5446 95.7764 22.4602 95.7764C22.4602 95.8608 22.3759 95.9452 22.3759 96.0296C22.3759 96.114 22.2915 96.1984 22.2915 96.1984C22.2071 96.2827 22.2071 96.3671 22.1227 96.4515C22.1227 96.5359 22.0383 96.6203 22.0383 96.6203C21.9539 96.7047 21.8696 96.7891 21.8696 96.8735C21.7852 96.9579 21.7852 97.0422 21.7008 97.0422C21.6164 97.1266 21.5321 97.211 21.4477 97.2954C21.3633 97.3798 21.3633 97.3798 21.2789 97.4642C21.1945 97.5486 21.0258 97.633 20.9414 97.7174C20.857 97.8018 20.857 97.8018 20.7726 97.8861C20.6039 98.0549 20.3508 98.1393 20.182 98.2237C16.8068 100.165 11.4066 100.165 8.11579 98.2237C7.94703 98.1393 7.69391 97.9705 7.52515 97.8861C7.44078 97.8861 7.44076 97.8018 7.35639 97.8018C7.18763 97.7174 7.10325 97.633 7.01888 97.4642C6.9345 97.3798 6.93449 97.3798 6.85011 97.2954C6.76573 97.211 6.68136 97.1266 6.59698 97.0422C6.5126 96.9579 6.51259 96.9579 6.42821 96.8735C6.34383 96.7891 6.25946 96.7047 6.17509 96.6203C6.09071 96.5359 6.0907 96.4515 6.0907 96.4515C6.00632 96.3671 6.00634 96.2827 5.92196 96.1984C5.92196 96.114 5.83757 96.0296 5.83757 96.0296C5.83757 95.9452 5.75319 95.8608 5.75319 95.7764C5.75319 95.692 5.75319 95.6076 5.66881 95.5232C5.66881 95.4389 5.58442 95.3545 5.58442 95.2701C5.58442 95.1857 5.58442 95.1013 5.58442 95.0169C5.50004 93.6667 6.25945 92.3164 8.11579 91.2194C11.491 89.2784 16.8912 89.2784 20.2664 91.2194C21.954 92.1477 22.7134 93.4135 22.7134 94.6794C22.7134 94.9325 22.629 95.0169 22.629 95.1013Z" fill="#EBEBEB"/>
<path d="M18.0742 88.2657V88.3501V88.4345C18.0742 88.4345 18.0742 88.5189 17.9898 88.5189V88.6033L17.9055 88.6877C17.9055 88.6877 17.9055 88.7721 17.8211 88.7721C17.8211 88.8565 17.7367 88.8565 17.7367 88.8565C17.7367 88.8565 17.7367 88.9409 17.6523 88.9409C17.6523 89.0253 17.5679 89.0253 17.4836 89.1096L17.3992 89.194C17.3148 89.2784 17.3148 89.2784 17.2304 89.3628C17.2304 89.3628 17.2304 89.3628 17.1461 89.4472C17.0617 89.5316 16.9773 89.5316 16.8929 89.616C15.3741 90.5443 12.9271 90.5443 11.3239 89.616C11.2395 89.5316 11.1551 89.5316 11.0707 89.4472L10.9864 89.3628C10.902 89.3628 10.902 89.2784 10.8176 89.2784L10.7332 89.194L10.6488 89.1096L10.5645 89.0252L10.4801 88.9409C10.4801 88.9409 10.4801 88.8565 10.3957 88.8565L10.3113 88.7721C10.3113 88.7721 10.3113 88.6877 10.2269 88.6877C10.2269 88.6877 10.227 88.6033 10.1426 88.6033V88.5189V88.4345V88.3501V88.2657V94.6793C10.1426 95.2701 10.5645 95.8608 11.3239 96.2827C12.8427 97.211 15.3741 97.211 16.8929 96.2827C17.6523 95.8608 18.0742 95.2701 18.0742 94.6793V88.2657V88.3501C18.1586 88.2658 18.1586 88.2657 18.0742 88.2657Z" fill="url(#paint2_linear_3_17095)"/>
<path d="M10.3115 88.1813V88.2657V88.3501V88.4345C10.3115 88.4345 10.3115 88.5189 10.3959 88.5189C10.3959 88.5189 10.3959 88.6033 10.4803 88.6033L10.5647 88.6877C10.5647 88.6877 10.5647 88.7721 10.649 88.7721L10.7334 88.8564L10.8178 88.9408L10.9022 89.0252L10.9866 89.1096C11.071 89.1096 11.0709 89.194 11.1553 89.194L11.2397 89.2784C11.3241 89.3628 11.4084 89.3628 11.4928 89.4472C13.0117 90.3754 15.543 90.3754 17.0619 89.4472C17.1462 89.3628 17.2306 89.3628 17.315 89.2784C17.315 89.2784 17.315 89.2784 17.3994 89.194C17.4837 89.1096 17.4838 89.1096 17.5681 89.0252C17.5681 89.0252 17.5681 88.9408 17.6525 88.9408C17.6525 88.8564 17.7369 88.8564 17.8213 88.7721C17.8213 88.7721 17.8213 88.6877 17.9056 88.6877L17.99 88.6033C17.99 88.6033 17.99 88.5189 18.0744 88.5189L18.1588 88.4345V88.3501C18.1588 88.3501 18.1588 88.2657 18.2432 88.2657V88.1813V88.0969V88.0125C18.3275 87.4218 17.9056 86.7467 17.0619 86.3248C15.543 85.3965 13.0117 85.3965 11.4928 86.3248C10.7334 86.7467 10.3115 87.3374 10.3959 87.9282C10.3115 88.0969 10.3115 88.1813 10.3115 88.1813Z" fill="#EBEBEB"/>
<path d="M10.7334 88.1813C10.7334 88.1813 10.7334 88.2657 10.7334 88.1813C10.7334 88.2657 10.7334 88.3501 10.7334 88.3501V88.4345C10.7334 88.4345 10.7334 88.5189 10.8178 88.5189V88.6033L10.9022 88.6877C10.9022 88.6877 10.9022 88.7721 10.9866 88.7721L11.0709 88.8564C11.0709 88.8564 11.0709 88.9408 11.1553 88.9408L11.2397 89.0252L11.3241 89.1096C11.3241 89.1096 11.4084 89.194 11.4928 89.194C11.4928 89.194 11.5772 89.194 11.5772 89.2784C11.6616 89.3628 11.746 89.3628 11.8303 89.4472C13.1804 90.2067 15.3742 90.2067 16.8087 89.4472C16.8931 89.3628 16.9774 89.3628 17.0618 89.2784C17.0618 89.2784 17.0618 89.2784 17.1462 89.2784C17.2306 89.2784 17.2306 89.194 17.315 89.194C17.315 89.194 17.3149 89.194 17.3993 89.1096L17.4837 89.0252C17.4837 89.0252 17.4837 89.0252 17.5681 88.9408L17.6525 88.8564C17.6525 88.8564 17.6525 88.7721 17.7368 88.7721L17.8212 88.6877V88.6033C17.8212 88.6033 17.8212 88.5189 17.9056 88.5189V88.4345V88.3501V88.2657C17.99 87.7594 17.6525 87.253 16.8931 86.8311C15.543 86.0716 13.3491 86.0716 11.9147 86.8311C11.2397 87.1687 10.9022 87.675 10.9022 88.1813C10.7334 88.0969 10.7334 88.1813 10.7334 88.1813Z" fill="#A0A0A0"/>
<path d="M12.6738 88.097C12.6738 88.097 12.6738 88.1814 12.6738 88.097C12.6738 88.1814 12.6738 88.1814 12.6738 88.097C12.6738 88.1814 12.6738 88.1814 12.6738 88.1814C12.6738 88.1814 12.6738 88.1814 12.6738 88.2658C12.6738 88.2658 12.6738 88.2658 12.6738 88.3502C12.6738 88.3502 12.6738 88.3501 12.7582 88.4345C12.7582 88.4345 12.7582 88.4345 12.8426 88.5189L12.927 88.6033C13.5176 88.9409 14.5302 88.9409 15.1208 88.6033C15.1208 88.6033 15.2052 88.6033 15.2052 88.5189C15.2052 88.5189 15.2896 88.5189 15.2896 88.4345C15.2896 88.4345 15.2896 88.4345 15.3739 88.3502C15.3739 88.3502 15.3739 88.3501 15.3739 88.2658C15.3739 88.2658 15.3739 88.2658 15.3739 88.1814C15.3739 88.1814 15.3739 88.1814 15.3739 88.097C15.3739 87.8438 15.2052 87.675 14.952 87.4219C14.3614 87.0843 13.3488 87.0843 12.7582 87.4219C12.8426 87.675 12.6738 87.8438 12.6738 88.097Z" fill="#CCCCCC"/>
<path d="M154.432 25.9021C154.432 25.9865 154.432 26.0709 154.432 26.1553C154.432 26.2397 154.347 26.3241 154.347 26.4084C154.347 26.4928 154.347 26.5772 154.263 26.6616C154.263 26.746 154.178 26.8304 154.178 26.9148C154.178 26.9992 154.094 27.0836 154.094 27.168C154.01 27.2523 154.01 27.3367 153.925 27.4211C153.841 27.5055 153.841 27.5899 153.757 27.6743C153.672 27.7587 153.588 27.8431 153.503 27.9275C153.419 28.0119 153.419 28.0962 153.335 28.0962C153.25 28.1806 153.166 28.265 153.081 28.3494C152.997 28.4338 152.997 28.4338 152.913 28.5182C152.828 28.6026 152.66 28.687 152.575 28.7714C152.491 28.8557 152.406 28.8557 152.322 28.9401C152.153 29.1089 151.9 29.1933 151.647 29.3621C147.934 31.4718 141.943 31.4718 138.315 29.3621C138.062 29.1933 137.893 29.1089 137.64 28.9401C137.556 28.9401 137.556 28.8557 137.471 28.8557C137.303 28.7714 137.218 28.6026 137.049 28.5182C136.965 28.4338 136.965 28.4338 136.881 28.3494C136.796 28.265 136.628 28.1806 136.543 28.0118C136.459 27.9275 136.459 27.9275 136.374 27.8431C136.29 27.7587 136.206 27.6743 136.121 27.5055C136.037 27.4211 136.037 27.3367 135.952 27.3367C135.868 27.2523 135.868 27.168 135.784 27.0836C135.784 26.9992 135.699 26.9148 135.699 26.8304C135.699 26.746 135.615 26.6616 135.615 26.5772C135.615 26.4928 135.615 26.4085 135.531 26.3241C135.531 26.2397 135.446 26.1553 135.446 26.0709C135.446 25.9865 135.446 25.9021 135.446 25.8177C135.277 24.2987 136.206 22.7797 138.231 21.6826C141.943 19.5729 147.934 19.5729 151.563 21.6826C153.419 22.7797 154.347 24.1299 154.263 25.5646C154.432 25.6489 154.432 25.7333 154.432 25.9021Z" fill="#8AE8FF"/>
<path d="M136.458 18.5602C136.458 18.6446 136.458 18.729 136.543 18.8134C136.543 18.8978 136.543 18.9822 136.627 19.0665C136.627 19.1509 136.712 19.2353 136.712 19.3197C136.712 19.4041 136.796 19.4885 136.796 19.4885C136.88 19.5729 136.88 19.6573 136.965 19.7417C136.965 19.826 137.049 19.9104 137.049 19.9104C137.133 19.9948 137.218 20.0792 137.302 20.1636C137.387 20.248 137.387 20.248 137.471 20.3324C137.555 20.4168 137.64 20.5012 137.724 20.5856C137.808 20.6699 137.808 20.6699 137.893 20.7543C137.977 20.8387 138.146 20.9231 138.23 21.0075C138.315 21.0075 138.315 21.0919 138.399 21.0919C138.568 21.2607 138.737 21.3451 138.99 21.4294C142.281 23.3704 147.765 23.3704 151.056 21.4294C151.225 21.3451 151.478 21.1763 151.647 21.0919C151.731 21.0075 151.815 21.0075 151.815 20.9231C151.9 20.8387 152.069 20.7543 152.153 20.6699C152.237 20.5856 152.237 20.5856 152.322 20.5012C152.406 20.4168 152.49 20.3324 152.575 20.248C152.659 20.1636 152.659 20.0792 152.744 20.0792C152.828 19.9948 152.912 19.9104 152.912 19.826C152.997 19.7417 152.997 19.6573 152.997 19.6573C153.081 19.5729 153.081 19.4885 153.165 19.4041C153.165 19.3197 153.25 19.2353 153.25 19.2353C153.25 19.1509 153.334 19.0665 153.334 18.9822C153.334 18.8978 153.334 18.8134 153.419 18.729C153.419 18.6446 153.503 18.5602 153.503 18.4758C153.503 18.3914 153.503 18.307 153.503 18.2226C153.503 18.1383 153.503 18.0539 153.503 17.9695L153.587 25.1426C153.587 26.4084 152.744 27.6743 151.056 28.6869C147.681 30.6279 142.281 30.6279 138.99 28.6869C137.302 27.7587 136.458 26.4928 136.458 25.227L136.374 18.0539C136.374 18.1383 136.374 18.2226 136.374 18.307C136.458 18.3914 136.458 18.4758 136.458 18.5602Z" fill="url(#paint3_linear_3_17095)"/>
<path d="M153.503 18.307C153.503 18.3914 153.503 18.4758 153.503 18.5602C153.503 18.6446 153.419 18.729 153.419 18.8134C153.419 18.8978 153.419 18.9821 153.334 19.0665C153.334 19.1509 153.25 19.2353 153.25 19.3197C153.25 19.4041 153.165 19.4885 153.165 19.4885C153.081 19.5729 153.081 19.6573 152.997 19.7417C152.912 19.826 152.912 19.9104 152.912 19.9104C152.828 19.9948 152.744 20.0792 152.744 20.1636C152.659 20.248 152.659 20.3324 152.575 20.3324C152.49 20.4168 152.406 20.5012 152.322 20.5855C152.237 20.6699 152.237 20.6699 152.153 20.7543C152.069 20.8387 151.9 20.9231 151.815 21.0075C151.731 21.0919 151.731 21.0919 151.647 21.1763C151.478 21.3451 151.225 21.4294 151.056 21.5138C147.681 23.4548 142.281 23.4548 138.99 21.5138C138.821 21.4294 138.568 21.2607 138.399 21.1763C138.315 21.1763 138.315 21.0919 138.23 21.0919C138.062 21.0075 137.977 20.9231 137.893 20.8387C137.808 20.7543 137.809 20.7543 137.724 20.6699C137.64 20.5855 137.555 20.5012 137.471 20.4168C137.387 20.3324 137.387 20.3324 137.302 20.248C137.218 20.1636 137.133 20.0792 137.049 19.9948C136.965 19.9104 136.965 19.826 136.965 19.826C136.88 19.7417 136.88 19.6573 136.796 19.5729C136.796 19.4885 136.712 19.4041 136.712 19.4041C136.712 19.3197 136.627 19.2353 136.627 19.1509C136.627 19.0665 136.627 18.9821 136.543 18.8978C136.543 18.8134 136.458 18.729 136.458 18.6446C136.458 18.5602 136.458 18.4758 136.458 18.3914C136.374 17.0412 137.133 15.691 138.99 14.5939C142.365 12.6529 147.765 12.6529 151.14 14.5939C152.828 15.5222 153.587 16.788 153.587 18.0539C153.587 18.1383 153.503 18.2226 153.503 18.307Z" fill="#EBEBEB"/>
<path d="M148.947 11.5556V11.6399V11.7243C148.947 11.7243 148.947 11.8087 148.862 11.8087V11.8931L148.778 11.9775C148.778 11.9775 148.778 12.0619 148.694 12.0619L148.609 12.1463C148.609 12.1463 148.609 12.2307 148.525 12.2307C148.525 12.3151 148.441 12.3151 148.356 12.3994C148.356 12.3994 148.272 12.3994 148.272 12.4838C148.187 12.5682 148.187 12.5682 148.103 12.6526C148.103 12.6526 148.103 12.6526 148.019 12.737C147.934 12.8214 147.85 12.8214 147.766 12.9058C146.247 13.8341 143.8 13.8341 142.197 12.9058C142.112 12.8214 142.028 12.8214 141.943 12.737L141.859 12.6526C141.775 12.6526 141.775 12.5682 141.69 12.5682L141.606 12.4838L141.522 12.3994L141.437 12.3151L141.353 12.2307C141.353 12.2307 141.353 12.1463 141.268 12.1463L141.184 12.0619V11.9775C141.184 11.9775 141.184 11.8931 141.1 11.8931V11.8087V11.7243V11.6399V11.5556V17.9692C141.1 18.5599 141.521 19.1506 142.281 19.5725C143.8 20.5008 146.331 20.4164 147.85 19.5725C148.609 19.1506 149.031 18.5599 149.031 17.9692V11.5556V11.6399C149.031 11.4712 149.031 11.4712 148.947 11.5556Z" fill="url(#paint4_linear_3_17095)"/>
<path d="M141.184 11.3869V11.4713V11.5557V11.6401C141.184 11.6401 141.184 11.7244 141.268 11.7244V11.8088L141.353 11.8932C141.353 11.8932 141.353 11.9776 141.437 11.9776L141.522 12.062L141.606 12.1464C141.606 12.2308 141.69 12.2308 141.69 12.2308L141.775 12.3152C141.859 12.3152 141.859 12.3996 141.943 12.3996L142.028 12.4839C142.112 12.5683 142.197 12.5683 142.281 12.6527C143.8 13.581 146.331 13.581 147.85 12.6527C147.934 12.5683 148.019 12.5683 148.103 12.4839C148.103 12.4839 148.103 12.4839 148.187 12.3996C148.272 12.3152 148.272 12.3152 148.356 12.2308L148.441 12.1464C148.525 12.062 148.525 12.062 148.609 11.9776C148.609 11.9776 148.609 11.8932 148.694 11.8932L148.778 11.8088C148.778 11.8088 148.778 11.7244 148.862 11.7244L148.947 11.6401V11.5557C148.947 11.5557 148.947 11.4713 149.031 11.4713V11.3869V11.3025V11.2181C149.116 10.6274 148.694 9.95227 147.85 9.53032C146.331 8.60204 143.8 8.60204 142.281 9.53032C141.521 9.95227 141.1 10.543 141.1 11.1337C141.184 11.3025 141.184 11.3869 141.184 11.3869Z" fill="#EBEBEB"/>
<path d="M141.605 11.3869V11.4713V11.5557V11.6401V11.7245V11.8088C141.605 11.8088 141.605 11.8932 141.69 11.8932C141.69 11.8932 141.69 11.9776 141.774 11.9776L141.859 12.062C141.859 12.062 141.859 12.1464 141.943 12.1464L142.027 12.2308L142.112 12.3152C142.112 12.3152 142.196 12.3996 142.28 12.3996C142.28 12.3996 142.365 12.3996 142.365 12.484C142.449 12.5683 142.534 12.5683 142.618 12.6527C143.968 13.4122 146.162 13.4122 147.596 12.6527C147.681 12.5683 147.765 12.5683 147.85 12.484C147.85 12.484 147.85 12.484 147.934 12.484C148.018 12.484 148.018 12.3996 148.103 12.3996C148.103 12.3996 148.103 12.3996 148.187 12.3152L148.271 12.2308C148.271 12.2308 148.271 12.2308 148.356 12.1464L148.44 12.062C148.44 12.062 148.44 11.9776 148.525 11.9776L148.609 11.8932V11.8088C148.609 11.8088 148.609 11.7245 148.693 11.7245V11.6401V11.5557V11.4713C148.778 10.965 148.44 10.4586 147.681 10.0367C146.331 9.27717 144.137 9.27717 142.702 10.0367C142.027 10.3742 141.69 10.8806 141.69 11.3869C141.605 11.3025 141.605 11.3869 141.605 11.3869Z" fill="#A0A0A0"/>
<path d="M143.547 11.3868C143.547 11.4712 143.547 11.4712 143.547 11.4712C143.547 11.4712 143.547 11.4712 143.547 11.5556C143.547 11.5556 143.547 11.5556 143.547 11.64C143.547 11.64 143.547 11.64 143.631 11.7243C143.631 11.7243 143.631 11.7243 143.716 11.8087L143.8 11.8931C144.391 12.2307 145.403 12.2307 145.994 11.8931C145.994 11.8931 146.078 11.8931 146.078 11.8087C146.078 11.8087 146.163 11.8087 146.163 11.7243C146.163 11.7243 146.163 11.7243 146.247 11.64C146.247 11.64 146.247 11.64 146.331 11.5556C146.331 11.5556 146.331 11.5556 146.331 11.4712C146.331 11.4712 146.331 11.4712 146.331 11.3868C146.331 11.1336 146.163 10.9648 145.909 10.7117C145.319 10.3741 144.306 10.3741 143.716 10.7117C143.716 10.8804 143.547 11.0492 143.547 11.3868C143.547 11.3024 143.547 11.3024 143.547 11.3868Z" fill="#CCCCCC"/>
<path d="M135.024 102.78C135.024 102.865 135.024 102.949 135.024 103.034C135.024 103.118 135.109 103.202 135.109 103.287C135.109 103.371 135.109 103.456 135.193 103.54C135.193 103.624 135.278 103.709 135.278 103.793C135.278 103.878 135.362 103.962 135.362 104.046C135.446 104.131 135.446 104.215 135.531 104.299C135.615 104.384 135.615 104.468 135.699 104.553C135.784 104.637 135.868 104.721 135.953 104.806C136.037 104.89 136.037 104.975 136.121 104.975C136.206 105.059 136.29 105.143 136.374 105.228C136.459 105.312 136.459 105.397 136.543 105.397C136.628 105.481 136.796 105.565 136.881 105.65C136.965 105.734 137.05 105.734 137.134 105.818C137.303 105.987 137.556 106.072 137.809 106.24C141.522 108.35 147.512 108.266 151.141 106.072C151.394 105.903 151.563 105.818 151.816 105.65C151.9 105.65 151.9 105.565 151.985 105.565C152.153 105.481 152.238 105.312 152.406 105.228C152.491 105.143 152.491 105.143 152.575 105.059C152.66 104.975 152.828 104.89 152.913 104.721C152.997 104.637 152.997 104.637 153.081 104.553C153.166 104.468 153.25 104.384 153.335 104.215C153.419 104.131 153.419 104.046 153.503 103.962C153.588 103.878 153.588 103.793 153.672 103.709C153.672 103.624 153.757 103.54 153.757 103.456C153.757 103.371 153.841 103.287 153.841 103.202C153.841 103.118 153.841 103.034 153.925 102.949C153.925 102.865 154.01 102.78 154.01 102.696C154.01 102.612 154.01 102.527 154.01 102.443C154.094 100.924 153.166 99.4049 151.225 98.3078C147.513 96.1981 141.522 96.2825 137.893 98.4766C136.037 99.5737 135.193 100.924 135.193 102.359C135.024 102.527 135.024 102.612 135.024 102.78Z" fill="#8AE8FF"/>
<path d="M152.914 95.2699C152.914 95.3543 152.914 95.4387 152.829 95.5231C152.829 95.6075 152.829 95.6919 152.745 95.7763C152.745 95.8607 152.661 95.945 152.661 96.0294C152.661 96.1138 152.576 96.1982 152.576 96.1982C152.492 96.2826 152.492 96.367 152.407 96.4514C152.407 96.5358 152.323 96.6202 152.323 96.6202C152.239 96.7046 152.154 96.7889 152.07 96.8733C151.986 96.9577 151.986 96.9577 151.901 97.0421C151.817 97.1265 151.732 97.2109 151.648 97.2953C151.564 97.3797 151.564 97.3797 151.479 97.4641C151.395 97.5484 151.226 97.6328 151.142 97.8016C151.057 97.8016 151.057 97.886 150.973 97.886C150.804 98.0548 150.635 98.1392 150.382 98.308C147.092 100.249 141.691 100.333 138.316 98.4767C138.147 98.3924 137.894 98.2236 137.725 98.1392C137.641 98.0548 137.557 98.0548 137.557 97.9704C137.472 97.886 137.304 97.8016 137.219 97.7172C137.135 97.6328 137.135 97.6328 137.05 97.5485C136.966 97.4641 136.882 97.3797 136.797 97.2953C136.713 97.2109 136.713 97.1265 136.629 97.1265C136.544 97.0421 136.46 96.9577 136.46 96.8733C136.375 96.7889 136.375 96.7046 136.375 96.7046C136.291 96.6202 136.291 96.5358 136.207 96.4514C136.207 96.367 136.122 96.2826 136.122 96.2826C136.122 96.1982 136.038 96.1138 136.038 96.0294C136.038 95.945 136.038 95.8607 135.953 95.8607C135.953 95.7763 135.869 95.6919 135.869 95.6075C135.869 95.5231 135.869 95.4387 135.869 95.3543C135.869 95.2699 135.869 95.1856 135.869 95.1012V102.274C135.869 103.54 136.713 104.806 138.401 105.819C141.776 107.76 147.176 107.675 150.467 105.65C152.154 104.637 152.914 103.371 152.914 102.105V94.9324C152.914 95.0168 152.914 95.1012 152.914 95.1855C152.914 95.1012 152.914 95.1855 152.914 95.2699Z" fill="url(#paint5_linear_3_17095)"/>
<path d="M135.869 95.1854C135.869 95.2698 135.869 95.3542 135.869 95.4386C135.869 95.523 135.953 95.6074 135.953 95.6917C135.953 95.7761 135.953 95.8605 136.037 95.8605C136.037 95.9449 136.122 96.0293 136.122 96.1137C136.122 96.1981 136.206 96.2825 136.206 96.2825C136.29 96.3669 136.29 96.4512 136.375 96.5356C136.375 96.62 136.459 96.7044 136.459 96.7044C136.544 96.7888 136.628 96.8732 136.628 96.9576C136.712 97.042 136.712 97.042 136.797 97.1264C136.881 97.2107 136.965 97.2951 137.05 97.3795C137.134 97.4639 137.134 97.4639 137.219 97.5483C137.303 97.6327 137.472 97.7171 137.556 97.8015C137.641 97.8859 137.641 97.8859 137.725 97.9703C137.894 98.0546 138.147 98.2234 138.316 98.3078C141.691 100.249 147.091 100.164 150.382 98.139C150.551 98.0546 150.804 97.8859 150.972 97.7171C151.057 97.7171 151.057 97.6327 151.141 97.6327C151.31 97.5483 151.394 97.4639 151.479 97.2951C151.563 97.2107 151.563 97.2107 151.648 97.1264C151.732 97.042 151.816 96.9576 151.901 96.8732C151.985 96.7888 151.985 96.7888 152.069 96.7044C152.154 96.62 152.238 96.5356 152.323 96.4512C152.407 96.3668 152.407 96.2825 152.407 96.2825C152.491 96.1981 152.491 96.1137 152.576 96.0293C152.576 95.9449 152.66 95.8605 152.66 95.8605C152.66 95.7761 152.744 95.6917 152.744 95.6073C152.744 95.523 152.744 95.4386 152.829 95.3542C152.829 95.2698 152.913 95.1854 152.913 95.101C152.913 95.0166 152.913 94.9322 152.913 94.8478C152.998 93.4976 152.154 92.1474 150.382 91.1347C147.007 89.2781 141.606 89.2781 138.231 91.3035C136.544 92.3162 135.784 93.582 135.784 94.8478C135.869 95.0166 135.869 95.101 135.869 95.1854Z" fill="#EBEBEB"/>
<path d="M140.34 88.3501V88.4345V88.5189C140.34 88.5189 140.34 88.6033 140.424 88.6033V88.6877L140.509 88.7721C140.509 88.7721 140.509 88.8565 140.593 88.8565C140.593 88.9409 140.677 88.9409 140.677 88.9409C140.677 88.9409 140.677 89.0252 140.762 89.0252C140.762 89.1096 140.846 89.1096 140.931 89.194C140.931 89.194 140.93 89.2784 141.015 89.2784C141.099 89.3628 141.099 89.3628 141.184 89.4472C141.184 89.4472 141.184 89.4472 141.268 89.5316C141.352 89.616 141.437 89.616 141.521 89.7004C143.04 90.5443 145.571 90.5443 147.09 89.616C147.175 89.5316 147.259 89.5316 147.343 89.4472L147.428 89.3628C147.512 89.3628 147.512 89.2784 147.596 89.2784L147.681 89.194L147.765 89.1096L147.85 89.0252L147.934 88.9409C147.934 88.9409 147.934 88.8565 148.018 88.8565L148.103 88.7721V88.6877C148.103 88.6877 148.103 88.6033 148.187 88.6033V88.5189V88.4345V88.3501V88.2657L148.271 94.6794C148.271 95.2701 147.934 95.8608 147.175 96.2827C145.656 97.211 143.124 97.211 141.606 96.3671C140.846 95.9452 140.424 95.3545 140.424 94.7637L140.34 88.3501V88.4345C140.34 88.2657 140.34 88.2658 140.34 88.3501Z" fill="url(#paint6_linear_3_17095)"/>
<path d="M148.188 88.1813V88.2656V88.35V88.4344C148.188 88.4344 148.188 88.5188 148.104 88.5188V88.6032C148.104 88.6876 148.019 88.6876 148.019 88.6876C148.019 88.6876 148.019 88.772 147.935 88.772L147.85 88.8564L147.766 88.9408C147.766 89.0252 147.682 89.0251 147.682 89.0251L147.597 89.1095C147.513 89.1939 147.513 89.1939 147.429 89.1939L147.344 89.2783C147.26 89.3627 147.175 89.3627 147.091 89.4471C145.572 90.3754 143.125 90.3754 141.522 89.5315C141.438 89.4471 141.353 89.4471 141.269 89.3627C141.269 89.3627 141.269 89.3627 141.185 89.2783C141.1 89.1939 141.1 89.1939 141.016 89.1095L140.931 89.0251C140.847 88.9408 140.847 88.9408 140.763 88.8564C140.763 88.8564 140.763 88.772 140.678 88.772L140.594 88.6876C140.594 88.6876 140.594 88.6032 140.509 88.6032L140.425 88.5188V88.4344C140.425 88.4344 140.425 88.35 140.341 88.35V88.2656V88.1813V88.0969C140.256 87.5061 140.678 86.831 141.438 86.3247C142.956 85.3964 145.488 85.3964 147.007 86.2403C147.766 86.6623 148.188 87.253 148.188 87.8437C148.188 88.0969 148.188 88.0969 148.188 88.1813Z" fill="#EBEBEB"/>
<path d="M147.681 88.097C147.681 88.1814 147.681 88.1814 147.681 88.097C147.681 88.1814 147.681 88.2658 147.681 88.2658V88.3501C147.681 88.3501 147.681 88.4345 147.596 88.4345V88.5189L147.512 88.6033C147.512 88.6033 147.512 88.6877 147.428 88.6877L147.343 88.7721C147.343 88.7721 147.343 88.8565 147.259 88.8565L147.175 88.9409L147.09 89.0253C147.09 89.0253 147.006 89.1096 146.921 89.1096C146.921 89.1096 146.837 89.1097 146.837 89.194C146.753 89.2784 146.668 89.2784 146.584 89.3628C145.234 90.1223 143.04 90.1223 141.606 89.4472C141.521 89.3628 141.437 89.3628 141.353 89.2784C141.353 89.2784 141.353 89.2784 141.268 89.2784C141.184 89.2784 141.184 89.194 141.099 89.194C141.099 89.194 141.099 89.194 141.015 89.1096L140.931 89.0253C140.931 89.0253 140.931 89.0253 140.846 88.9409L140.762 88.8565C140.762 88.8565 140.762 88.7721 140.678 88.7721L140.593 88.6877V88.6033C140.593 88.6033 140.593 88.5189 140.509 88.5189V88.4345V88.3501V88.2658C140.424 87.7594 140.762 87.2531 141.521 86.8311C142.871 86.0716 145.065 86.0716 146.5 86.7467C147.175 87.0843 147.512 87.5906 147.512 88.097C147.765 88.097 147.681 88.097 147.681 88.097Z" fill="#A0A0A0"/>
<path d="M145.741 88.097C145.741 88.1814 145.741 88.1814 145.741 88.097C145.741 88.1814 145.741 88.1814 145.741 88.1814C145.741 88.1814 145.741 88.1814 145.741 88.2658C145.741 88.2658 145.741 88.2658 145.741 88.3501C145.741 88.3501 145.741 88.3501 145.657 88.4345C145.657 88.4345 145.657 88.4345 145.572 88.5189L145.488 88.6033C144.897 88.9409 143.885 88.9409 143.294 88.6033C143.294 88.6033 143.21 88.6033 143.21 88.5189C143.21 88.5189 143.125 88.5189 143.125 88.4345C143.125 88.4345 143.125 88.4345 143.041 88.3501C143.041 88.3501 143.041 88.3501 143.041 88.2658C143.041 88.2658 143.041 88.2657 143.041 88.1814C143.041 88.1814 143.041 88.1814 143.041 88.097C143.041 87.8438 143.125 87.5906 143.463 87.4219C144.054 87.0843 145.066 87.0843 145.657 87.4219C145.657 87.5906 145.741 87.8438 145.741 88.097Z" fill="#CCCCCC"/>
<path d="M148.187 89.3627C146.837 90.0378 145.572 90.3753 143.884 90.2909C143.378 90.2909 141.606 90.2066 140.087 89.1939C139.496 88.7719 138.737 88.0968 138.484 86.9154C138.484 86.831 138.484 86.6622 138.399 86.5778C138.399 86.9154 138.399 87.3373 138.484 87.5905C138.737 88.6875 139.496 89.447 140.087 89.7846C141.606 90.7973 143.378 90.8817 143.884 90.8817C145.656 90.8817 146.837 90.6285 148.187 89.9534C149.875 88.9407 150.213 87.7593 150.213 86.9154C150.213 86.831 150.213 86.6622 150.213 86.4934C150.044 87.4217 149.622 88.5188 148.187 89.3627Z" fill="url(#paint7_linear_3_17095)"/>
<path d="M3.98535 25.9016C3.98535 25.986 3.98535 26.0704 3.98535 26.1548C3.98535 26.2392 4.06974 26.3236 4.06974 26.408C4.06974 26.4924 4.06974 26.5767 4.15412 26.6611C4.15412 26.7455 4.2385 26.8299 4.2385 26.9143C4.2385 26.9987 4.32286 27.0831 4.32286 27.1675C4.40724 27.2519 4.40725 27.3362 4.49163 27.4206C4.57601 27.505 4.57602 27.5894 4.6604 27.6738C4.74478 27.7582 4.82915 27.8426 4.91353 27.927C4.9979 28.0114 4.99792 28.0958 5.08229 28.1801C5.16667 28.2645 5.25104 28.3489 5.33542 28.4333C5.4198 28.5177 5.41981 28.5177 5.50419 28.6021C5.58857 28.6865 5.75732 28.7709 5.8417 28.8553C5.92608 28.9396 6.01045 28.9397 6.09483 29.024C6.26358 29.1928 6.51674 29.2772 6.76987 29.446C10.4826 31.5557 16.4734 31.5557 20.1017 29.446C20.3549 29.2772 20.5236 29.1928 20.7768 29.024C20.8611 29.024 20.8612 28.9396 20.9455 28.9396C21.1143 28.8553 21.1987 28.6865 21.3674 28.6021C21.4518 28.5177 21.4518 28.5177 21.5362 28.4333C21.6206 28.3489 21.7893 28.2645 21.8737 28.0958C21.9581 28.0114 21.9581 28.0114 22.0425 27.927C22.1268 27.8426 22.2112 27.7582 22.2956 27.5894C22.38 27.505 22.38 27.4206 22.4643 27.3363C22.5487 27.2519 22.5487 27.1675 22.6331 27.0831C22.6331 26.9987 22.7175 26.9143 22.7175 26.8299C22.7175 26.7455 22.8019 26.6611 22.8019 26.5767C22.8019 26.4924 22.8019 26.408 22.8862 26.3236C22.8862 26.2392 22.9706 26.1548 22.9706 26.0704C22.9706 25.986 22.9706 25.9016 22.9706 25.8172C23.1394 24.2982 22.2112 22.7792 20.1861 21.6822C16.4735 19.5724 10.4825 19.5724 6.85423 21.6822C4.99789 22.7792 4.06974 24.1294 4.15412 25.5641C3.98536 25.7328 3.98535 25.8172 3.98535 25.9016Z" fill="#8AE8FF"/>
<path d="M21.9581 18.6439C21.9581 18.7283 21.958 18.8127 21.8737 18.8971C21.8737 18.9815 21.8737 19.0659 21.7893 19.1502C21.7893 19.2346 21.7049 19.319 21.7049 19.4034C21.7049 19.4878 21.6205 19.5722 21.6205 19.5722C21.5361 19.6566 21.5362 19.741 21.4518 19.8254C21.4518 19.9098 21.3674 19.9941 21.3674 19.9941C21.283 20.0785 21.1986 20.1629 21.1143 20.2473C21.0299 20.3317 21.0299 20.3317 20.9455 20.4161C20.8611 20.5005 20.7767 20.5849 20.6924 20.6693C20.608 20.7536 20.608 20.7536 20.5236 20.838C20.4392 20.9224 20.2705 21.0068 20.1861 21.1756C20.1017 21.1756 20.1017 21.26 20.0173 21.26C19.8486 21.4288 19.6798 21.5131 19.4267 21.5975C16.1359 23.5385 10.6513 23.5385 7.36047 21.5975C7.19171 21.5131 6.93859 21.3444 6.76983 21.26C6.68545 21.1756 6.68544 21.1756 6.60107 21.0912C6.51669 21.0068 6.34793 20.9224 6.26355 20.838C6.17918 20.7536 6.17917 20.7536 6.09479 20.6693C6.01041 20.5849 5.92604 20.5005 5.84166 20.4161C5.75728 20.3317 5.75727 20.3317 5.67289 20.2473C5.58851 20.1629 5.50415 20.0785 5.50415 19.9941C5.41977 19.9097 5.41976 19.8254 5.41976 19.8254C5.33539 19.741 5.33538 19.6566 5.251 19.5722C5.251 19.4878 5.16661 19.4034 5.16661 19.4034C5.16661 19.319 5.08225 19.2346 5.08225 19.1502C5.08225 19.0659 5.08225 18.9815 4.99787 18.8971C4.99787 18.8127 4.91349 18.7283 4.91349 18.6439C4.91349 18.5595 4.91349 18.4751 4.91349 18.3907C4.91349 18.3064 4.91349 18.222 4.91349 18.1376L4.8291 25.3107C4.8291 26.5765 5.67289 27.8424 7.36047 28.855C10.7356 30.796 16.1359 30.796 19.4267 28.855C21.1143 27.9267 21.9581 26.6609 21.9581 25.3951L22.0424 18.222C22.0424 18.3064 22.0424 18.3907 22.0424 18.4751C21.958 18.4751 21.9581 18.5595 21.9581 18.6439Z" fill="url(#paint8_linear_3_17095)"/>
<path d="M4.91349 18.3909C4.91349 18.4753 4.91349 18.5597 4.91349 18.6441C4.91349 18.7285 4.91349 18.8129 4.99787 18.8973C4.99787 18.9817 4.99787 19.066 5.08225 19.1504C5.08225 19.2348 5.16661 19.3192 5.16661 19.4036C5.16661 19.488 5.251 19.5724 5.251 19.5724C5.33538 19.6568 5.33539 19.7412 5.41976 19.8256C5.50414 19.9099 5.50415 19.9943 5.50415 19.9943C5.58853 20.0787 5.67289 20.1631 5.67289 20.2475C5.75727 20.3319 5.75728 20.3319 5.84166 20.4163C5.92604 20.5007 6.01041 20.5851 6.09479 20.6694C6.17917 20.7538 6.17918 20.7538 6.26355 20.8382C6.34793 20.9226 6.51669 21.007 6.60107 21.0914C6.68544 21.1758 6.68545 21.1758 6.76983 21.2602C6.93859 21.4289 7.19171 21.5133 7.36047 21.5977C10.7356 23.5387 16.1359 23.5387 19.4267 21.5977C19.5954 21.5133 19.8486 21.3446 20.0173 21.2602C20.1017 21.2602 20.1017 21.1758 20.1861 21.1758C20.3548 21.0914 20.4392 21.007 20.5236 20.8382C20.608 20.7538 20.608 20.7538 20.6924 20.6694C20.7767 20.5851 20.8611 20.5007 20.9455 20.4163C21.0299 20.3319 21.0299 20.3319 21.1143 20.2475C21.1986 20.1631 21.283 20.0787 21.3674 19.9943C21.4518 19.9099 21.4518 19.9099 21.4518 19.8256C21.5361 19.7412 21.5361 19.6568 21.6205 19.5724C21.6205 19.488 21.7049 19.4036 21.7049 19.4036C21.7049 19.3192 21.7893 19.2348 21.7893 19.1504C21.7893 19.066 21.7893 18.9817 21.8737 18.8973C21.8737 18.8129 21.958 18.7285 21.958 18.6441C21.958 18.5597 21.958 18.4753 21.958 18.3909C22.0424 17.0407 21.283 15.6905 19.4267 14.5934C16.0515 12.6525 10.6512 12.6525 7.27609 14.5934C5.58851 15.5217 4.8291 16.7875 4.8291 18.0534C4.8291 18.2222 4.91349 18.3065 4.91349 18.3909Z" fill="#EBEBEB"/>
<path d="M9.46817 11.6395V11.7239V11.8083C9.46817 11.8083 9.46818 11.8927 9.55256 11.8927V11.9771L9.63694 12.0615C9.63694 12.0615 9.63695 12.1459 9.72133 12.1459C9.72133 12.2303 9.80569 12.2303 9.80569 12.2303C9.80569 12.2303 9.80569 12.3147 9.89007 12.3147C9.89007 12.399 9.97446 12.399 10.0588 12.4834L10.1432 12.5678C10.2276 12.6522 10.2276 12.6522 10.312 12.7366C10.312 12.7366 10.312 12.7366 10.3964 12.821C10.4807 12.9054 10.5651 12.9054 10.6495 12.9898C12.1683 13.9181 14.6153 13.9181 16.2185 12.9898C16.3029 12.9054 16.3873 12.9054 16.4717 12.821L16.556 12.7366C16.6404 12.7366 16.6404 12.6522 16.7248 12.6522L16.8092 12.5678L16.8936 12.4834L16.9779 12.399L17.0623 12.3147C17.0623 12.3147 17.0623 12.2303 17.1467 12.2303L17.2311 12.1459V12.0615C17.2311 12.0615 17.2311 11.9771 17.3155 11.9771V11.8927V11.8083V11.7239V11.6395V18.0531C17.3155 18.6439 16.8936 19.2346 16.1341 19.6565C14.6153 20.5848 12.0839 20.5848 10.5651 19.6565C9.80571 19.2346 9.38379 18.6439 9.38379 18.0531V11.6395V11.7239C9.38379 11.5551 9.38379 11.5551 9.46817 11.6395Z" fill="url(#paint9_linear_3_17095)"/>
<path d="M17.2319 11.471V11.5554V11.6398V11.7242C17.2319 11.7242 17.2319 11.8085 17.1475 11.8085V11.8929L17.0631 11.9773C17.0631 11.9773 17.0631 12.0617 16.9788 12.0617L16.8944 12.1461L16.81 12.2305L16.7256 12.3149L16.6412 12.3993C16.5569 12.3993 16.5569 12.4837 16.4725 12.4837L16.3881 12.5681C16.3037 12.6524 16.2193 12.6524 16.135 12.7368C14.6161 13.6651 12.0848 13.6651 10.566 12.7368C10.4816 12.6524 10.3972 12.6524 10.3128 12.5681C10.3128 12.5681 10.3128 12.5681 10.2284 12.4837C10.144 12.3993 10.144 12.3993 10.0597 12.3149C10.0597 12.3149 10.0597 12.2305 9.97528 12.2305C9.89091 12.2305 9.8909 12.1461 9.80652 12.0617C9.80652 12.0617 9.80654 11.9773 9.72216 11.9773L9.63777 11.8929C9.63777 11.8929 9.63777 11.8085 9.55339 11.8085L9.469 11.7242V11.6398C9.469 11.6398 9.469 11.5554 9.38462 11.5554V11.471V11.3866V11.3022C9.30024 10.7115 9.72216 10.0364 10.566 9.61442C12.0848 8.68614 14.6161 8.68614 16.135 9.61442C16.8944 10.0364 17.3163 10.6271 17.3163 11.2178C17.2319 11.3866 17.2319 11.471 17.2319 11.471Z" fill="#EBEBEB"/>
<path d="M16.8099 11.4708V11.5552V11.6396V11.724C16.8099 11.724 16.8099 11.8084 16.7255 11.8084V11.8928C16.7255 11.8928 16.7255 11.9771 16.6411 11.9771C16.6411 11.9771 16.6411 12.0615 16.5567 12.0615L16.4724 12.1459C16.4724 12.1459 16.4724 12.2303 16.388 12.2303L16.3036 12.3147L16.2192 12.3991C16.2192 12.3991 16.1349 12.4835 16.0505 12.4835C16.0505 12.4835 15.9661 12.4835 15.9661 12.5679C15.8817 12.6523 15.7973 12.6523 15.7129 12.7366C14.3629 13.4962 12.169 13.4962 10.7346 12.7366C10.6502 12.6523 10.5658 12.6523 10.4814 12.5679C10.4814 12.5679 10.4814 12.5679 10.3971 12.4835C10.3127 12.4835 10.3127 12.3991 10.2283 12.3991C10.2283 12.3991 10.2283 12.3991 10.1439 12.3147L10.0596 12.2303C10.0596 12.2303 10.0595 12.2303 9.97517 12.1459L9.89078 12.0615C9.89078 12.0615 9.89078 11.9771 9.8064 11.9771L9.72204 11.8928V11.8084C9.72204 11.8084 9.72204 11.724 9.63766 11.724V11.6396V11.5552V11.4708C9.55328 10.9645 9.89078 10.4581 10.6502 10.0362C12.0003 9.27668 14.1941 9.27668 15.6286 10.0362C16.3036 10.3737 16.6411 10.8801 16.6411 11.3864C16.8099 11.3864 16.8099 11.4708 16.8099 11.4708Z" fill="#A0A0A0"/>
<path d="M14.8681 11.3864C14.8681 11.4708 14.8681 11.4708 14.8681 11.3864C14.8681 11.4708 14.8681 11.4708 14.8681 11.3864C14.8681 11.4708 14.8681 11.4708 14.8681 11.4708C14.8681 11.4708 14.8681 11.4708 14.8681 11.5551C14.8681 11.5551 14.8681 11.5551 14.8681 11.6395C14.8681 11.6395 14.8681 11.6395 14.8681 11.7239C14.8681 11.7239 14.8681 11.7239 14.7837 11.8083C14.7837 11.8083 14.7837 11.8083 14.6993 11.8927L14.6149 11.9771C14.0243 12.3147 13.0117 12.3147 12.4211 11.9771C12.4211 11.9771 12.3367 11.9771 12.3367 11.8927C12.3367 11.8927 12.2524 11.8927 12.2524 11.8083C12.2524 11.8083 12.2523 11.8083 12.168 11.7239C12.168 11.7239 12.168 11.7239 12.168 11.6395C12.168 11.6395 12.168 11.6395 12.168 11.5551C12.168 11.5551 12.168 11.5551 12.168 11.4708C12.168 11.2176 12.3367 10.9644 12.5899 10.7956C13.1805 10.4581 14.1931 10.4581 14.7837 10.7956C14.6993 10.9644 14.8681 11.1332 14.8681 11.3864Z" fill="#CCCCCC"/>
<path d="M141.184 12.6528C142.534 13.3279 143.8 13.5811 145.488 13.5811C145.994 13.5811 147.766 13.4123 149.285 12.3996C149.875 11.9777 150.635 11.3026 150.888 10.1211C150.888 10.0367 150.888 9.86796 150.888 9.78357C150.888 10.1211 150.888 10.5431 150.888 10.7962C150.635 11.8933 149.875 12.6528 149.285 13.0748C147.766 14.0874 145.994 14.2562 145.488 14.2562C143.716 14.3406 142.45 14.0874 141.184 13.3279C139.497 12.3996 139.159 11.1338 139.159 10.2899C139.159 10.2055 139.159 10.0367 139.159 9.86796C139.244 10.7119 139.665 11.8089 141.184 12.6528Z" fill="url(#paint10_linear_3_17095)"/>
<path d="M149.285 12.3997C147.766 13.4124 145.994 13.5811 145.488 13.5811C143.716 13.6655 142.45 13.4124 141.184 12.6529C139.665 11.809 139.244 10.7119 139.159 9.868C139.159 8.51777 139.497 6.7456 140.425 5.05781C142.197 1.76662 144.728 0.922729 145.066 0.922729C145.825 1.09151 147.175 1.76662 148.272 3.03246C149.285 4.12953 149.96 5.47975 150.466 6.91437C150.55 7.16754 150.719 7.84266 150.888 8.93972C150.888 9.1085 150.972 9.36167 150.972 9.69923C150.972 9.86801 150.972 9.95239 150.972 10.0368C150.635 11.2182 149.875 11.9777 149.285 12.3997Z" fill="url(#paint11_linear_3_17095)"/>
<path d="M10.3122 89.4469C11.6623 90.122 12.928 90.3752 14.6155 90.3752C15.1218 90.3752 16.8938 90.2064 18.4126 89.1937C19.0032 88.7718 19.7626 88.0966 20.0158 86.9152C20.0158 86.8308 20.0158 86.662 20.0158 86.5776C20.0158 86.9152 20.0158 87.3371 20.0158 87.5903C19.7626 88.6874 19.0032 89.4469 18.4126 89.8688C16.8938 90.8815 15.1218 91.0503 14.6155 91.0503C12.8436 91.1347 11.5779 90.8815 10.3122 90.122C8.62462 89.1937 8.28711 87.9279 8.28711 87.084C8.28711 86.9996 8.28711 86.8308 8.28711 86.662C8.37149 87.5059 8.79338 88.5186 10.3122 89.4469Z" fill="url(#paint12_linear_3_17095)"/>
<path d="M18.4135 89.1938C16.8947 90.2065 15.1228 90.3752 14.6165 90.3752C12.8445 90.4596 11.5789 90.2065 10.3132 89.447C8.79435 88.6031 8.37246 87.506 8.28809 86.6621C8.28809 85.3119 8.6256 83.5397 9.55377 81.8519C11.3257 78.5607 13.8571 77.6325 14.1946 77.7169C14.954 77.8856 16.3041 78.5607 17.401 79.8266C18.4135 80.9236 19.0886 82.2739 19.5948 83.7085C19.6792 83.9617 19.848 84.6368 20.0167 85.7338C20.0167 85.9026 20.1011 86.1558 20.1011 86.4933C20.1011 86.6621 20.1011 86.7465 20.1011 86.8309C19.7636 88.0124 19.0042 88.7719 18.4135 89.1938Z" fill="url(#paint13_linear_3_17095)"/>
<path d="M140.087 89.1939C141.606 90.2066 143.378 90.2909 143.884 90.2909C145.656 90.2909 146.838 90.0378 148.188 89.3627C149.707 88.5188 150.129 87.4217 150.213 86.5778C150.129 85.2276 149.791 83.4554 148.863 81.7676C147.006 78.4764 144.56 77.6325 144.138 77.7169C143.378 77.8857 142.113 78.6452 140.931 79.9111C139.919 81.0081 139.244 82.3583 138.822 83.8774C138.737 84.1305 138.569 84.8056 138.4 85.9027C138.4 86.0715 138.4 86.3246 138.315 86.6622C138.315 86.831 138.315 86.9154 138.4 86.9998C138.653 88.0968 139.412 88.7719 140.087 89.1939Z" fill="url(#paint14_linear_3_17095)"/>
<path d="M17.2319 12.737C15.8818 13.4122 14.6161 13.6653 12.9286 13.6653C12.4223 13.6653 10.6503 13.4965 9.13152 12.4839C8.54086 12.0619 7.78146 11.3868 7.52832 10.2054C7.52832 10.121 7.52832 9.95219 7.52832 9.8678C7.52832 10.2054 7.52832 10.6273 7.52832 10.8805C7.78146 11.9775 8.54086 12.737 9.13152 13.159C10.6503 14.1717 12.4223 14.3404 12.9286 14.3404C14.7005 14.4248 15.9662 14.1717 17.2319 13.4122C18.9195 12.4839 19.257 11.218 19.257 10.3741C19.257 10.2897 19.257 10.121 19.257 9.95219C19.1726 10.7961 18.7507 11.8088 17.2319 12.737Z" fill="url(#paint15_linear_3_17095)"/>
<path d="M9.13094 12.4838C10.6498 13.4965 12.4217 13.6653 12.928 13.6653C14.7 13.7496 15.9656 13.4965 17.2313 12.737C18.7502 11.8931 19.172 10.796 19.2564 9.95212C19.2564 8.60189 18.9189 6.82971 17.9907 5.14192C16.2188 1.85073 13.6874 1.00684 13.3499 1.00684C12.5905 1.17561 11.2404 1.85073 10.1435 3.11657C9.13095 4.21363 8.45591 5.56387 7.94964 6.99849C7.86526 7.25166 7.6965 7.92677 7.52774 9.02383C7.52774 9.19261 7.52774 9.44578 7.44336 9.78334C7.44336 9.95212 7.44336 10.0365 7.44336 10.1209C7.78088 11.3024 8.54029 12.0619 9.13094 12.4838Z" fill="url(#paint16_linear_3_17095)"/>
<path d="M95.7879 34.0033C105.66 39.6574 107.348 49.9529 97.2224 55.607C87.6032 61.0079 71.1493 60.164 61.5301 54.9319C61.2769 54.8475 61.1081 54.6787 60.855 54.5099C51.4046 49.0246 49.0419 39.2355 58.8299 33.3282C68.3647 27.5897 84.7343 28.2648 94.4379 33.1594C94.8598 33.497 95.366 33.7501 95.7879 34.0033Z" fill="#94E1FF"/>
<path d="M88.3628 38.3914C94.0162 41.6826 95.0288 47.5899 89.2066 50.8811C83.6376 54.0035 74.1872 53.4971 68.6182 50.5435C68.4494 50.4591 68.365 50.3747 68.1963 50.2903C62.7116 47.1679 61.446 41.5138 67.015 38.1383C72.4996 34.8471 81.95 35.269 87.519 38.0539C87.8566 38.1383 88.1097 38.2227 88.3628 38.3914Z" fill="url(#paint17_linear_3_17095)"/>
<path d="M103.974 46.4086C103.974 46.7462 103.889 46.9993 103.889 47.3369C103.889 47.5057 103.805 47.7588 103.72 47.9276C103.636 48.1808 103.552 48.434 103.467 48.6871C103.383 48.8559 103.299 49.1091 103.214 49.2778C103.13 49.531 102.961 49.7842 102.877 50.0373C102.792 50.2061 102.624 50.4593 102.539 50.6281C102.37 50.8812 102.202 51.1344 102.033 51.3876C101.864 51.6408 101.695 51.8939 101.442 52.0627C101.358 52.1471 101.358 52.2315 101.273 52.3159C100.936 52.6534 100.598 52.991 100.261 53.3285C100.092 53.4973 99.9234 53.6661 99.6702 53.7505C99.4171 53.9193 99.164 54.1724 98.9108 54.3412C98.7421 54.51 98.489 54.6788 98.2358 54.7632C97.8983 55.0163 97.4764 55.2695 97.1389 55.4383C96.4638 55.7758 95.7888 56.1134 95.1138 56.4509C94.8606 56.5353 94.6075 56.6197 94.4388 56.7041C93.9325 56.8729 93.4262 57.1261 92.9199 57.2948C92.5824 57.3792 92.1605 57.548 91.823 57.6324C91.4855 57.7168 91.148 57.8012 90.8104 57.8856C90.3885 57.97 90.051 58.0543 89.6291 58.1387C89.2916 58.2231 88.9541 58.3075 88.6166 58.3919C88.3635 58.4763 88.1103 58.4763 87.8572 58.5607C87.0978 58.6451 86.4228 58.8138 85.6633 58.8982C85.3258 58.8982 85.0727 58.9826 84.7352 58.9826C84.1445 59.067 83.5539 59.067 82.9632 59.067C82.6257 59.067 82.3725 59.067 82.035 59.1514C81.36 59.1514 80.685 59.1514 80.0943 59.1514C79.8412 59.1514 79.6724 59.1514 79.4193 59.1514C78.5755 59.1514 77.6473 59.067 76.8035 58.9826C76.6348 58.9826 76.466 58.9826 76.2973 58.8982C75.6222 58.8138 74.8628 58.7295 74.1878 58.6451C73.9346 58.6451 73.5971 58.5607 73.344 58.4763C72.7533 58.3919 72.0783 58.3075 71.4876 58.1387C71.1501 58.0543 70.897 58.0543 70.5595 57.97C69.8844 57.8012 69.125 57.6324 68.45 57.4636C68.1969 57.3792 68.0281 57.3792 67.775 57.2948C66.7624 57.0417 65.7499 56.7041 64.8217 56.2822C64.4842 56.1134 64.0623 56.029 63.7248 55.8602C63.556 55.7758 63.3029 55.6914 63.1341 55.6071C62.5435 55.3539 61.9528 55.1007 61.4465 54.7632C61.1934 54.6788 61.0247 54.51 60.7715 54.3412C55.4556 51.3032 52.418 46.9149 52.418 42.6111V51.2188C52.418 55.5227 55.4556 59.9109 60.7715 62.9489C61.0247 63.1177 61.1934 63.2021 61.4465 63.3709C62.0372 63.7084 62.5435 63.9616 63.1341 64.2148C63.3029 64.2992 63.556 64.3836 63.7248 64.4679C63.9779 64.5523 64.2311 64.7211 64.5686 64.8055C64.653 64.8055 64.7373 64.8899 64.8217 64.8899C65.7499 65.2274 66.7624 65.565 67.775 65.9026C67.8593 65.9026 67.8594 65.9026 67.9437 65.9869C68.1125 66.0713 68.2812 66.0713 68.45 66.0713C69.125 66.2401 69.8001 66.4089 70.5595 66.5777C70.7282 66.5777 70.897 66.6621 70.9814 66.6621C71.1501 66.6621 71.3189 66.7465 71.4033 66.7465C71.9939 66.8308 72.5846 66.9996 73.2596 67.084C73.4284 67.084 73.6815 67.1684 73.8503 67.1684C73.9347 67.1684 74.019 67.1684 74.1034 67.1684C74.7784 67.2528 75.4535 67.3372 76.2129 67.4216C76.3816 67.4216 76.5504 67.4216 76.7192 67.506H76.8035C77.6473 67.5903 78.5755 67.5903 79.4193 67.6747H79.5037C79.6724 67.6747 79.9256 67.6747 80.0943 67.6747C80.7694 67.6747 81.4444 67.6747 82.035 67.6747C82.1194 67.6747 82.2038 67.6747 82.2882 67.6747C82.5413 67.6747 82.7101 67.6747 82.9632 67.5903C83.5539 67.5903 84.1445 67.506 84.7352 67.506C84.9039 67.506 84.9883 67.506 85.1571 67.506C85.3258 67.506 85.4946 67.4216 85.6633 67.4216C86.4228 67.3372 87.0978 67.2528 87.8572 67.084C88.0259 67.084 88.1947 67.084 88.3635 66.9996C88.4478 66.9996 88.5322 66.9996 88.6166 66.9152C88.9541 66.8308 89.2916 66.7465 89.6291 66.6621C90.051 66.5777 90.3885 66.4933 90.8104 66.4089C91.148 66.3245 91.4855 66.2401 91.823 66.1557C92.0761 66.0713 92.4137 65.9869 92.6668 65.9026C92.7512 65.9026 92.8355 65.8182 92.9199 65.8182C93.4262 65.6494 93.9325 65.4806 94.4388 65.2274C94.6919 65.1431 94.945 65.0587 95.1138 64.9743C95.7888 64.6367 96.4638 64.2992 97.1389 63.9616C97.3076 63.8772 97.4764 63.7928 97.6452 63.7084C97.8983 63.5397 98.0671 63.4553 98.2358 63.2865C98.489 63.1177 98.6577 63.0333 98.9108 62.8645C99.164 62.6958 99.4171 62.4426 99.6702 62.2738C99.839 62.105 100.092 61.9363 100.261 61.8519L100.345 61.7675C100.683 61.5143 100.936 61.1768 101.189 60.8392C101.273 60.7548 101.358 60.6704 101.358 60.586C101.442 60.4172 101.611 60.3329 101.695 60.1641C101.78 60.0797 101.864 59.9109 101.948 59.8265C102.117 59.5734 102.286 59.3202 102.455 59.067C102.539 58.9826 102.624 58.8982 102.624 58.7295C102.708 58.6451 102.708 58.5607 102.792 58.4763C102.961 58.2231 103.045 57.97 103.13 57.7168C103.214 57.6324 103.214 57.4636 103.299 57.3792C103.299 57.2948 103.299 57.2105 103.383 57.1261C103.467 56.8729 103.552 56.6197 103.636 56.3666C103.636 56.1978 103.72 56.1134 103.72 55.9446C103.72 55.8602 103.72 55.7758 103.72 55.7758C103.805 55.4383 103.805 55.1851 103.805 54.8475C103.805 54.6788 103.889 54.5944 103.889 54.4256C103.889 54.3412 103.889 54.2568 103.889 54.1724V45.5647C104.058 45.9867 103.974 46.1554 103.974 46.4086Z" fill="#0E7DA0"/>
<path d="M61.0243 201.938L60.9399 227.846C60.9399 227.761 60.8555 226.664 60.8555 225.314L60.9399 199.406C60.9399 200.757 61.0243 201.854 61.0243 201.938Z" fill="#577476"/>
<path d="M97.392 201.432L97.3076 227.339C97.3076 227.592 97.3076 227.761 97.3076 228.014L97.392 202.107C97.392 201.854 97.392 201.601 97.392 201.432Z" fill="#618183"/>
<path d="M41.7019 208.014L41.6176 233.922C39.6769 231.306 38.3268 228.943 37.1455 226.495L37.2299 200.588C38.4112 203.035 39.7612 205.314 41.7019 208.014Z" fill="#BC660F"/>
<path d="M41.7019 208.014L41.6176 233.922C39.6769 231.306 38.3268 228.943 37.1455 226.495L37.2299 200.588C38.4112 203.035 39.7612 205.314 41.7019 208.014Z" fill="#BC660F"/>
<path d="M121.103 200.925L121.018 226.833C119.5 230.208 117.981 232.571 116.884 234.175L116.968 208.267C118.065 206.664 119.584 204.385 121.103 200.925Z" fill="#BC660F"/>
<path d="M121.103 200.925L121.018 226.833C120.343 228.268 119.753 229.449 119.162 230.546L119.246 204.639C119.837 203.626 120.428 202.36 121.103 200.925Z" fill="#BC660F"/>
<path d="M119.246 204.639L119.162 230.546C118.318 232.065 117.559 233.247 116.884 234.259L116.968 208.352C117.559 207.339 118.403 206.158 119.246 204.639Z" fill="#BC660F"/>
<path d="M27.6104 217.803L27.526 243.711C24.5727 241.939 21.4507 239.744 18.835 237.719L18.9193 211.812C21.5351 213.921 24.6571 216.031 27.6104 217.803Z" fill="#BC660F"/>
<path d="M27.6104 217.803L27.526 243.711C24.5727 241.939 21.4507 239.744 18.835 237.719L18.9193 211.812C21.5351 213.921 24.6571 216.031 27.6104 217.803Z" fill="#BC660F"/>
<path d="M139.919 212.318L139.834 238.225C137.809 239.913 134.097 242.529 131.396 244.133L131.481 218.225C134.181 216.706 137.894 214.006 139.919 212.318Z" fill="#BC660F"/>
<path d="M139.919 212.318L139.834 238.225C137.809 239.913 134.097 242.529 131.396 244.133L131.481 218.225C134.181 216.706 137.894 214.006 139.919 212.318Z" fill="#BC660F"/>
<path d="M20.5231 230.124L20.4387 256.032C16.8104 255.019 13.1821 253.922 8.70996 252.234L8.79435 226.327C13.2664 228.014 16.8947 229.027 20.5231 230.124Z" fill="#BC660F"/>
<path d="M20.5231 230.124L20.4387 256.032C16.8104 255.019 13.1821 253.922 8.70996 252.234L8.79435 226.327C13.2664 228.014 16.8947 229.027 20.5231 230.124Z" fill="#BC660F"/>
<path d="M150.635 226.917L150.551 252.825C145.573 254.681 141.776 255.778 138.991 256.538L139.076 230.63C141.86 229.871 145.657 228.774 150.635 226.917Z" fill="#BC660F"/>
<path d="M150.637 226.917L150.552 252.825C148.527 253.584 146.671 254.175 144.983 254.766L145.068 228.858C146.755 228.352 148.612 227.677 150.637 226.917Z" fill="#BC660F"/>
<path d="M145.067 228.858L144.983 254.766C142.62 255.525 140.595 256.116 138.992 256.538L139.077 230.63C140.68 230.209 142.705 229.618 145.067 228.858Z" fill="#BC660F"/>
<path d="M96.0414 251.39L96.1258 235.947C96.1258 233.5 94.5226 231.137 91.3162 229.28C90.8943 229.027 90.5568 228.858 90.1349 228.689C89.9661 228.605 89.8817 228.605 89.713 228.521C89.4598 228.436 89.2067 228.267 88.9536 228.183C88.8692 228.183 88.8692 228.183 88.7848 228.099C88.7004 228.099 88.6161 228.014 88.5317 228.014C88.1942 227.93 87.8566 227.761 87.5191 227.677C87.4347 227.677 87.266 227.592 87.1816 227.592C87.0972 227.592 87.0129 227.508 86.9285 227.508C86.7597 227.508 86.6753 227.424 86.5066 227.424C86.1691 227.339 85.8315 227.255 85.494 227.17C85.4097 227.17 85.3253 227.086 85.2409 227.086C85.0721 227.086 84.9878 227.002 84.819 227.002C84.5659 226.917 84.2284 226.917 83.9752 226.833C83.8908 226.833 83.7221 226.748 83.6377 226.748C83.5533 226.748 83.3846 226.748 83.3002 226.748C83.047 226.748 82.7939 226.664 82.4564 226.664C82.2876 226.664 82.2032 226.664 82.0345 226.58C81.9501 226.58 81.7814 226.58 81.697 226.58C81.4438 226.58 81.1907 226.58 80.8532 226.495C80.6844 226.495 80.6 226.495 80.4313 226.495C80.3469 226.495 80.1782 226.495 80.0938 226.495C79.7563 226.495 79.5031 226.495 79.1656 226.495C78.9968 226.495 78.9125 226.495 78.7437 226.495C78.6593 226.495 78.575 226.495 78.4906 226.495C78.1531 226.495 77.7312 226.58 77.3936 226.58C77.2249 226.58 77.1405 226.58 76.9717 226.58C76.8874 226.58 76.803 226.58 76.803 226.58C76.7186 226.58 76.5498 226.58 76.4655 226.58C76.1279 226.664 75.7061 226.664 75.3685 226.748C75.2842 226.748 75.1998 226.748 75.1154 226.833C75.031 226.833 75.031 226.833 74.9467 226.833C74.7779 226.833 74.6091 226.917 74.4404 226.917C74.1029 227.002 73.8497 227.002 73.5122 227.086C73.2591 227.17 73.0903 227.17 72.8372 227.255C72.584 227.339 72.2465 227.424 71.9934 227.508C71.909 227.508 71.909 227.508 71.8246 227.592C71.4871 227.677 71.1496 227.845 70.8121 227.93C70.7277 227.93 70.7277 227.93 70.6433 228.014C70.3058 228.183 69.9683 228.267 69.6308 228.436C69.5464 228.521 69.462 228.521 69.2932 228.605C68.9557 228.774 68.5338 228.943 68.1963 229.196C68.112 229.196 68.0276 229.28 68.0276 229.28C67.7744 229.449 67.4369 229.618 67.1838 229.786C67.0994 229.786 67.0994 229.871 67.015 229.871C66.6775 230.124 66.4244 230.293 66.1712 230.546L66.0869 230.63C66.0025 230.63 66.0025 230.715 65.9181 230.715C65.7493 230.883 65.4962 231.137 65.3275 231.305L65.2431 231.39C65.1587 231.474 64.9899 231.643 64.9056 231.727C64.8212 231.812 64.7368 231.896 64.6524 232.065L64.568 232.149C64.3993 232.318 64.3149 232.487 64.2305 232.74C64.2305 232.824 64.1462 232.909 64.1462 232.909C64.1462 232.909 64.1461 232.993 64.0618 232.993C63.9774 233.162 63.893 233.415 63.8086 233.584C63.8086 233.668 63.8086 233.668 63.7243 233.753V233.837C63.6399 234.09 63.5555 234.259 63.5555 234.512C63.5555 234.597 63.5555 234.597 63.5555 234.681V234.765C63.5555 235.019 63.4711 235.187 63.4711 235.441C63.4711 235.525 63.4711 235.525 63.4711 235.609L63.3867 251.137H96.0414V251.39Z" fill="#BC660F"/>
<path d="M8.37193 242.107L8.28755 268.015C7.61252 265.736 7.44375 263.542 7.35938 262.783L7.44376 236.875C7.44376 237.635 7.61252 239.829 8.37193 242.107Z" fill="#D87B16"/>
<path d="M8.37193 242.107L8.28755 268.015C7.61252 265.736 7.44375 263.542 7.35938 262.783L7.44376 236.875C7.44376 237.635 7.61252 239.829 8.37193 242.107Z" fill="#D87B16"/>
<path d="M152.491 237.466L152.407 263.374C152.322 265.314 152.238 266.158 151.647 268.606L151.732 242.698C152.407 240.166 152.407 239.407 152.491 237.466Z" fill="#D87B16"/>
<path d="M152.491 237.466L152.406 263.373C152.322 264.977 152.238 265.821 151.984 267.424L152.069 241.517C152.406 239.913 152.406 239.069 152.491 237.466Z" fill="#D87B16"/>
<path d="M152.069 241.432L151.985 267.34C151.9 267.677 151.816 268.099 151.731 268.606L151.816 242.698C151.9 242.276 151.985 241.854 152.069 241.432Z" fill="#D87B16"/>
<path d="M21.4507 243.12L21.3663 269.028C14.8691 268.775 9.97509 268.184 8.20312 267.931L8.28751 242.023C10.1439 242.276 14.9535 242.867 21.4507 243.12Z" fill="#BC660F"/>
<path d="M21.4508 243.12L21.3664 269.028C18.7506 268.943 16.4724 268.774 14.4473 268.606L14.5317 242.698C16.5568 242.867 18.9194 243.036 21.4508 243.12Z" fill="#BC660F"/>
<path d="M14.6165 242.698L14.5321 268.606C11.4945 268.352 9.30063 268.099 8.28809 268.015L8.37247 242.107C9.38502 242.192 11.5789 242.445 14.6165 242.698Z" fill="#BC660F"/>
<path d="M151.816 242.698L151.732 268.606C150.466 268.775 145.319 269.281 138.653 269.534L138.738 243.627C145.319 243.458 150.466 242.867 151.816 242.698Z" fill="#BC660F"/>
<path d="M151.817 242.698L151.733 268.606C151.395 268.606 150.805 268.69 149.961 268.774L150.045 242.867C150.889 242.782 151.48 242.782 151.817 242.698Z" fill="#BC660F"/>
<path d="M150.045 242.867L149.961 268.774C147.598 269.028 143.548 269.365 138.654 269.534L138.739 243.626C143.633 243.458 147.767 243.12 150.045 242.867Z" fill="#BC660F"/>
<path d="M23.5601 247.34L23.4757 273.247C22.9694 272.488 21.7881 270.294 21.3662 269.028L21.4506 243.12C21.9569 244.386 23.1382 246.58 23.5601 247.34Z" fill="#FFB90B"/>
<path d="M23.5601 247.34L23.4757 273.247C22.9694 272.488 21.7881 270.294 21.3662 269.028L21.4506 243.12C21.9569 244.386 23.1382 246.58 23.5601 247.34Z" fill="#FFB90B"/>
<path d="M138.738 243.627L138.654 269.534C138.485 270.04 137.641 272.066 136.713 273.754L136.797 247.846C137.725 246.243 138.569 244.217 138.738 243.627Z" fill="#FFB90B"/>
<path d="M138.737 243.627L138.653 269.534C138.653 269.619 138.569 269.787 138.484 269.956L138.569 244.049C138.653 243.88 138.653 243.711 138.737 243.627Z" fill="#FFB90B"/>
<path d="M138.569 244.049L138.484 269.956C138.231 270.716 137.556 272.235 136.797 273.5L136.881 247.593C137.641 246.327 138.316 244.892 138.569 244.049Z" fill="#FFB90B"/>
<path d="M136.881 247.593L136.797 273.501C136.712 273.585 136.712 273.669 136.628 273.754L136.712 247.846C136.797 247.762 136.881 247.677 136.881 247.593Z" fill="#FFB90B"/>
<path d="M30.3104 255.188L30.226 281.095C26.7665 281.77 21.0287 282.53 17.4004 282.867L17.4848 256.96C21.1131 256.622 26.8509 255.863 30.3104 255.188Z" fill="#BC660F"/>
<path d="M30.311 255.188L30.2266 281.095C30.1422 281.095 29.9735 281.18 29.8047 281.18L29.8891 255.272C30.0578 255.272 30.2266 255.188 30.311 255.188Z" fill="#BC660F"/>
<path d="M29.974 255.272L29.8897 281.18C26.4301 281.77 21.0299 282.53 17.5703 282.867L17.6547 256.96C21.1142 256.622 26.5145 255.863 29.974 255.272Z" fill="#BC660F"/>
<path d="M17.6545 256.96L17.5702 282.867C17.4858 282.867 17.4858 282.867 17.4014 282.867L17.4858 256.96C17.5701 256.96 17.5702 256.96 17.6545 256.96Z" fill="#BC660F"/>
<path d="M17.4851 257.044L17.4007 282.952C16.6413 282.108 14.785 280.251 13.3506 278.226L13.435 252.318C14.9538 254.344 16.7257 256.2 17.4851 257.044Z" fill="#D87B16"/>
<path d="M17.4851 257.044L17.4007 282.952C16.6413 282.108 14.785 280.251 13.3506 278.226L13.435 252.318C14.9538 254.344 16.7257 256.2 17.4851 257.044Z" fill="#D87B16"/>
<path d="M147.091 252.825L147.006 278.733C145.994 280.252 143.969 282.614 143.125 283.458L143.209 257.551C144.138 256.707 146.078 254.344 147.091 252.825Z" fill="#D87B16"/>
<path d="M147.091 252.825L147.007 278.733C146.669 279.239 146.247 279.745 145.825 280.336L145.91 254.428C146.416 253.838 146.838 253.331 147.091 252.825Z" fill="#D87B16"/>
<path d="M145.909 254.428L145.825 280.336C144.813 281.602 143.716 282.867 143.125 283.458L143.209 257.551C143.884 256.96 144.981 255.694 145.909 254.428Z" fill="#D87B16"/>
<path d="M143.21 257.551L143.126 283.458C138.823 282.952 134.266 282.277 130.216 281.517L130.3 255.61C134.435 256.369 138.991 257.044 143.21 257.551Z" fill="#BC660F"/>
<path d="M143.211 257.551L143.126 283.458C141.354 283.29 139.583 283.036 137.811 282.783L137.895 256.876C139.751 257.129 141.523 257.382 143.211 257.551Z" fill="#BC660F"/>
<path d="M137.979 256.876L137.895 282.783C135.279 282.446 132.748 282.024 130.301 281.517L130.385 255.61C132.748 256.116 135.364 256.538 137.979 256.876Z" fill="#BC660F"/>
<path d="M34.8665 258.732L34.7821 284.64C32.2507 282.868 31.4069 282.108 30.2256 281.18L30.31 255.272C31.4913 256.201 32.3351 256.96 34.8665 258.732Z" fill="#FFB90B"/>
<path d="M34.8665 258.732L34.7821 284.64C32.2507 282.868 31.4069 282.108 30.2256 281.18L30.31 255.272C31.4913 256.201 32.3351 256.96 34.8665 258.732Z" fill="#FFB90B"/>
<path d="M130.384 255.61L130.3 281.517C128.95 282.783 127.178 284.133 125.912 284.977L125.996 259.07C127.262 258.226 128.95 256.875 130.384 255.61Z" fill="#FFB90B"/>
<path d="M130.384 255.61L130.3 281.517C128.95 282.783 127.178 284.133 125.912 284.977L125.996 259.07C127.262 258.226 128.95 256.875 130.384 255.61Z" fill="#FFB90B"/>
<path d="M52.2498 266.918L52.1654 292.825C50.9841 292.488 47.862 291.391 45.8369 290.462L45.9213 264.555C47.862 265.483 51.0684 266.58 52.2498 266.918Z" fill="#FFB90B"/>
<path d="M52.2492 266.918L52.1649 292.825C51.2367 292.572 49.0429 291.813 47.1865 291.053L47.2709 265.146C49.1272 265.905 51.3211 266.665 52.2492 266.918Z" fill="#FFB90B"/>
<path d="M47.2714 265.146L47.187 291.053C46.6807 290.884 46.2588 290.716 45.8369 290.463L45.9213 264.555C46.2588 264.808 46.7651 264.977 47.2714 265.146Z" fill="#FFB90B"/>
<path d="M115.196 264.892L115.111 290.8C113.845 291.306 112.664 291.897 108.867 293.078L108.952 267.171C112.749 265.989 113.93 265.483 115.196 264.892Z" fill="#FFB90B"/>
<path d="M115.196 264.892L115.111 290.8C113.845 291.306 112.664 291.897 108.867 293.078L108.952 267.171C112.749 265.989 113.93 265.483 115.196 264.892Z" fill="#FFB90B"/>
<path d="M45.9206 264.639L45.8362 290.547C40.9423 292.825 36.8077 294.344 35.1201 295.02L35.2045 269.112C36.8921 268.437 40.9423 266.918 45.9206 264.639Z" fill="#BC660F"/>
<path d="M45.9206 264.639L45.8362 290.547C40.9423 292.825 36.8077 294.344 35.1201 295.02L35.2045 269.112C36.8921 268.437 40.9423 266.918 45.9206 264.639Z" fill="#BC660F"/>
<path d="M35.1199 269.028L35.0355 294.935C32.8417 293.922 30.8165 292.741 29.2977 291.897C28.9602 291.644 28.6227 291.475 28.2852 291.306L28.3695 265.399C28.6227 265.568 28.9602 265.736 29.3821 265.99C30.9009 266.918 33.0104 268.015 35.1199 269.028Z" fill="#D87B16"/>
<path d="M35.1199 269.028L35.0355 294.935C32.8417 293.922 30.8165 292.741 29.2977 291.897C28.9602 291.644 28.6227 291.475 28.2852 291.306L28.3695 265.399C28.6227 265.568 28.9602 265.736 29.3821 265.99C30.9009 266.918 33.0104 268.015 35.1199 269.028Z" fill="#D87B16"/>
<path d="M126.165 269.449L126.081 295.357C121.777 293.838 118.486 292.403 115.111 290.8L115.196 264.892C118.571 266.496 121.946 267.93 126.165 269.449Z" fill="#BC660F"/>
<path d="M126.164 269.449L126.08 295.357C124.899 294.935 123.802 294.513 122.789 294.091L122.873 268.184C123.886 268.606 124.983 269.027 126.164 269.449Z" fill="#BC660F"/>
<path d="M122.874 268.184L122.79 294.091C120.005 292.994 117.558 291.897 115.111 290.8L115.196 264.892C117.643 266.074 120.09 267.086 122.874 268.184Z" fill="#BC660F"/>
<path d="M132.663 265.905L132.578 291.813C130.722 292.994 130.384 293.247 126.081 295.357L126.165 269.45C130.469 267.34 130.806 267.087 132.663 265.905Z" fill="#D87B16"/>
<path d="M132.663 265.905L132.578 291.813C132.156 292.066 131.819 292.319 131.481 292.488L131.566 266.58C131.903 266.411 132.241 266.158 132.663 265.905Z" fill="#D87B16"/>
<path d="M131.566 266.58L131.481 292.488C130.384 293.163 129.372 293.669 126.081 295.357L126.165 269.449C129.541 267.762 130.469 267.255 131.566 266.58Z" fill="#D87B16"/>
<path d="M73.3439 271.053L73.2596 296.961C71.572 296.792 68.9562 296.623 66.0029 296.117L66.0873 270.209C69.0406 270.631 71.6564 270.884 73.3439 271.053Z" fill="#FFB90B"/>
<path d="M73.3429 271.053L73.2585 296.961C71.8241 296.792 69.7146 296.623 67.2676 296.286L67.352 270.378C69.799 270.716 71.9084 270.884 73.3429 271.053Z" fill="#FFB90B"/>
<path d="M67.353 270.378L67.2686 296.285C66.8467 296.201 66.4248 296.201 66.0029 296.117L66.0873 270.209C66.5092 270.209 66.9311 270.293 67.353 270.378Z" fill="#FFB90B"/>
<path d="M95.2824 270.294L95.198 296.201C92.3291 296.623 91.2322 296.707 87.9414 296.961L88.0258 271.053C91.3166 270.8 92.4979 270.716 95.2824 270.294Z" fill="#FFB90B"/>
<path d="M95.2828 270.293L95.1984 296.201C93.5952 296.454 92.5827 296.539 91.4014 296.707L91.4858 270.8C92.6671 270.631 93.764 270.547 95.2828 270.293Z" fill="#FFB90B"/>
<path d="M91.4854 270.8L91.401 296.707C90.4728 296.792 89.3759 296.876 87.9414 297.045L88.0258 271.137C89.5446 270.969 90.5572 270.884 91.4854 270.8Z" fill="#FFB90B"/>
<path d="M58.8305 276.623L58.7461 302.53C57.396 302.277 53.599 301.433 50.3926 300.589L50.477 274.682C53.6834 275.526 57.4804 276.369 58.8305 276.623Z" fill="#D87B16"/>
<path d="M58.8319 276.622L58.7475 302.53C58.41 302.446 57.9881 302.361 57.3975 302.277L57.4818 276.369C58.0725 276.454 58.4944 276.538 58.8319 276.622Z" fill="#D87B16"/>
<path d="M57.4804 276.369L57.3961 302.277C55.6241 301.939 52.8396 301.264 50.3926 300.589L50.477 274.682C52.924 275.357 55.7085 276.032 57.4804 276.369Z" fill="#D87B16"/>
<path d="M66.0871 270.125L66.0027 296.032C65.1589 296.876 62.7119 299.408 58.7461 302.53L58.8305 276.623C62.7963 273.5 65.1589 271.053 66.0871 270.125Z" fill="#BC660F"/>
<path d="M66.0884 270.125L66.004 296.032C65.5821 296.454 64.7383 297.298 63.4727 298.48L63.557 272.572C64.7383 271.475 65.5821 270.631 66.0884 270.125Z" fill="#BC660F"/>
<path d="M63.5567 272.572L63.4723 298.48C62.291 299.577 60.6878 301.011 58.7471 302.53L58.8315 276.623C60.7722 275.104 62.3754 273.753 63.5567 272.572Z" fill="#BC660F"/>
<path d="M111.146 274.935L111.061 300.843C107.77 301.686 106.252 302.108 102.792 302.699L102.876 276.792C106.252 276.201 107.855 275.779 111.146 274.935Z" fill="#D87B16"/>
<path d="M111.146 274.935L111.061 300.843C107.77 301.686 106.252 302.108 102.792 302.699L102.876 276.792C106.252 276.201 107.855 275.779 111.146 274.935Z" fill="#D87B16"/>
<path d="M102.792 276.792L102.708 302.699C100.008 300.589 97.3921 298.311 95.1982 296.201L95.2826 270.294C97.4765 272.403 100.092 274.682 102.792 276.792Z" fill="#BC660F"/>
<path d="M102.792 276.792L102.708 302.699C100.008 300.589 97.3921 298.311 95.1982 296.201L95.2826 270.294C97.4765 272.403 100.092 274.682 102.792 276.792Z" fill="#BC660F"/>
<path d="M76.3818 278.648L76.2974 304.556C75.1161 302.193 74.1036 299.745 73.2598 296.961L73.3442 271.053C74.1879 273.838 75.2005 276.285 76.3818 278.648Z" fill="#BC660F"/>
<path d="M76.3818 278.648L76.2974 304.556C75.1161 302.193 74.1036 299.745 73.2598 296.961L73.3442 271.053C74.1879 273.838 75.2005 276.285 76.3818 278.648Z" fill="#BC660F"/>
<path d="M88.0257 271.053L87.9413 296.961C87.2663 299.745 86.2538 302.193 85.2412 304.556L85.3256 278.648C86.4225 276.285 87.3507 273.922 88.0257 271.053Z" fill="#BC660F"/>
<path d="M88.0253 271.053L87.941 296.96C87.519 298.479 87.0971 299.914 86.5908 301.264L86.6752 275.357C87.1815 274.006 87.6878 272.572 88.0253 271.053Z" fill="#BC660F"/>
<path d="M86.6747 275.357L86.5903 301.264C86.1684 302.361 85.7465 303.458 85.2402 304.555L85.3246 278.648C85.8309 277.551 86.2528 276.538 86.6747 275.357Z" fill="#BC660F"/>
<path d="M151.816 242.698C152.407 240.166 152.407 239.407 152.492 237.466C149.032 236.622 143.379 235.525 139.835 235.019C139.75 233.837 139.666 232.909 139.075 230.63C141.86 229.871 145.657 228.774 150.635 226.917C150.213 225.736 148.948 223.289 148.104 221.854C141.438 221.854 136.628 222.107 134.941 222.192C133.422 220.082 132.494 219.238 131.566 218.225C134.181 216.622 137.978 213.921 140.003 212.318C136.881 209.617 135.7 208.942 134.519 208.098C130.637 209.027 126.925 209.955 122.537 211.305C122.368 211.136 122.031 210.968 121.693 210.799C120.428 210.039 118.318 208.942 116.968 208.352C118.065 206.664 119.584 204.385 121.103 201.01C118.74 199.997 114.858 198.647 113.424 198.225C110.218 199.913 107.011 201.854 104.311 203.795C101.864 203.119 99.164 202.529 97.392 202.191C97.4764 199.153 97.1389 196.875 96.717 194.343C92.4136 193.668 90.6417 193.583 87.9416 193.33C86.8446 194.681 85.9165 195.862 85.1571 197.043C84.3133 198.225 83.5538 199.406 82.8788 200.503C81.5287 200.419 80.5162 200.419 79.588 200.419C79.2505 200.419 78.913 200.419 78.5755 200.419C77.5629 200.419 76.6348 200.419 75.5378 200.503C74.019 198.141 72.4158 195.946 70.1376 193.33C68.1125 193.499 65.4123 193.668 61.3621 194.259C61.3621 194.343 61.109 196.2 61.0246 198.141C60.9403 200.081 61.0246 201.938 61.109 202.022C61.109 202.022 60.8559 202.022 60.5184 202.107C58.4089 202.444 55.3712 203.204 54.1899 203.541C52.0805 202.107 50.0554 200.925 48.199 199.828C47.0177 199.153 45.9208 198.562 44.8238 197.972C40.4361 199.406 39.4236 199.828 37.3141 200.757C38.4954 203.204 39.8455 205.567 41.7862 208.183C40.6893 208.774 38.5798 209.702 36.3859 211.136C34.7827 210.63 30.4794 209.28 24.2354 207.845C22.8009 208.774 20.1852 210.883 18.9195 212.065C21.5352 214.09 24.6573 216.284 27.6105 218.056C26.8511 218.732 25.2479 220.757 24.4041 221.938C19.1726 221.516 15.2068 221.516 11.241 221.432C10.2284 223.289 9.30029 225.145 8.87839 226.495C13.3505 228.183 16.8944 229.28 20.6071 230.293C20.1008 232.571 20.1008 233.584 20.0164 234.681C16.3037 235.187 10.7347 236.285 7.52832 237.044C7.6127 237.888 7.78146 239.998 8.4565 242.361C10.2285 242.529 15.038 243.12 21.6196 243.458C22.0415 244.723 23.2228 246.918 23.7291 247.677C19.5945 249.449 16.6412 250.968 13.6036 252.572C15.038 254.681 16.8944 256.538 17.6538 257.297C21.2821 256.96 26.9355 256.116 30.4794 255.525C31.6607 256.454 32.5045 257.213 35.0359 258.985C32.842 261.095 30.8169 263.12 28.6231 265.736C28.8762 265.905 29.2137 266.074 29.6356 266.327C31.0701 267.171 33.1796 268.268 35.3734 269.281C37.1454 268.606 41.1955 267.171 46.0895 264.808C48.1146 265.652 51.2367 266.749 52.418 267.171C51.5742 269.618 50.9835 272.319 50.646 274.935C53.8524 275.779 57.6495 276.623 58.9995 276.876C62.9654 273.753 65.328 271.306 66.2561 270.378C69.2938 270.884 71.8251 271.053 73.5127 271.222C74.3565 274.091 75.3691 276.454 76.5504 278.817C81.4444 278.986 82.8788 278.901 85.4946 278.817C86.5915 276.369 87.5197 274.007 88.1947 271.222C91.4855 270.969 92.5824 270.884 95.4513 270.462C97.6451 272.572 100.261 274.935 102.961 276.96C106.421 276.285 107.939 275.948 111.23 275.104C110.724 271.981 109.964 269.618 109.121 267.34C112.918 266.158 114.099 265.568 115.365 265.061C118.74 266.58 122.031 268.015 126.334 269.618C130.637 267.509 130.975 267.255 132.831 266.074C131.987 265.146 129.794 262.445 126.165 259.238C127.431 258.395 129.119 257.044 130.553 255.778C134.603 256.538 139.16 257.213 143.463 257.719C144.307 256.876 146.332 254.513 147.344 252.994C142.535 250.378 138.653 248.69 136.966 248.015C137.894 246.411 138.738 244.386 138.906 243.795C145.319 243.458 150.466 242.867 151.816 242.698ZM91.4011 242.529C85.0727 246.158 74.8628 246.158 68.5344 242.529C62.2059 238.901 62.1216 232.909 68.45 229.28C74.7784 225.651 84.9883 225.651 91.3167 229.28C97.6451 232.993 97.7295 238.901 91.4011 242.529Z" fill="url(#paint18_linear_3_17095)"/>
<path d="M85.3254 278.648L85.241 304.556C82.6253 304.64 81.1908 304.64 76.2969 304.556L76.3813 278.648C81.2752 278.817 82.7097 278.733 85.3254 278.648Z" fill="#D87B16"/>
<path d="M85.3257 278.648L85.2414 304.556C83.0475 304.64 81.613 304.64 78.3223 304.556L78.4066 278.648C81.6974 278.817 83.1319 278.733 85.3257 278.648Z" fill="#D87B16"/>
<path d="M78.4063 278.733L78.322 304.64C77.7313 304.64 77.0563 304.64 76.2969 304.556L76.3813 278.648C77.1407 278.648 77.8157 278.733 78.4063 278.733Z" fill="#D87B16"/>
<path d="M87.0129 191.811L82.7939 200.419L87.9411 193.246L87.0129 191.811Z" fill="#0B6C82"/>
<path d="M127.768 295.357H124.393L124.477 269.956L77.6467 201.938L19.172 257.72L19.2564 282.868H15.8813L15.7969 256.285L16.3875 255.779L78.153 196.79L127.852 268.943L127.768 295.357Z" fill="#0E7DA0"/>
<path d="M87.9412 193.246C86.8442 194.596 85.9161 195.778 85.1567 196.959L79.5876 200.335C79.2501 200.335 78.9126 200.335 78.5751 200.335L77.1406 197.972L87.1818 191.811L87.9412 193.246Z" fill="#0E7DA0"/>
<path d="M78.4912 200.335C78.8287 200.335 79.1662 200.335 79.5037 200.335L78.7443 200.757L78.4912 200.335Z" fill="#0E7DA0"/>
<defs>
<linearGradient id="paint0_linear_3_17095" x1="52.059" y1="66.7968" x2="104.47" y2="66.7968" gradientUnits="userSpaceOnUse">
<stop stop-color="white"/>
<stop offset="0.4447" stop-color="#FFC548"/>
<stop offset="1" stop-color="#FFA148"/>
</linearGradient>
<linearGradient id="paint1_linear_3_17095" x1="22.7366" y1="100.935" x2="5.55594" y2="100.935" gradientUnits="userSpaceOnUse">
<stop stop-color="#CCCCCC"/>
<stop offset="0.5047" stop-color="#CCCCCC"/>
<stop offset="0.6954" stop-color="#CFCFCF"/>
<stop offset="0.8522" stop-color="#D9D9D9"/>
<stop offset="0.9969" stop-color="#EBEBEB"/>
<stop offset="1" stop-color="#EBEBEB"/>
</linearGradient>
<linearGradient id="paint2_linear_3_17095" x1="10.2586" y1="92.4095" x2="18.1298" y2="92.4095" gradientUnits="userSpaceOnUse">
<stop stop-color="#CCCCCC"/>
<stop offset="0.5047" stop-color="#CCCCCC"/>
<stop offset="0.6954" stop-color="#CFCFCF"/>
<stop offset="0.8522" stop-color="#D9D9D9"/>
<stop offset="0.9969" stop-color="#EBEBEB"/>
<stop offset="1" stop-color="#EBEBEB"/>
</linearGradient>
<linearGradient id="paint3_linear_3_17095" x1="153.614" y1="24.1589" x2="136.434" y2="24.1589" gradientUnits="userSpaceOnUse">
<stop stop-color="#CCCCCC"/>
<stop offset="0.5047" stop-color="#CCCCCC"/>
<stop offset="0.6954" stop-color="#CFCFCF"/>
<stop offset="0.8522" stop-color="#D9D9D9"/>
<stop offset="0.9969" stop-color="#EBEBEB"/>
<stop offset="1" stop-color="#EBEBEB"/>
</linearGradient>
<linearGradient id="paint4_linear_3_17095" x1="141.134" y1="15.6345" x2="149.006" y2="15.6345" gradientUnits="userSpaceOnUse">
<stop stop-color="#CCCCCC"/>
<stop offset="0.5047" stop-color="#CCCCCC"/>
<stop offset="0.6954" stop-color="#CFCFCF"/>
<stop offset="0.8522" stop-color="#D9D9D9"/>
<stop offset="0.9969" stop-color="#EBEBEB"/>
<stop offset="1" stop-color="#EBEBEB"/>
</linearGradient>
<linearGradient id="paint5_linear_3_17095" x1="135.823" y1="101.016" x2="153.004" y2="100.827" gradientUnits="userSpaceOnUse">
<stop stop-color="#CCCCCC"/>
<stop offset="0.5047" stop-color="#CCCCCC"/>
<stop offset="0.6954" stop-color="#CFCFCF"/>
<stop offset="0.8522" stop-color="#D9D9D9"/>
<stop offset="0.9969" stop-color="#EBEBEB"/>
<stop offset="1" stop-color="#EBEBEB"/>
</linearGradient>
<linearGradient id="paint6_linear_3_17095" x1="148.239" y1="92.3537" x2="140.37" y2="92.4402" gradientUnits="userSpaceOnUse">
<stop stop-color="#CCCCCC"/>
<stop offset="0.5047" stop-color="#CCCCCC"/>
<stop offset="0.6954" stop-color="#CFCFCF"/>
<stop offset="0.8522" stop-color="#D9D9D9"/>
<stop offset="0.9969" stop-color="#EBEBEB"/>
<stop offset="1" stop-color="#EBEBEB"/>
</linearGradient>
<linearGradient id="paint7_linear_3_17095" x1="138.385" y1="88.7745" x2="150.179" y2="88.7745" gradientUnits="userSpaceOnUse">
<stop stop-color="white"/>
<stop offset="0.4447" stop-color="#FFC548"/>
<stop offset="1" stop-color="#FFA148"/>
</linearGradient>
<linearGradient id="paint8_linear_3_17095" x1="4.80176" y1="24.2297" x2="21.9825" y2="24.2297" gradientUnits="userSpaceOnUse">
<stop stop-color="#CCCCCC"/>
<stop offset="0.5047" stop-color="#CCCCCC"/>
<stop offset="0.6954" stop-color="#CFCFCF"/>
<stop offset="0.8522" stop-color="#D9D9D9"/>
<stop offset="0.9969" stop-color="#EBEBEB"/>
<stop offset="1" stop-color="#EBEBEB"/>
</linearGradient>
<linearGradient id="paint9_linear_3_17095" x1="17.2812" y1="15.7071" x2="9.4086" y2="15.7071" gradientUnits="userSpaceOnUse">
<stop stop-color="#CCCCCC"/>
<stop offset="0.5047" stop-color="#CCCCCC"/>
<stop offset="0.6954" stop-color="#CFCFCF"/>
<stop offset="0.8522" stop-color="#D9D9D9"/>
<stop offset="0.9969" stop-color="#EBEBEB"/>
<stop offset="1" stop-color="#EBEBEB"/>
</linearGradient>
<linearGradient id="paint10_linear_3_17095" x1="139.125" y1="11.9833" x2="150.918" y2="11.9833" gradientUnits="userSpaceOnUse">
<stop stop-color="white"/>
<stop offset="0.4447" stop-color="#FFC548"/>
<stop offset="1" stop-color="#FFA148"/>
</linearGradient>
<linearGradient id="paint11_linear_3_17095" x1="139.143" y1="7.26181" x2="150.907" y2="7.26181" gradientUnits="userSpaceOnUse">
<stop stop-color="white"/>
<stop offset="0.4447" stop-color="#FFC548"/>
<stop offset="1" stop-color="#FFA148"/>
</linearGradient>
<linearGradient id="paint12_linear_3_17095" x1="8.24762" y1="88.7595" x2="20.0401" y2="88.7595" gradientUnits="userSpaceOnUse">
<stop stop-color="white"/>
<stop offset="0.4447" stop-color="#FFC548"/>
<stop offset="1" stop-color="#FFA148"/>
</linearGradient>
<linearGradient id="paint13_linear_3_17095" x1="8.26606" y1="84.0362" x2="20.0307" y2="84.0362" gradientUnits="userSpaceOnUse">
<stop stop-color="white"/>
<stop offset="0.4447" stop-color="#FFC548"/>
<stop offset="1" stop-color="#FFA148"/>
</linearGradient>
<linearGradient id="paint14_linear_3_17095" x1="138.392" y1="84.0281" x2="150.157" y2="84.0281" gradientUnits="userSpaceOnUse">
<stop stop-color="white"/>
<stop offset="0.4447" stop-color="#FFC548"/>
<stop offset="1" stop-color="#FFA148"/>
</linearGradient>
<linearGradient id="paint15_linear_3_17095" x1="7.50005" y1="12.0545" x2="19.2925" y2="12.0545" gradientUnits="userSpaceOnUse">
<stop stop-color="white"/>
<stop offset="0.4447" stop-color="#FFC548"/>
<stop offset="1" stop-color="#FFA148"/>
</linearGradient>
<linearGradient id="paint16_linear_3_17095" x1="7.50977" y1="7.33216" x2="19.2746" y2="7.33216" gradientUnits="userSpaceOnUse">
<stop stop-color="white"/>
<stop offset="0.4447" stop-color="#FFC548"/>
<stop offset="1" stop-color="#FFA148"/>
</linearGradient>
<linearGradient id="paint17_linear_3_17095" x1="63.4376" y1="44.34" x2="93.1159" y2="44.34" gradientUnits="userSpaceOnUse">
<stop stop-color="white"/>
<stop offset="0.4447" stop-color="#FFC548"/>
<stop offset="1" stop-color="#FFA148"/>
</linearGradient>
<linearGradient id="paint18_linear_3_17095" x1="7.38488" y1="235.956" x2="152.517" y2="235.956" gradientUnits="userSpaceOnUse">
<stop stop-color="white"/>
<stop offset="0.4447" stop-color="#FFC548"/>
<stop offset="1" stop-color="#FFA148"/>
</linearGradient>
</defs>
</svg>
