<svg width="141" height="284" viewBox="0 0 141 284" fill="none" xmlns="http://www.w3.org/2000/svg">
<path d="M55.7127 213.116L55.6283 230.754C55.6283 230.669 55.5439 229.994 55.5439 228.981L55.6283 211.344C55.6283 212.272 55.7127 213.032 55.7127 213.116Z" fill="#577476"/>
<path d="M80.5199 212.694L80.4355 230.332C80.4355 230.5 80.4355 230.585 80.4355 230.754L80.5199 213.116C80.5199 213.032 80.5199 212.863 80.5199 212.694Z" fill="#618183"/>
<path d="M42.5488 217.167L42.4644 234.804C41.1987 233.032 40.2705 231.429 39.4268 229.741L39.5112 212.104C40.3549 213.791 41.2831 215.395 42.5488 217.167Z" fill="#BC660F"/>
<path d="M42.5488 217.167L42.4644 234.804C41.1987 233.032 40.2705 231.429 39.4268 229.741L39.5112 212.104C40.3549 213.791 41.2831 215.395 42.5488 217.167Z" fill="#BC660F"/>
<path d="M96.6359 212.441L96.5515 230.078C95.539 232.357 94.442 233.96 93.6826 235.142L93.767 217.504C94.6108 216.323 95.6233 214.719 96.6359 212.441Z" fill="#BC660F"/>
<path d="M96.6362 212.441L96.5518 230.079C96.1299 231.007 95.708 231.851 95.2861 232.61L95.3705 214.973C95.7924 214.213 96.2143 213.369 96.6362 212.441Z" fill="#BC660F"/>
<path d="M95.3708 214.973L95.2864 232.61C94.6958 233.623 94.1895 234.467 93.7676 235.142L93.8519 217.505C94.2739 216.745 94.7801 215.986 95.3708 214.973Z" fill="#BC660F"/>
<path d="M32.9293 223.918L32.845 241.555C30.8199 240.29 28.7104 238.855 26.9385 237.505L27.0228 219.867C28.7948 221.218 30.9042 222.652 32.9293 223.918Z" fill="#BC660F"/>
<path d="M32.9293 223.918L32.845 241.555C30.8199 240.29 28.7104 238.855 26.9385 237.505L27.0228 219.867C28.7948 221.218 30.9042 222.652 32.9293 223.918Z" fill="#BC660F"/>
<path d="M109.546 220.205L109.461 237.842C108.111 238.939 105.496 240.796 103.724 241.893L103.808 224.256C105.58 223.159 108.111 221.302 109.546 220.205Z" fill="#BC660F"/>
<path d="M109.546 220.205L109.461 237.842C108.111 238.939 105.496 240.796 103.724 241.893L103.808 224.256C105.58 223.159 108.111 221.302 109.546 220.205Z" fill="#BC660F"/>
<path d="M28.1209 232.272L28.0365 249.91C25.5895 249.235 23.1425 248.475 20.0205 247.294L20.1049 229.656C23.2269 230.838 25.6739 231.597 28.1209 232.272Z" fill="#BC660F"/>
<path d="M28.1209 232.272L28.0365 249.91C25.5895 249.235 23.1425 248.475 20.0205 247.294L20.1049 229.656C23.2269 230.838 25.6739 231.597 28.1209 232.272Z" fill="#BC660F"/>
<path d="M116.803 230.078L116.718 247.716C113.343 248.981 110.727 249.741 108.871 250.247L108.956 232.61C110.812 232.104 113.428 231.344 116.803 230.078Z" fill="#BC660F"/>
<path d="M116.803 230.078L116.719 247.716C115.369 248.222 114.103 248.644 112.922 248.981L113.006 231.344C114.188 231.091 115.369 230.669 116.803 230.078Z" fill="#BC660F"/>
<path d="M113.007 231.428L112.922 249.066C111.319 249.572 109.969 249.994 108.872 250.247L108.956 232.61C110.053 232.357 111.403 231.935 113.007 231.428Z" fill="#BC660F"/>
<path d="M79.5915 246.787V236.239C79.5915 234.635 78.4945 232.948 76.3007 231.682C76.0476 231.513 75.7944 231.429 75.4569 231.26C75.3725 231.175 75.2882 231.175 75.2038 231.175C75.035 231.091 74.8662 231.007 74.6975 230.922H74.6131C74.5287 230.922 74.4443 230.838 74.4443 230.838C74.1912 230.753 74.0225 230.669 73.7693 230.585C73.6849 230.585 73.6006 230.5 73.5162 230.5C73.4318 230.5 73.4318 230.5 73.3474 230.416C73.2631 230.416 73.1787 230.332 73.0943 230.332C72.8412 230.247 72.6724 230.247 72.4193 230.163C72.3349 230.163 72.3349 230.163 72.2505 230.078C72.1661 230.078 72.0818 230.078 71.9974 229.994C71.8286 229.994 71.5755 229.91 71.4067 229.91C71.3223 229.91 71.238 229.91 71.1536 229.91C71.0692 229.91 70.9848 229.91 70.9004 229.91C70.7317 229.91 70.5629 229.825 70.3098 229.825C70.2254 229.825 70.141 229.825 70.0566 229.825C69.9723 229.825 69.8879 229.825 69.8035 229.825C69.6347 229.825 69.466 229.825 69.2128 229.825C69.1285 229.825 69.0441 229.825 68.9597 229.825C68.8753 229.825 68.791 229.825 68.7066 229.825C68.5378 229.825 68.2847 229.825 68.1159 229.825C68.0315 229.825 67.9472 229.825 67.7784 229.825C67.6941 229.825 67.6941 229.825 67.6097 229.825C67.3565 229.825 67.1034 229.825 66.8502 229.91C66.7659 229.91 66.6815 229.91 66.5128 229.91C66.4284 229.91 66.4284 229.91 66.344 229.91C66.2596 229.91 66.1752 229.91 66.0909 229.91C65.8377 229.91 65.5846 229.994 65.3314 229.994C65.2471 229.994 65.247 229.994 65.1627 229.994H65.0783C64.9939 229.994 64.8251 230.078 64.7408 230.078C64.572 230.078 64.3189 230.163 64.1501 230.247C63.9813 230.247 63.897 230.332 63.7282 230.332C63.5595 230.416 63.3907 230.416 63.1376 230.5H63.0532C62.8001 230.585 62.6313 230.669 62.3782 230.753H62.2938C62.0407 230.838 61.7875 230.922 61.6187 231.091C61.5344 231.091 61.45 231.175 61.45 231.175C61.1969 231.26 60.9437 231.429 60.6906 231.597C60.6062 231.597 60.6062 231.682 60.5218 231.682C60.3531 231.766 60.0999 231.935 59.9312 232.019C59.9312 232.019 59.8468 232.019 59.8468 232.104C59.678 232.272 59.4249 232.441 59.2561 232.526L59.1718 232.61L59.0874 232.694C58.9186 232.863 58.8342 232.948 58.6655 233.116L58.5811 233.201C58.4967 233.285 58.4124 233.37 58.328 233.454C58.2436 233.538 58.2436 233.623 58.1592 233.623C58.1592 233.623 58.1592 233.707 58.0749 233.707C57.9905 233.792 57.9061 233.96 57.8217 234.129C57.8217 234.213 57.7373 234.213 57.7373 234.298C57.7373 234.298 57.7373 234.382 57.653 234.382C57.5686 234.551 57.4842 234.635 57.4842 234.804V234.889V234.973C57.3998 235.142 57.3998 235.226 57.3998 235.395V235.479V235.564C57.3998 235.732 57.3998 235.901 57.3154 236.07V236.154V246.703H79.5915V246.787Z" fill="#BC660F"/>
<path d="M19.8512 240.458L19.7668 258.096C19.2605 256.577 19.1762 255.058 19.0918 254.467L19.1762 236.829C19.2605 237.42 19.3449 238.855 19.8512 240.458Z" fill="#D87B16"/>
<path d="M19.8512 240.458L19.7668 258.096C19.2605 256.577 19.1762 255.058 19.0918 254.467L19.1762 236.829C19.2605 237.42 19.3449 238.855 19.8512 240.458Z" fill="#D87B16"/>
<path d="M118.068 237.251L117.984 254.889C117.899 256.239 117.899 256.745 117.478 258.433L117.562 240.796C117.984 239.192 117.984 238.602 118.068 237.251Z" fill="#D87B16"/>
<path d="M118.067 237.252L117.983 254.889C117.899 255.986 117.899 256.577 117.646 257.589L117.73 239.952C117.983 238.939 118.067 238.349 118.067 237.252Z" fill="#D87B16"/>
<path d="M117.814 240.036L117.729 257.674C117.645 257.927 117.645 258.18 117.561 258.518L117.645 240.88C117.645 240.543 117.729 240.29 117.814 240.036Z" fill="#D87B16"/>
<path d="M28.7952 241.133L28.7108 258.771C24.2387 258.602 20.9479 258.18 19.7666 258.011L19.851 240.374C21.0323 240.543 24.3231 240.965 28.7952 241.133Z" fill="#BC660F"/>
<path d="M28.795 241.133L28.7106 258.771C26.9386 258.686 25.3354 258.602 23.9854 258.433L24.0697 240.796C25.4198 240.964 27.023 241.049 28.795 241.133Z" fill="#BC660F"/>
<path d="M24.0699 240.88L23.9856 258.517C21.9605 258.349 20.4416 258.18 19.7666 258.095L19.851 240.458C20.526 240.543 22.0448 240.711 24.0699 240.88Z" fill="#BC660F"/>
<path d="M117.563 240.88L117.478 258.518C116.55 258.602 113.091 259.024 108.534 259.193L108.619 241.555C113.175 241.387 116.719 240.965 117.563 240.88Z" fill="#BC660F"/>
<path d="M117.562 240.88L117.478 258.518C117.225 258.518 116.887 258.602 116.297 258.602L116.381 240.965C116.972 240.965 117.394 240.88 117.562 240.88Z" fill="#BC660F"/>
<path d="M116.381 240.965L116.297 258.602C114.694 258.771 111.909 259.024 108.534 259.109L108.619 241.471C112.078 241.387 114.863 241.134 116.381 240.965Z" fill="#BC660F"/>
<path d="M30.2298 244.003L30.1454 261.64C29.8079 261.134 29.0485 259.615 28.7109 258.771L28.7953 241.133C29.1329 242.062 29.8923 243.496 30.2298 244.003Z" fill="#FFB90B"/>
<path d="M30.2298 244.003L30.1454 261.64C29.8079 261.134 29.0485 259.615 28.7109 258.771L28.7953 241.133C29.1329 242.062 29.8923 243.496 30.2298 244.003Z" fill="#FFB90B"/>
<path d="M108.702 241.555L108.618 259.193C108.533 259.53 107.943 260.965 107.268 262.062L107.352 244.425C108.027 243.243 108.618 241.893 108.702 241.555Z" fill="#FFB90B"/>
<path d="M108.703 241.555L108.619 259.193C108.619 259.277 108.534 259.361 108.534 259.446L108.619 241.808C108.619 241.64 108.703 241.555 108.703 241.555Z" fill="#FFB90B"/>
<path d="M108.619 241.808L108.534 259.446C108.366 259.952 107.859 260.965 107.438 261.893L107.522 244.256C107.944 243.327 108.366 242.315 108.619 241.808Z" fill="#FFB90B"/>
<path d="M107.437 244.171L107.353 261.809C107.353 261.893 107.269 261.893 107.269 261.978L107.353 244.34C107.353 244.34 107.437 244.256 107.437 244.171Z" fill="#FFB90B"/>
<path d="M34.7862 249.404L34.7018 267.041C32.3392 267.463 28.4577 268.054 26.0107 268.307L26.0951 250.67C28.5421 250.332 32.4235 249.826 34.7862 249.404Z" fill="#BC660F"/>
<path d="M34.7867 249.404L34.7024 267.041C34.618 267.041 34.5336 267.041 34.4492 267.125L34.5336 249.488C34.618 249.404 34.7023 249.404 34.7867 249.404Z" fill="#BC660F"/>
<path d="M34.5327 249.404L34.4483 267.041C32.0857 267.463 28.4573 267.969 26.0947 268.222L26.1791 250.585C28.5417 250.332 32.17 249.826 34.5327 249.404Z" fill="#BC660F"/>
<path d="M26.1795 250.585L26.0951 268.222H26.0107L26.0951 250.585H26.1795Z" fill="#BC660F"/>
<path d="M26.0955 250.585L26.0111 268.222C25.5048 267.632 24.2391 266.366 23.2266 265.016L23.311 247.378C24.3235 248.813 25.5892 250.079 26.0955 250.585Z" fill="#D87B16"/>
<path d="M26.0955 250.585L26.0111 268.222C25.5048 267.632 24.2391 266.366 23.2266 265.016L23.311 247.378C24.3235 248.813 25.5892 250.079 26.0955 250.585Z" fill="#D87B16"/>
<path d="M114.44 247.8L114.356 265.437C113.681 266.45 112.331 268.054 111.74 268.644L111.825 251.007C112.331 250.416 113.681 248.813 114.44 247.8Z" fill="#D87B16"/>
<path d="M114.44 247.8L114.355 265.437C114.102 265.775 113.849 266.113 113.512 266.535L113.596 248.897C113.934 248.475 114.187 248.138 114.44 247.8Z" fill="#D87B16"/>
<path d="M113.596 248.897L113.512 266.534C112.837 267.378 112.077 268.222 111.655 268.644L111.74 251.007C112.162 250.585 112.921 249.741 113.596 248.897Z" fill="#D87B16"/>
<path d="M111.739 251.007V268.644C108.786 268.307 105.748 267.885 102.964 267.379L103.048 249.741C105.748 250.163 108.87 250.669 111.739 251.007Z" fill="#BC660F"/>
<path d="M111.739 251.007V268.645C110.557 268.476 109.376 268.391 108.11 268.223L108.195 250.585C109.376 250.67 110.557 250.838 111.739 251.007Z" fill="#BC660F"/>
<path d="M108.195 250.501L108.111 268.138C106.339 267.885 104.567 267.632 102.964 267.294L103.048 249.657C104.651 249.994 106.423 250.247 108.195 250.501Z" fill="#BC660F"/>
<path d="M37.9085 251.767L37.8241 269.404C36.0522 268.222 35.5459 267.716 34.7021 267.041L34.7865 249.404C35.6303 250.079 36.1365 250.585 37.9085 251.767Z" fill="#FFB90B"/>
<path d="M37.9085 251.767L37.8241 269.404C36.0522 268.222 35.5459 267.716 34.7021 267.041L34.7865 249.404C35.6303 250.079 36.1365 250.585 37.9085 251.767Z" fill="#FFB90B"/>
<path d="M102.964 249.657L102.88 267.294C101.952 268.138 100.771 269.066 99.9268 269.657L100.011 252.02C100.855 251.429 102.036 250.585 102.964 249.657Z" fill="#FFB90B"/>
<path d="M102.964 249.657L102.88 267.294C101.952 268.138 100.771 269.066 99.9268 269.657L100.011 252.02C100.855 251.429 102.036 250.585 102.964 249.657Z" fill="#FFB90B"/>
<path d="M49.7216 257.421L49.6373 275.058C48.8779 274.805 46.684 274.045 45.334 273.455L45.4184 255.817C46.7684 256.408 48.9622 257.167 49.7216 257.421Z" fill="#FFB90B"/>
<path d="M49.7222 257.421L49.6379 275.058C49.0472 274.889 47.5284 274.383 46.2627 273.877L46.3471 256.239C47.6127 256.661 49.1316 257.167 49.7222 257.421Z" fill="#FFB90B"/>
<path d="M46.3465 256.155L46.2621 273.792C45.9246 273.623 45.5871 273.539 45.334 273.37L45.4184 255.733C45.6715 255.902 46.009 256.07 46.3465 256.155Z" fill="#FFB90B"/>
<path d="M92.6706 255.986L92.5862 273.623C91.7424 273.961 90.8986 274.383 88.3672 275.142L88.4516 257.505C90.983 256.745 91.8268 256.408 92.6706 255.986Z" fill="#FFB90B"/>
<path d="M92.6706 255.986L92.5862 273.623C91.7424 273.961 90.8986 274.383 88.3672 275.142L88.4516 257.505C90.983 256.745 91.8268 256.408 92.6706 255.986Z" fill="#FFB90B"/>
<path d="M45.4186 255.817L45.3342 273.454C41.959 275.058 39.1745 276.07 37.9932 276.492L38.0776 258.855C39.2589 258.349 42.0434 257.42 45.4186 255.817Z" fill="#BC660F"/>
<path d="M45.4186 255.817L45.3342 273.454C41.959 275.058 39.1745 276.07 37.9932 276.492L38.0776 258.855C39.2589 258.349 42.0434 257.42 45.4186 255.817Z" fill="#BC660F"/>
<path d="M38.0774 258.855L37.9929 276.493C36.5585 275.817 35.1241 275.058 34.1115 274.467C33.8584 274.298 33.6053 274.214 33.4365 274.045L33.5209 256.408C33.6896 256.492 33.9428 256.661 34.1959 256.83C35.2084 257.336 36.6429 258.096 38.0774 258.855Z" fill="#D87B16"/>
<path d="M38.0774 258.855L37.9929 276.493C36.5585 275.817 35.1241 275.058 34.1115 274.467C33.8584 274.298 33.6053 274.214 33.4365 274.045L33.5209 256.408C33.6896 256.492 33.9428 256.661 34.1959 256.83C35.2084 257.336 36.6429 258.096 38.0774 258.855Z" fill="#D87B16"/>
<path d="M100.181 259.108L100.096 276.746C97.2274 275.649 94.9491 274.72 92.6709 273.623L92.7553 255.986C94.9491 257.083 97.2273 258.011 100.181 259.108Z" fill="#BC660F"/>
<path d="M100.18 259.108L100.096 276.746C99.3362 276.493 98.5768 276.155 97.8174 275.902L97.9017 258.265C98.5768 258.518 99.3362 258.855 100.18 259.108Z" fill="#BC660F"/>
<path d="M97.9018 258.264L97.8175 275.902C95.8767 275.142 94.2735 274.467 92.5859 273.623L92.6703 255.986C94.3579 256.745 95.9611 257.505 97.9018 258.264Z" fill="#BC660F"/>
<path d="M104.567 256.661L104.483 274.298C103.217 275.058 102.964 275.227 100.011 276.746L100.095 259.108C103.048 257.674 103.302 257.505 104.567 256.661Z" fill="#D87B16"/>
<path d="M104.567 256.661L104.483 274.299C104.23 274.467 103.977 274.636 103.724 274.72L103.808 257.083C104.061 256.999 104.314 256.83 104.567 256.661Z" fill="#D87B16"/>
<path d="M103.808 257.167L103.723 274.805C102.964 275.311 102.289 275.649 100.011 276.746L100.095 259.108C102.458 257.927 103.048 257.589 103.808 257.167Z" fill="#D87B16"/>
<path d="M64.1496 260.121L64.0653 277.758C62.884 277.674 61.112 277.505 59.0869 277.168L59.1713 259.53C61.1964 259.868 62.9683 260.037 64.1496 260.121Z" fill="#FFB90B"/>
<path d="M64.1491 260.121L64.0648 277.759C63.0522 277.674 61.6178 277.59 60.0146 277.337L60.099 259.699C61.7022 259.952 63.1366 260.037 64.1491 260.121Z" fill="#FFB90B"/>
<path d="M60.0151 259.699L59.9307 277.336C59.6775 277.336 59.34 277.252 59.0869 277.168L59.1713 259.53C59.4244 259.615 59.762 259.699 60.0151 259.699Z" fill="#FFB90B"/>
<path d="M79.0853 259.699L79.0009 277.336C77.0602 277.589 76.3007 277.674 74.0225 277.843L74.1069 260.205C76.3851 260.037 77.1445 259.952 79.0853 259.699Z" fill="#FFB90B"/>
<path d="M79.0858 259.699L79.0015 277.336C77.9046 277.505 77.2295 277.59 76.3857 277.674L76.4702 260.037C77.3139 259.868 78.0733 259.783 79.0858 259.699Z" fill="#FFB90B"/>
<path d="M76.5544 259.952L76.47 277.589C75.795 277.674 75.12 277.674 74.1074 277.758L74.1918 260.121C75.1199 260.121 75.8793 260.036 76.5544 259.952Z" fill="#FFB90B"/>
<path d="M54.1932 264.003L54.1089 281.64C53.1807 281.471 50.565 280.881 48.3711 280.29L48.4555 262.653C50.7337 263.243 53.2651 263.834 54.1932 264.003Z" fill="#D87B16"/>
<path d="M54.1942 264.003L54.1098 281.64C53.8567 281.64 53.6035 281.556 53.1816 281.471L53.266 263.834C53.6879 263.918 54.0254 263.918 54.1942 264.003Z" fill="#D87B16"/>
<path d="M53.35 263.834L53.2656 281.471C52.0843 281.218 50.1436 280.796 48.4561 280.29L48.5404 262.653C50.228 263.075 52.0843 263.581 53.35 263.834Z" fill="#D87B16"/>
<path d="M59.1717 259.615L59.0873 277.252C58.4966 277.843 56.8091 279.531 54.1934 281.64L54.2778 264.003C56.8935 261.893 58.581 260.205 59.1717 259.615Z" fill="#BC660F"/>
<path d="M59.1724 259.615L59.088 277.252C58.7504 277.589 58.2442 278.18 57.4004 278.94L57.4848 261.302C58.3286 260.458 58.8349 259.868 59.1724 259.615Z" fill="#BC660F"/>
<path d="M57.4851 261.218L57.4007 278.855C56.5569 279.615 55.5444 280.543 54.1943 281.556L54.2787 263.918C55.5444 262.906 56.6413 261.978 57.4851 261.218Z" fill="#BC660F"/>
<path d="M89.8861 262.821L89.8018 280.459C87.5236 281.05 86.511 281.303 84.1484 281.725L84.2328 264.087C86.5954 263.665 87.6079 263.412 89.8861 262.821Z" fill="#D87B16"/>
<path d="M89.8861 262.821L89.8018 280.459C87.5236 281.05 86.511 281.303 84.1484 281.725L84.2328 264.087C86.5954 263.665 87.6079 263.412 89.8861 262.821Z" fill="#D87B16"/>
<path d="M84.2325 264.087L84.1481 281.725C82.2917 280.29 80.5198 278.771 79.001 277.252L79.0853 259.615C80.6042 261.134 82.3761 262.653 84.2325 264.087Z" fill="#BC660F"/>
<path d="M84.2325 264.087L84.1481 281.725C82.2917 280.29 80.5198 278.771 79.001 277.252L79.0853 259.615C80.6042 261.134 82.3761 262.653 84.2325 264.087Z" fill="#BC660F"/>
<path d="M66.1749 265.353V282.99C65.3311 281.387 64.6561 279.699 64.0654 277.758L64.1498 260.121C64.6561 262.062 65.4155 263.75 66.1749 265.353Z" fill="#BC660F"/>
<path d="M66.1749 265.353V282.99C65.3311 281.387 64.6561 279.699 64.0654 277.758L64.1498 260.121C64.6561 262.062 65.4155 263.75 66.1749 265.353Z" fill="#BC660F"/>
<path d="M74.1917 260.205L74.1073 277.843C73.6011 279.784 73.0104 281.387 72.251 282.991L72.3353 265.353C73.0104 263.75 73.6854 262.146 74.1917 260.205Z" fill="#BC660F"/>
<path d="M74.1922 260.205L74.1078 277.843C73.8547 278.855 73.5172 279.868 73.1797 280.796L73.2641 263.159C73.6016 262.231 73.9391 261.218 74.1922 260.205Z" fill="#BC660F"/>
<path d="M73.2635 263.159L73.1791 280.796C72.926 281.556 72.5885 282.315 72.251 283.075L72.3353 265.438C72.6729 264.678 72.926 263.919 73.2635 263.159Z" fill="#BC660F"/>
<path d="M117.562 240.88C117.984 239.192 117.984 238.686 118.068 237.336C115.706 236.745 111.909 235.986 109.462 235.648C109.377 234.889 109.377 234.213 108.955 232.694C110.812 232.188 113.428 231.429 116.803 230.163C116.465 229.403 115.706 227.631 115.031 226.703C110.474 226.703 107.268 226.872 106.002 226.956C104.99 225.521 104.315 224.931 103.724 224.256C105.496 223.158 108.112 221.302 109.462 220.205C107.352 218.348 106.508 217.842 105.749 217.336C103.133 217.926 100.518 218.601 97.5643 219.53C97.3955 219.445 97.2268 219.361 96.9736 219.192C96.1298 218.686 94.6954 217.926 93.7672 217.504C94.5266 216.407 95.5392 214.804 96.6361 212.441C95.0329 211.766 92.3328 210.838 91.4046 210.5C89.2108 211.682 87.0169 212.947 85.1606 214.298C83.473 213.791 81.701 213.454 80.4354 213.201C80.4354 211.175 80.2666 209.572 80.0135 207.884C77.0602 207.462 75.8789 207.378 74.0225 207.209C73.2631 208.137 72.6725 208.897 72.0818 209.741C71.4912 210.584 70.9849 211.344 70.563 212.103C69.6348 212.103 68.9598 212.019 68.2848 212.019C68.0316 212.019 67.7785 212.019 67.6097 212.019C66.9347 212.019 66.3441 212.019 65.5003 212.019C64.4877 210.416 63.3908 208.897 61.7876 207.125C60.4375 207.209 58.5812 207.378 55.7967 207.8C55.7967 207.884 55.6279 209.15 55.5435 210.5C55.4592 211.85 55.5435 213.116 55.5435 213.201C55.5435 213.201 55.3748 213.201 55.206 213.285C53.7716 213.538 51.7465 214.044 50.9027 214.298C49.4683 213.285 48.1182 212.525 46.8525 211.766C46.0931 211.344 45.3337 210.922 44.5743 210.5C41.621 211.513 40.8616 211.766 39.4271 212.357C40.2709 213.96 41.1991 215.648 42.4648 217.42C41.7054 217.758 40.2709 218.433 38.8365 219.445C37.7395 219.108 34.7863 218.18 30.5673 217.251C29.6392 217.842 27.8672 219.361 26.939 220.12C28.711 221.555 30.8205 222.99 32.8456 224.256C32.3393 224.762 31.2424 226.028 30.6517 226.872C27.1078 226.618 24.4077 226.534 21.6232 226.534C20.9481 227.8 20.3575 229.066 20.0199 229.994C23.0576 231.091 25.5046 231.851 28.036 232.61C27.6984 234.129 27.6984 234.889 27.6141 235.564C25.0827 235.901 21.2857 236.661 19.0918 237.167C19.1762 237.758 19.2605 239.192 19.7668 240.796C20.9481 240.88 24.2389 241.302 28.711 241.555C29.0485 242.399 29.8079 243.918 30.1454 244.425C27.3609 245.606 25.3358 246.619 23.2263 247.716C24.2389 249.15 25.5046 250.416 26.0109 250.923C28.4579 250.669 32.3393 250.163 34.7019 249.657C35.4613 250.332 36.052 250.838 37.824 252.02C36.3051 253.454 34.9551 254.804 33.4362 256.661C33.605 256.745 33.8581 256.914 34.1113 257.083C35.1238 257.674 36.5582 258.433 37.9927 259.108C39.174 258.686 41.9585 257.674 45.3337 256.07C46.6837 256.661 48.8776 257.421 49.637 257.674C49.0464 259.362 48.6244 261.218 48.4557 262.906C50.6495 263.497 53.2653 264.087 54.1935 264.256C56.8936 262.146 58.4968 260.459 59.0874 259.868C61.1125 260.205 62.8845 260.374 64.0658 260.459C64.6565 262.4 65.3315 264.003 66.1753 265.691C69.4661 265.775 70.4786 265.775 72.2506 265.691C73.01 264.087 73.6007 262.4 74.1069 260.543C76.3008 260.374 77.1446 260.29 79.0853 260.037C80.5197 261.471 82.3761 263.075 84.2324 264.509C86.595 264.087 87.6075 263.834 89.8858 263.243C89.5483 261.134 89.042 259.53 88.4514 257.927C90.9827 257.083 91.8265 256.745 92.6703 256.408C94.9486 257.421 97.2268 258.433 100.096 259.53C103.049 258.096 103.218 257.927 104.568 257.083C103.977 256.492 102.458 254.636 100.011 252.442C100.855 251.851 102.036 250.923 102.965 250.079C105.749 250.585 108.871 251.091 111.74 251.345C112.331 250.754 113.681 249.15 114.356 248.138C111.065 246.366 108.449 245.184 107.268 244.762C107.943 243.665 108.534 242.23 108.618 241.893C113.174 241.387 116.718 240.965 117.562 240.88ZM76.4695 240.796C72.1662 243.328 65.1627 243.328 60.8594 240.796C56.5561 238.264 56.5561 234.298 60.775 231.766C65.0783 229.235 72.0818 229.235 76.3851 231.766C80.6885 234.213 80.7729 238.264 76.4695 240.796Z" fill="url(#paint0_linear_3_17437)"/>
<path d="M72.3345 265.353L72.2501 282.991C70.4782 283.075 69.4656 283.075 66.1748 282.991L66.2592 265.353C69.55 265.438 70.4781 265.438 72.3345 265.353Z" fill="#D87B16"/>
<path d="M72.3352 265.353L72.2508 282.991C70.7319 282.991 69.8037 283.075 67.5254 282.991L67.6098 265.353C69.8881 265.438 70.8163 265.438 72.3352 265.353Z" fill="#D87B16"/>
<path d="M67.6093 265.437L67.5248 283.075C67.1029 283.075 66.6811 283.075 66.1748 283.075L66.2592 265.437C66.7654 265.353 67.1874 265.353 67.6093 265.437Z" fill="#D87B16"/>
<path d="M73.4323 206.196L70.5635 212.019L74.023 207.124L73.4323 206.196Z" fill="#0B6C82"/>
<path d="M101.277 276.746H98.9145L98.9989 259.446L67.0192 213.116L27.2767 251.091V268.222H24.9985L24.9141 250.079L25.336 249.741L67.4411 209.572L101.277 258.771V276.746Z" fill="#0E7DA0"/>
<path d="M74.022 207.124C73.2626 208.053 72.672 208.812 72.0813 209.656L68.2843 211.935C68.0311 211.935 67.778 211.935 67.6092 211.935L66.5967 210.331L73.4313 206.196L74.022 207.124Z" fill="#0E7DA0"/>
<path d="M67.6084 212.019C67.8616 212.019 68.0303 212.019 68.2835 212.019L67.7772 212.356L67.6084 212.019Z" fill="#0E7DA0"/>
<path d="M68.7072 39.1051H66.1758V212.103H68.7072V39.1051Z" fill="#0E7DA0"/>
<path d="M83.1358 82.9032H55.9657C50.5655 82.9032 46.1777 78.515 46.1777 73.114V45.9407C46.1777 40.5397 50.5655 36.1515 55.9657 36.1515H83.1358C88.536 36.1515 92.9238 40.5397 92.9238 45.9407V73.114C92.9238 78.515 88.536 82.9032 83.1358 82.9032Z" fill="url(#paint1_linear_3_17437)"/>
<path d="M104.652 45.35C109.124 41.7212 123.806 33.7042 123.806 33.7042C125.241 32.6072 127.013 31.932 128.784 31.932C131.991 31.932 134.86 31.1725 136.969 29.9911C139.079 28.8096 140.429 27.1218 140.429 25.2653L140.007 23.4931C138.657 20.6239 134.185 18.5985 128.869 18.5985C125.662 18.5985 122.794 19.358 120.684 20.5395C118.575 21.7209 117.309 23.4087 117.225 25.2653C117.225 25.4341 117.225 25.5184 117.225 25.6872C117.225 25.7716 117.225 25.856 117.225 25.9404C117.225 26.1092 117.309 26.1936 117.309 26.278C117.309 26.3623 117.309 26.4467 117.393 26.5311C117.478 26.6999 117.478 26.7843 117.562 26.9531C117.562 27.0375 117.646 27.1218 117.646 27.1218C117.731 27.2906 117.9 27.5438 117.984 27.7126L117.225 28.1345C112.837 29.4847 107.352 31.6789 101.53 35.5608C98.6612 37.5017 96.2141 39.5271 94.1047 41.3836C89.4638 43.409 81.1103 46.3626 70.2254 46.3626C61.5344 46.3626 53.0965 44.5904 46.3462 41.3836C44.4898 39.5271 42.296 37.6705 39.5958 35.8139C33.6049 31.5945 27.6984 29.4004 23.3107 28.1345C23.0575 27.9657 22.8044 27.8813 22.5513 27.7126C22.72 27.5438 22.8044 27.2906 22.8888 27.1218C22.8888 27.0375 22.9731 26.9531 22.9731 26.9531C23.0575 26.7843 23.0575 26.6999 23.1419 26.5311C23.1419 26.4467 23.1419 26.3623 23.2263 26.278C23.2263 26.1936 23.3107 26.0248 23.3107 25.9404C23.3107 25.856 23.3107 25.7716 23.3107 25.6872C23.3107 25.5184 23.3107 25.4341 23.3107 25.2653C23.3107 23.4087 21.9606 21.7209 19.8511 20.5395C17.7416 19.358 14.8728 18.5985 11.6664 18.5985C6.3505 18.5985 1.87841 20.7082 0.528341 23.4931L0.106445 25.2653C0.106445 27.1218 1.45649 28.8096 3.56597 29.9911C5.67544 31.1725 8.54434 31.932 11.7507 31.932C13.5227 31.932 15.2947 32.5228 16.7291 33.7042C16.7291 33.7042 31.3267 41.7212 35.8831 45.35C41.2834 49.6538 44.4054 53.5357 44.4054 58.5147C44.4054 61.7215 42.3803 68.1351 40.1021 71.0043C38.752 72.6077 37.0644 74.2111 35.0393 75.5614L15.2103 87.2915C14.1977 87.1227 13.1852 87.0383 12.0883 87.0383C6.7724 87.0383 2.3003 89.1481 0.950236 91.9329L0.528341 93.5363C0.528341 93.6207 0.528341 93.7051 0.528341 93.7895C0.528341 95.646 1.87838 97.3338 3.98786 98.5153C6.09734 99.6967 8.96621 100.456 12.257 100.456C18.6698 100.456 23.8169 97.4182 23.8169 93.7051C23.8169 92.2705 24.5763 90.9202 25.9264 90.4139C25.9264 90.4139 39.5115 81.1311 44.6586 78.9369C52.5058 75.5614 61.3656 75.6457 70.3942 75.5614C79.4227 75.6457 88.2825 75.5614 96.1298 78.9369C101.277 81.1311 114.862 90.4139 114.862 90.4139C116.212 90.9202 116.971 92.2705 116.971 93.7051C116.971 97.4182 122.119 100.456 128.531 100.456C131.738 100.456 134.691 99.6967 136.801 98.5153C138.91 97.3338 140.176 95.646 140.26 93.7895C140.26 93.7051 140.26 93.6207 140.26 93.5363L139.838 91.9329C138.488 89.1481 134.016 87.0383 128.7 87.0383C127.603 87.0383 126.591 87.1227 125.578 87.2915L105.749 75.5614C103.724 74.1267 102.036 72.6077 100.686 71.0043C98.408 68.1351 96.2985 61.7215 96.3829 58.5147C96.1298 53.5357 99.2518 49.7382 104.652 45.35Z" fill="#0E7DA0"/>
<path d="M138.91 91.9329C138.91 91.0046 138.488 90.1607 137.728 89.3168C135.872 87.4603 132.328 86.2788 128.447 86.2788C126 86.2788 123.637 85.2662 121.95 83.494C116.802 78.0087 107.605 68.2195 103.724 63.6625L103.639 63.5781C102.036 61.7215 100.517 59.9493 99.2516 58.3459C96.889 55.4767 95.7076 52.0167 95.7076 48.3036C95.7076 42.4807 99.5047 37.4174 105.833 34.6325C109.715 32.9447 119.756 30.3287 123.89 29.316C124.903 29.0628 126 28.9784 127.097 28.9784C127.35 28.9784 127.603 28.9784 127.856 28.9784C128.109 28.9784 128.447 28.9784 128.7 28.9784C131.569 28.9784 134.353 28.3033 136.378 27.1219C138.235 26.0248 139.247 24.6746 139.247 23.3243C139.247 22.3961 138.825 21.5522 138.066 20.7927C136.21 18.9361 132.666 17.7546 128.784 17.7546C125.915 17.7546 123.131 18.4298 121.106 19.6112C119.249 20.7083 118.237 22.0585 118.237 23.4087C118.237 23.4931 118.237 23.4931 118.237 23.5775V23.6619V23.8307V23.9151V24.0838V24.2526C118.237 24.5058 117.731 26.7843 113.68 28.0501H113.596H113.512C108.196 29.0628 98.7453 30.7506 94.7795 31.3413L93.7669 31.5101C83.8102 32.8603 77.2286 33.7886 70.2252 33.9574C63.2217 33.7042 56.6402 32.8603 46.6834 31.5101L45.6709 31.3413C41.6207 30.7506 32.1702 29.0628 26.9387 28.0501H26.8544H26.77C22.7198 26.7843 22.2979 24.5058 22.2135 24.2526V24.0838V23.9151V23.8307V23.6619V23.5775C22.2135 23.4931 22.2135 23.4931 22.2135 23.4087C22.2135 22.0585 21.201 20.7083 19.3446 19.6112C17.3195 18.4298 14.6194 17.7546 11.6661 17.7546C7.78471 17.7546 4.24079 18.9361 2.38445 20.7927C1.54066 21.6366 1.20312 22.4805 1.20312 23.3243C1.20312 24.6746 2.21569 26.0248 4.07203 27.1219C6.09713 28.3033 8.79724 28.9784 11.7505 28.9784C12.0036 28.9784 12.3412 28.9784 12.5943 28.9784C12.8474 28.9784 13.1006 28.9784 13.3537 28.9784C14.535 28.9784 15.5476 29.0628 16.5601 29.316C20.6947 30.3287 30.8201 32.9447 34.6172 34.6325C40.9456 37.4174 44.6583 42.4807 44.7427 48.3036C44.7427 52.0167 43.5614 55.4767 41.1988 58.3459C39.8487 59.9493 38.4143 61.7215 36.8111 63.5781L36.7267 63.6625C32.8452 68.2195 23.6479 78.0931 18.5008 83.494C16.8132 85.2662 14.535 86.2788 12.088 86.2788C8.20661 86.2788 4.66269 87.4603 2.80635 89.3168C1.96256 90.1607 1.62502 91.0046 1.62502 91.8485C1.62502 93.1988 2.63759 94.549 4.49393 95.646C6.51902 96.8275 9.21913 97.4182 12.1724 97.4182C16.0538 97.4182 19.5978 96.2368 21.4541 94.3802C22.2979 93.5363 22.6354 92.6924 22.6354 91.7641C22.6354 89.6544 23.3948 87.7978 24.8293 86.4476L37.7392 74.8863C46.6834 66.8693 58.2433 62.481 70.2252 62.481C82.207 62.481 93.7669 66.8693 102.711 74.8863L115.621 86.4476C117.056 87.7135 117.815 89.57 117.815 91.6798C117.815 92.608 118.237 93.4519 118.996 94.2958C120.853 96.1524 124.396 97.3338 128.278 97.3338C131.231 97.3338 133.931 96.6587 135.956 95.5617C137.897 94.6334 138.91 93.2832 138.91 91.9329Z" fill="#78D9FF"/>
<path d="M20.7786 91.5111C20.7786 91.5955 20.7786 91.6799 20.7786 91.7643C20.7786 91.8486 20.7786 91.933 20.6942 92.0174C20.6942 92.1018 20.6942 92.1862 20.6098 92.1862C20.6098 92.2706 20.5255 92.355 20.5255 92.4394C20.5255 92.5238 20.4411 92.6082 20.4411 92.6082C20.3567 92.6925 20.3567 92.7769 20.2723 92.8613C20.2723 92.9457 20.1879 93.0301 20.1879 93.0301C20.1035 93.1145 20.0192 93.1989 20.0192 93.2833C19.9348 93.3677 19.9348 93.452 19.8504 93.452C19.766 93.5364 19.6816 93.6208 19.5973 93.7052C19.5129 93.7896 19.5129 93.7896 19.4285 93.874C19.3441 93.9584 19.2598 94.0428 19.091 94.1272C19.0066 94.2116 19.0066 94.2116 18.9222 94.2959C18.7535 94.3803 18.5847 94.5491 18.3316 94.6335C15.0408 96.5745 9.72494 96.5745 6.43416 94.6335C6.2654 94.5491 6.01226 94.3803 5.8435 94.2959C5.75912 94.2959 5.75911 94.2116 5.67473 94.2116C5.50597 94.1272 5.42162 94.0428 5.33725 93.9584C5.25287 93.874 5.25286 93.874 5.16848 93.7896C5.0841 93.7052 4.99973 93.6208 4.91535 93.5364C4.83097 93.4521 4.83096 93.4521 4.74658 93.3677C4.6622 93.2833 4.57783 93.1989 4.49346 93.1145C4.40908 93.0301 4.40905 93.0301 4.40905 92.9457C4.32467 92.8613 4.32466 92.7769 4.24028 92.6925C4.24028 92.6082 4.15592 92.5238 4.15592 92.5238C4.15592 92.4394 4.07156 92.355 4.07156 92.2706C4.07156 92.1862 4.07153 92.1018 3.98715 92.1018C3.98715 92.0174 3.90279 91.933 3.90279 91.8487C3.90279 91.7643 3.90279 91.6799 3.90279 91.5955C3.81841 90.2453 4.57779 88.895 6.34975 87.8824C9.64053 85.9414 14.9564 85.9414 18.2472 87.8824C19.8504 88.8106 20.6942 90.0765 20.6942 91.3423C20.7786 91.3423 20.7786 91.4267 20.7786 91.5111Z" fill="#8AE8FF"/>
<path d="M4.74609 85.013C4.74609 85.0974 4.74607 85.1818 4.83045 85.2662C4.83045 85.3506 4.83048 85.435 4.91486 85.435C4.91486 85.5194 4.99922 85.6038 4.99922 85.6882C4.99922 85.7725 5.08358 85.7725 5.08358 85.8569C5.08358 85.9413 5.16797 86.0257 5.25235 86.1101C5.25235 86.1945 5.33676 86.1945 5.33676 86.2789C5.42114 86.3633 5.50548 86.4477 5.50548 86.5321C5.50548 86.6164 5.58989 86.6164 5.58989 86.7008C5.67426 86.7852 5.75863 86.8696 5.84301 86.954C5.92739 87.0384 5.9274 87.0384 6.01178 87.1228C6.09616 87.2072 6.26489 87.2916 6.34927 87.3759L6.43368 87.4603C6.60243 87.5447 6.77117 87.7135 6.93993 87.7979C9.8932 89.4857 14.7028 89.5701 17.7405 87.7979C17.9092 87.7135 18.078 87.5447 18.2468 87.4603C18.3311 87.376 18.3311 87.376 18.4155 87.2916C18.4999 87.2072 18.5843 87.1228 18.6687 87.0384C18.753 86.954 18.753 86.954 18.8374 86.8696C18.9218 86.7852 19.0062 86.7008 19.0905 86.6164C19.1749 86.5321 19.1749 86.5321 19.2593 86.4477C19.3437 86.3633 19.3437 86.2789 19.428 86.1945C19.428 86.1101 19.5124 86.1101 19.5124 86.0257C19.5968 85.9413 19.5968 85.8569 19.6812 85.7726C19.6812 85.6882 19.7656 85.6882 19.7656 85.6038C19.7656 85.5194 19.8499 85.435 19.8499 85.3506C19.8499 85.2662 19.85 85.2662 19.9343 85.1818C19.9343 85.0974 20.0187 85.0131 20.0187 84.9287C20.0187 84.8443 20.0187 84.7599 20.0187 84.7599C20.0187 84.6755 20.0187 84.5911 20.0187 84.5067L20.1031 90.9203C20.1031 92.0174 19.3437 93.1988 17.8249 94.0427C14.7872 95.8149 9.97761 95.7305 7.02434 94.0427C5.50552 93.1988 4.83045 92.0174 4.83045 90.9203L4.74609 84.5067C4.74609 84.5911 4.74609 84.6755 4.74609 84.7599C4.74609 84.8443 4.74609 84.9287 4.74609 85.013Z" fill="url(#paint2_linear_3_17437)"/>
<path d="M19.9343 84.7599C19.9343 84.8443 19.9343 84.9287 19.9343 84.9287C19.9343 85.0131 19.9343 85.0975 19.8499 85.1819C19.8499 85.2662 19.8499 85.2662 19.7655 85.3506C19.7655 85.435 19.6812 85.5194 19.6812 85.6038C19.6812 85.6882 19.5967 85.6882 19.5967 85.7726C19.5967 85.857 19.5124 85.9414 19.428 86.0257C19.428 86.1101 19.3436 86.1101 19.3436 86.1945C19.2592 86.2789 19.2592 86.3633 19.1748 86.4477C19.0905 86.5321 19.0905 86.5321 19.0061 86.6165C18.9217 86.7009 18.8373 86.7853 18.753 86.8696C18.6686 86.954 18.6686 86.954 18.5842 87.0384C18.4998 87.1228 18.4154 87.2072 18.3311 87.2916C18.2467 87.376 18.2467 87.376 18.1623 87.4604C17.9935 87.5448 17.8248 87.7135 17.656 87.7979C14.7028 89.5701 9.80878 89.4857 6.8555 87.7979C6.68674 87.7135 6.51796 87.5448 6.3492 87.4604L6.26484 87.376C6.18046 87.2916 6.01168 87.2072 5.9273 87.1228C5.84292 87.1228 5.84296 87.0384 5.75858 86.954C5.6742 86.8696 5.58978 86.7852 5.5054 86.7009C5.5054 86.6165 5.42105 86.6165 5.42105 86.5321C5.33667 86.4477 5.25228 86.3633 5.25228 86.2789C5.25228 86.1945 5.16792 86.1945 5.16792 86.1101C5.08354 86.0257 5.08353 85.9414 4.99915 85.857C4.99915 85.7726 4.91479 85.7726 4.91479 85.6882C4.91479 85.6038 4.83038 85.5194 4.83038 85.435C4.83038 85.3506 4.8304 85.2662 4.74602 85.2662C4.74602 85.1818 4.66161 85.0975 4.66161 85.0131C4.66161 84.9287 4.66161 84.8443 4.66161 84.8443C4.57723 83.6628 5.33668 82.397 6.8555 81.4687C9.80878 79.7809 14.7028 79.7809 17.656 81.4687C19.1749 82.3126 19.8499 83.4941 19.8499 84.5911C20.0186 84.5911 20.0187 84.6755 19.9343 84.7599Z" fill="#EBEBEB"/>
<path d="M15.8847 78.684V78.7684V78.8528C15.8847 78.8528 15.8847 78.9372 15.8003 78.9372V79.0216C15.8003 79.0216 15.8003 79.106 15.7159 79.106C15.7159 79.106 15.7159 79.1904 15.6315 79.1904L15.5472 79.2748C15.5472 79.2748 15.5472 79.3592 15.4628 79.3592L15.3784 79.4435C15.3784 79.4435 15.3784 79.4435 15.294 79.5279C15.2097 79.6123 15.2097 79.6123 15.1253 79.6123C15.1253 79.6123 15.1253 79.6123 15.0409 79.6967C14.9565 79.7811 14.8721 79.7811 14.7877 79.8655C13.4377 80.625 11.2439 80.625 9.80943 79.8655C9.72505 79.7811 9.64068 79.7811 9.5563 79.6967L9.47189 79.6123C9.38752 79.6123 9.38751 79.5279 9.30313 79.5279L9.21877 79.4435L9.13441 79.3592L9.05 79.2748L8.96564 79.1904C8.96564 79.1904 8.96561 79.106 8.88123 79.106L8.79688 79.0216V78.9372V78.8528V78.7684V78.684V78.5997V78.5153V84.2537C8.79688 84.7601 9.1344 85.2664 9.80943 85.6884C11.1595 86.4479 13.3533 86.4479 14.7877 85.6884C15.4628 85.2664 15.8003 84.7601 15.8003 84.2537V78.5153V78.5997C15.8847 78.684 15.8847 78.684 15.8847 78.684Z" fill="url(#paint3_linear_3_17437)"/>
<path d="M8.96582 78.5996V78.684V78.7684V78.8528V78.9372V79.0216C8.96582 79.0216 8.9658 79.1059 9.05018 79.1059C9.05018 79.1059 9.05021 79.1903 9.13459 79.1903L9.21895 79.2747C9.21895 79.2747 9.21892 79.3591 9.3033 79.3591L9.38771 79.4435L9.47207 79.5279C9.47207 79.5279 9.55646 79.6123 9.64084 79.6123C9.64084 79.6123 9.7252 79.6123 9.7252 79.6967C9.80957 79.7811 9.89399 79.7811 9.97837 79.8655C11.3284 80.625 13.5222 80.625 14.9567 79.8655C15.0411 79.7811 15.1254 79.7811 15.2098 79.6967C15.2098 79.6967 15.2098 79.6967 15.2942 79.6123C15.3786 79.6123 15.3786 79.5279 15.463 79.5279C15.463 79.5279 15.463 79.5279 15.5473 79.4435L15.6317 79.3591C15.6317 79.3591 15.6317 79.3591 15.7161 79.2747L15.8005 79.1903C15.8005 79.1903 15.8005 79.1059 15.8849 79.1059L15.9692 79.0216V78.9372C15.9692 78.9372 15.9692 78.8528 16.0536 78.8528V78.7684V78.684V78.5996C16.138 78.0089 15.8005 77.5026 15.0411 77.0806C13.691 76.3211 11.4972 76.3211 10.0627 77.0806C9.3877 77.5026 9.05018 78.0089 9.05018 78.5152C8.9658 78.5152 8.96582 78.5996 8.96582 78.5996Z" fill="#EBEBEB"/>
<path d="M9.30371 78.5997C9.30371 78.5997 9.30371 78.6841 9.30371 78.5997C9.30371 78.6841 9.30371 78.7684 9.30371 78.7684V78.8528V78.9372V79.0216C9.30371 79.0216 9.30374 79.106 9.38812 79.106C9.38812 79.106 9.3881 79.1904 9.47248 79.1904L9.55689 79.2748C9.55689 79.2748 9.55687 79.3592 9.64125 79.3592L9.72561 79.4436C9.72561 79.4436 9.72564 79.4436 9.81002 79.5279L9.89438 79.6123C9.89438 79.6123 9.97879 79.6123 9.97879 79.6967C10.0632 79.7811 10.1475 79.7811 10.2319 79.8655C11.4132 80.5406 13.4384 80.5406 14.6197 79.8655C14.7041 79.8655 14.7884 79.7811 14.8728 79.6967C14.8728 79.6967 14.8728 79.6967 14.9572 79.6967C15.0415 79.6967 15.0416 79.6123 15.1259 79.6123C15.1259 79.6123 15.1259 79.6123 15.2103 79.5279L15.2947 79.4436C15.2947 79.4436 15.2947 79.4436 15.3791 79.3592L15.4635 79.2748C15.4635 79.2748 15.4634 79.1904 15.5478 79.1904C15.5478 79.1904 15.5478 79.106 15.6322 79.106V79.0216V78.9372V78.8528V78.7684V78.684C15.7166 78.2621 15.3791 77.7558 14.704 77.4182C13.5227 76.7431 11.4976 76.7431 10.3163 77.4182C9.72562 77.7558 9.38812 78.1777 9.38812 78.5997C9.30374 78.5153 9.30371 78.5997 9.30371 78.5997Z" fill="#A0A0A0"/>
<path d="M11.0752 78.5997C11.0752 78.684 11.0752 78.684 11.0752 78.684C11.0752 78.684 11.0752 78.684 11.1596 78.684C11.1596 78.684 11.1596 78.684 11.244 78.684C11.244 78.684 11.3283 78.684 11.3283 78.7684C11.8346 79.0216 12.7627 79.0216 13.269 78.7684C13.269 78.7684 13.3534 78.7684 13.3534 78.684C13.3534 78.684 13.4378 78.684 13.4378 78.5997C13.4378 78.5997 13.4377 78.5997 13.5221 78.5153C13.5221 78.5153 13.5221 78.5153 13.5221 78.4309C13.5221 78.2621 13.4377 78.0089 13.1002 77.8401C12.594 77.587 11.6658 77.587 11.1596 77.8401C11.1596 78.1777 11.0752 78.3465 11.0752 78.5997C11.0752 78.5153 11.0752 78.5153 11.0752 78.5997Z" fill="#CCCCCC"/>
<path d="M137.476 23.0709C137.476 23.1553 137.476 23.2397 137.476 23.3241C137.476 23.4085 137.476 23.4929 137.391 23.5773C137.391 23.6617 137.391 23.7461 137.307 23.7461C137.307 23.8305 137.223 23.9148 137.223 23.9992C137.223 24.0836 137.138 24.168 137.138 24.168C137.054 24.2524 137.054 24.3368 136.97 24.4212C136.97 24.5056 136.885 24.59 136.885 24.59C136.801 24.6743 136.716 24.7587 136.716 24.8431C136.632 24.9275 136.632 25.0119 136.548 25.0119C136.463 25.0963 136.379 25.1807 136.295 25.2651C136.21 25.3495 136.21 25.3495 136.126 25.4339C136.041 25.5182 135.957 25.6026 135.788 25.687C135.704 25.7714 135.704 25.7714 135.62 25.8558C135.451 26.0246 135.282 26.109 135.029 26.1934C131.738 28.1343 126.422 28.1343 123.131 26.1934C122.963 26.109 122.71 25.9402 122.541 25.8558C122.456 25.8558 122.456 25.7714 122.372 25.7714C122.288 25.687 122.119 25.6026 122.035 25.5182C121.95 25.4339 121.95 25.4338 121.866 25.3495C121.781 25.2651 121.697 25.1807 121.613 25.0963C121.528 25.0119 121.528 25.0119 121.444 24.9275C121.359 24.8431 121.275 24.7587 121.191 24.6743C121.106 24.59 121.106 24.59 121.106 24.5056C121.022 24.4212 121.022 24.3368 120.938 24.2524C120.938 24.168 120.853 24.0836 120.853 24.0836C120.853 23.9992 120.769 23.9148 120.769 23.8305C120.769 23.7461 120.769 23.6617 120.684 23.5773C120.684 23.4929 120.6 23.4085 120.6 23.3241C120.6 23.2397 120.6 23.1553 120.6 23.0709C120.516 21.7207 121.275 20.3705 123.047 19.3578C126.338 17.4169 131.654 17.4169 134.944 19.3578C136.548 20.2861 137.391 21.5519 137.391 22.8178C137.56 22.9022 137.476 22.9866 137.476 23.0709Z" fill="#8AE8FF"/>
<path d="M121.443 16.4886C121.443 16.573 121.443 16.6574 121.528 16.7418C121.528 16.8262 121.528 16.9106 121.612 16.9106C121.612 16.995 121.696 17.0794 121.696 17.1638C121.696 17.2481 121.781 17.2481 121.781 17.3325C121.781 17.4169 121.865 17.5013 121.95 17.5857C121.95 17.6701 122.034 17.6701 122.034 17.7545C122.118 17.8389 122.203 17.9233 122.203 18.0076C122.203 18.092 122.287 18.092 122.287 18.1764C122.372 18.2608 122.456 18.3452 122.54 18.4296C122.625 18.514 122.625 18.514 122.709 18.5984C122.793 18.6828 122.962 18.7672 123.047 18.8515L123.131 18.9359C123.3 19.0203 123.468 19.1891 123.637 19.2735C126.59 20.9613 131.4 21.0457 134.438 19.2735C134.607 19.1891 134.775 19.0203 134.944 18.9359C135.028 18.8515 135.028 18.8515 135.113 18.7672C135.197 18.6828 135.282 18.5984 135.366 18.514C135.45 18.4296 135.45 18.4296 135.535 18.3452C135.619 18.2608 135.703 18.1764 135.788 18.092C135.872 18.0076 135.872 18.0076 135.957 17.9233C136.041 17.8389 136.041 17.7545 136.125 17.6701C136.125 17.5857 136.21 17.5857 136.21 17.5013C136.294 17.4169 136.294 17.3325 136.378 17.2481C136.378 17.1638 136.463 17.1638 136.463 17.0794C136.463 16.995 136.547 16.9106 136.547 16.8262C136.547 16.7418 136.547 16.6574 136.632 16.6574C136.632 16.573 136.716 16.4886 136.716 16.4042C136.716 16.3199 136.716 16.2355 136.716 16.2355C136.716 16.1511 136.716 16.0667 136.716 15.9823L136.8 22.3959C136.8 23.493 136.041 24.6744 134.522 25.5183C131.484 27.2905 126.675 27.2061 123.722 25.5183C122.203 24.6744 121.528 23.493 121.528 22.3959L121.443 15.9823C121.443 16.0667 121.443 16.1511 121.443 16.2355C121.443 16.4042 121.443 16.4886 121.443 16.4886Z" fill="url(#paint4_linear_3_17437)"/>
<path d="M136.716 16.32C136.716 16.4044 136.716 16.4887 136.716 16.4887C136.716 16.5731 136.716 16.6575 136.632 16.7419C136.632 16.8263 136.632 16.8263 136.547 16.9107C136.547 16.9951 136.463 17.0795 136.463 17.1639C136.463 17.2483 136.379 17.2483 136.379 17.3326C136.379 17.417 136.294 17.5014 136.21 17.5858C136.21 17.6702 136.126 17.6702 136.126 17.7546C136.041 17.839 136.041 17.9234 135.957 18.0078C135.872 18.0921 135.872 18.0921 135.788 18.1765C135.704 18.2609 135.619 18.3453 135.535 18.4297C135.45 18.5141 135.45 18.5141 135.366 18.5985C135.282 18.6829 135.197 18.7673 135.113 18.8517C135.029 18.936 135.029 18.936 134.944 19.0204C134.775 19.1048 134.607 19.2736 134.438 19.358C131.4 21.1302 126.591 21.0458 123.637 19.358C123.469 19.2736 123.3 19.1048 123.131 19.0204L123.047 18.936C122.962 18.8517 122.794 18.7673 122.709 18.6829C122.625 18.6829 122.625 18.5985 122.54 18.5141C122.456 18.4297 122.372 18.3453 122.287 18.2609C122.203 18.1765 122.203 18.1765 122.203 18.0921C122.119 18.0078 122.034 17.9234 122.034 17.839C122.034 17.7546 121.95 17.7546 121.95 17.6702C121.865 17.5858 121.865 17.5014 121.781 17.417C121.781 17.3326 121.697 17.3326 121.697 17.2483C121.697 17.1639 121.612 17.0795 121.612 16.9951C121.612 16.9107 121.612 16.8263 121.528 16.8263C121.528 16.7419 121.444 16.6575 121.444 16.5731C121.444 16.4888 121.444 16.4044 121.444 16.4044C121.359 15.2229 122.034 13.9571 123.637 13.0288C126.591 11.341 131.485 11.341 134.438 13.0288C135.957 13.8727 136.632 15.0541 136.632 16.1512C136.716 16.1512 136.716 16.2356 136.716 16.32Z" fill="#EBEBEB"/>
<path d="M132.666 10.244V10.3284V10.4128C132.666 10.4128 132.666 10.4971 132.582 10.4971V10.5815L132.498 10.6659C132.498 10.6659 132.498 10.7503 132.413 10.7503L132.329 10.8347C132.329 10.8347 132.329 10.9191 132.244 10.9191L132.16 11.0035C132.16 11.0035 132.16 11.0035 132.076 11.0879C131.991 11.1723 131.991 11.1723 131.907 11.1723C131.907 11.1723 131.907 11.1723 131.823 11.2566C131.738 11.341 131.654 11.341 131.569 11.4254C130.219 12.1849 128.026 12.1849 126.591 11.4254C126.507 11.341 126.422 11.341 126.338 11.2566L126.254 11.1723C126.169 11.1723 126.169 11.0879 126.085 11.0879L126 11.0035L125.916 10.9191L125.832 10.8347L125.747 10.7503C125.747 10.7503 125.747 10.6659 125.663 10.6659L125.579 10.5815V10.4971C125.579 10.4971 125.579 10.4128 125.494 10.4128V10.3284V10.244V10.1596V10.0752V15.8137C125.494 16.32 125.832 16.8263 126.507 17.2483C127.857 18.0078 130.051 18.0078 131.485 17.2483C132.16 16.8263 132.498 16.32 132.498 15.8137V10.0752V10.1596C132.666 10.1596 132.666 10.244 132.666 10.244Z" fill="url(#paint5_linear_3_17437)"/>
<path d="M125.663 10.1596V10.244V10.3283V10.4127C125.663 10.4127 125.663 10.4971 125.747 10.4971V10.5815C125.747 10.5815 125.747 10.6659 125.832 10.6659C125.832 10.6659 125.832 10.7503 125.916 10.7503L126.001 10.8347C126.001 10.8347 126.001 10.9191 126.085 10.9191L126.169 11.0035L126.254 11.0878C126.254 11.0878 126.338 11.1722 126.423 11.1722C126.423 11.1722 126.507 11.1722 126.507 11.2566C126.591 11.341 126.676 11.341 126.76 11.4254C128.11 12.1849 130.304 12.1849 131.738 11.4254C131.823 11.341 131.907 11.341 131.992 11.2566C131.992 11.2566 131.992 11.2566 132.076 11.1722C132.16 11.1722 132.16 11.0878 132.245 11.0878C132.245 11.0878 132.245 11.0878 132.329 11.0035L132.413 10.9191C132.413 10.9191 132.413 10.8347 132.498 10.8347L132.582 10.7503C132.582 10.7503 132.582 10.6659 132.667 10.6659L132.751 10.5815V10.4971C132.751 10.4971 132.751 10.4127 132.835 10.4127V10.3283V10.244V10.1596C132.92 9.56883 132.582 9.0625 131.823 8.64055C130.473 7.88105 128.279 7.88105 126.844 8.64055C126.169 9.0625 125.832 9.56883 125.832 10.0752C125.663 10.0752 125.663 10.0752 125.663 10.1596Z" fill="#EBEBEB"/>
<path d="M126.085 10.1596C126.085 10.244 126.085 10.3284 126.085 10.3284V10.4128V10.4971V10.5815C126.085 10.5815 126.085 10.6659 126.169 10.6659C126.169 10.6659 126.169 10.7503 126.253 10.7503L126.338 10.8347C126.338 10.8347 126.338 10.9191 126.422 10.9191L126.506 11.0035C126.506 11.0035 126.506 11.0035 126.591 11.0879L126.675 11.1723C126.675 11.1723 126.76 11.1723 126.76 11.2567C126.844 11.341 126.928 11.341 127.013 11.4254C128.278 12.1005 130.219 12.1005 131.4 11.4254C131.485 11.4254 131.569 11.341 131.654 11.2567C131.654 11.2567 131.654 11.2567 131.738 11.2567C131.822 11.2567 131.822 11.1723 131.907 11.1723C131.907 11.1723 131.907 11.1723 131.991 11.0879L132.075 11.0035C132.075 11.0035 132.076 11.0035 132.16 10.9191L132.244 10.8347C132.244 10.8347 132.244 10.7503 132.329 10.7503C132.329 10.7503 132.329 10.6659 132.413 10.6659V10.5815V10.4971V10.4128V10.3284V10.244C132.497 9.82203 132.16 9.3157 131.485 8.97814C130.304 8.30302 128.278 8.30302 127.097 8.97814C126.506 9.3157 126.169 9.73764 126.169 10.1596C126 10.0752 126.085 10.0752 126.085 10.1596Z" fill="#A0A0A0"/>
<path d="M127.772 10.0752C127.772 10.1596 127.772 10.1596 127.772 10.0752C127.772 10.1596 127.772 10.1596 127.772 10.1596C127.772 10.1596 127.772 10.1596 127.857 10.1596C127.857 10.1596 127.941 10.1596 127.941 10.244C128.448 10.5815 129.376 10.5815 129.882 10.244C129.882 10.244 129.966 10.244 129.966 10.1596C129.966 10.1596 130.051 10.1596 130.051 10.0752C130.051 10.0752 130.051 10.0752 130.135 9.99081C130.135 9.82203 130.051 9.56886 129.713 9.40008C129.207 9.14691 128.279 9.14691 127.772 9.40008C127.941 9.65325 127.772 9.82203 127.772 10.0752Z" fill="#CCCCCC"/>
<path d="M120.178 91.5952C120.178 91.6796 120.178 91.764 120.178 91.8484C120.178 91.9328 120.262 92.0172 120.262 92.1016C120.262 92.186 120.262 92.2703 120.347 92.2703C120.347 92.3547 120.431 92.4391 120.431 92.5235C120.431 92.6079 120.516 92.6923 120.516 92.6923C120.6 92.7767 120.6 92.8611 120.684 92.9455C120.684 93.0299 120.769 93.1142 120.769 93.1142C120.853 93.1986 120.938 93.283 120.938 93.3674C121.022 93.4518 121.022 93.5362 121.106 93.5362C121.191 93.6206 121.275 93.705 121.359 93.7894C121.444 93.8737 121.444 93.8737 121.528 93.9581C121.613 94.0425 121.697 94.1269 121.866 94.2113C121.95 94.2957 121.95 94.2957 122.034 94.3801C122.203 94.4645 122.372 94.6332 122.625 94.7176C125.916 96.5742 131.316 96.4898 134.522 94.5489C134.691 94.4645 134.944 94.2957 135.113 94.2113C135.197 94.2113 135.198 94.1269 135.282 94.1269C135.366 94.0425 135.535 93.9581 135.619 93.7894C135.704 93.705 135.704 93.705 135.788 93.6206C135.873 93.5362 135.957 93.4518 136.041 93.3674C136.126 93.283 136.126 93.283 136.126 93.1986C136.21 93.1142 136.294 93.0299 136.379 92.9455C136.463 92.8611 136.463 92.7767 136.463 92.7767C136.548 92.6923 136.548 92.6079 136.632 92.5235C136.632 92.4391 136.716 92.3547 136.716 92.3547C136.716 92.2704 136.801 92.186 136.801 92.1016C136.801 92.0172 136.801 91.9328 136.885 91.9328C136.885 91.8484 136.969 91.764 136.969 91.6796C136.969 91.5952 136.969 91.5108 136.969 91.4265C137.054 90.0762 136.21 88.726 134.438 87.7133C131.147 85.8568 125.747 85.9412 122.541 87.8821C120.938 88.8104 120.094 90.0762 120.094 91.3421C120.178 91.4265 120.178 91.5108 120.178 91.5952Z" fill="#8AE8FF"/>
<path d="M136.126 84.9286C136.126 85.013 136.126 85.0974 136.042 85.1818C136.042 85.2661 136.042 85.3505 135.957 85.3505C135.957 85.4349 135.873 85.5193 135.873 85.6037C135.873 85.6881 135.789 85.7725 135.789 85.7725C135.789 85.8569 135.704 85.9413 135.62 86.0256C135.62 86.11 135.536 86.11 135.536 86.1944C135.451 86.2788 135.367 86.3632 135.367 86.4476C135.367 86.532 135.282 86.532 135.282 86.6164C135.198 86.7008 135.114 86.7852 135.029 86.8695C134.945 86.9539 134.945 86.9539 134.861 87.0383C134.776 87.1227 134.607 87.2071 134.523 87.2915L134.439 87.3759C134.27 87.4603 134.101 87.629 133.932 87.7134C130.979 89.4856 126.169 89.57 123.132 87.7978C122.963 87.7134 122.794 87.5447 122.626 87.4603C122.541 87.3759 122.541 87.3759 122.457 87.2915C122.372 87.2071 122.288 87.1227 122.204 87.0383C122.119 86.9539 122.119 86.9539 122.035 86.8695C121.95 86.7852 121.866 86.7008 121.782 86.6164C121.697 86.532 121.697 86.532 121.613 86.4476C121.529 86.3632 121.444 86.2788 121.444 86.1944C121.36 86.11 121.36 86.11 121.36 86.0256C121.275 85.9413 121.275 85.8569 121.191 85.7725C121.191 85.6881 121.107 85.6881 121.107 85.6037C121.107 85.5193 121.022 85.4349 121.022 85.3505C121.022 85.2661 121.022 85.2661 120.938 85.1818C120.938 85.0974 120.854 85.013 120.854 84.9286C120.854 84.8442 120.854 84.7598 120.854 84.7598C120.854 84.6754 120.854 84.591 120.854 84.5066V90.9202C120.854 92.0173 121.613 93.1987 123.132 94.0426C126.169 95.7304 130.979 95.646 133.932 93.9582C135.367 93.1144 136.126 91.9329 136.126 90.8358V84.4222C136.126 84.5066 136.126 84.591 136.126 84.6754C136.126 84.7598 136.126 84.8442 136.126 84.9286Z" fill="url(#paint6_linear_3_17437)"/>
<path d="M120.938 84.8441C120.938 84.9285 120.938 85.0129 120.938 85.0129C120.938 85.0973 120.938 85.1817 121.023 85.2661C121.023 85.3505 121.023 85.3505 121.107 85.4349C121.107 85.5193 121.192 85.6036 121.192 85.688C121.192 85.7724 121.276 85.7724 121.276 85.8568C121.276 85.9412 121.36 86.0256 121.445 86.11C121.445 86.1944 121.529 86.1944 121.529 86.2788C121.613 86.3632 121.613 86.4475 121.698 86.5319C121.782 86.6163 121.782 86.6163 121.867 86.7007C121.951 86.7851 122.035 86.8695 122.12 86.9539C122.204 87.0383 122.204 87.0383 122.289 87.1227C122.373 87.207 122.457 87.2914 122.542 87.3758C122.626 87.4602 122.626 87.4602 122.71 87.5446C122.879 87.629 123.048 87.7978 123.217 87.8822C126.254 89.57 131.064 89.4856 134.017 87.7978C134.186 87.7134 134.355 87.5446 134.524 87.4602C134.608 87.4602 134.608 87.3758 134.608 87.3758C134.692 87.2914 134.861 87.207 134.945 87.1227C135.03 87.1227 135.03 87.0383 135.114 86.9539C135.199 86.8695 135.283 86.7851 135.367 86.7007C135.452 86.6163 135.452 86.6163 135.452 86.5319C135.536 86.4475 135.621 86.3632 135.621 86.2788C135.621 86.1944 135.705 86.1944 135.705 86.11C135.789 86.0256 135.789 85.9412 135.874 85.8568C135.874 85.7724 135.958 85.7724 135.958 85.688C135.958 85.6036 136.042 85.5193 136.042 85.4349C136.042 85.3505 136.042 85.2661 136.127 85.2661C136.127 85.1817 136.127 85.0973 136.211 85.0129C136.211 84.9285 136.211 84.8441 136.211 84.8441C136.296 83.6627 135.536 82.3969 133.933 81.4686C130.895 79.7808 126.086 79.8652 123.132 81.553C121.698 82.3969 120.938 83.5783 120.938 84.6754C120.938 84.6754 120.938 84.7598 120.938 84.8441Z" fill="#EBEBEB"/>
<path d="M124.902 78.7679V78.8523V78.9367C124.902 78.9367 124.902 79.0211 124.987 79.0211V79.1055L125.071 79.1899C125.071 79.1899 125.071 79.2743 125.156 79.2743L125.24 79.3587C125.24 79.3587 125.24 79.4431 125.324 79.4431L125.409 79.5274C125.409 79.5274 125.409 79.5274 125.493 79.6118C125.577 79.6118 125.577 79.6962 125.662 79.6962C125.662 79.6962 125.662 79.6962 125.746 79.7806C125.831 79.865 125.915 79.865 125.999 79.9494C127.349 80.7089 129.543 80.7089 130.978 79.865C131.062 79.7806 131.146 79.7806 131.231 79.6962L131.315 79.6118C131.4 79.6118 131.4 79.5274 131.484 79.5274L131.568 79.4431L131.653 79.3587C131.653 79.3587 131.653 79.2743 131.737 79.2743L131.821 79.1899C131.821 79.1899 131.822 79.1055 131.906 79.1055L131.99 79.0211V78.9367C131.99 78.9367 131.99 78.8523 132.075 78.8523V78.7679V78.6835V78.5992V78.5148L132.159 84.2532C132.159 84.7596 131.822 85.2659 131.146 85.6879C129.796 86.5318 127.602 86.5318 126.168 85.7723C125.493 85.3503 125.156 84.844 125.156 84.3376L125.071 78.5992V78.6835C124.902 78.6835 124.902 78.6836 124.902 78.7679Z" fill="url(#paint7_linear_3_17437)"/>
<path d="M131.907 78.5995V78.6839V78.7683V78.8527C131.907 78.8527 131.907 78.9371 131.822 78.9371V79.0214C131.822 79.0214 131.822 79.1058 131.738 79.1058C131.738 79.1058 131.738 79.1902 131.653 79.1902L131.569 79.2746C131.569 79.2746 131.569 79.359 131.485 79.359L131.4 79.4434L131.316 79.5278C131.316 79.5278 131.232 79.6122 131.147 79.6122C131.147 79.6122 131.063 79.6122 131.063 79.6966C130.978 79.781 130.894 79.7809 130.81 79.8653C129.46 80.7092 127.266 80.7092 125.831 79.9497C125.747 79.8653 125.663 79.8653 125.578 79.7809C125.578 79.7809 125.578 79.781 125.494 79.6966C125.409 79.6966 125.409 79.6122 125.325 79.6122C125.325 79.6122 125.325 79.6122 125.241 79.5278L125.156 79.4434C125.156 79.4434 125.156 79.4434 125.072 79.359L124.987 79.2746C124.987 79.2746 124.987 79.1902 124.903 79.1902L124.819 79.1058V79.0214C124.819 79.0214 124.819 78.9371 124.734 78.9371V78.8527V78.7683V78.6839C124.65 78.0932 124.987 77.5868 125.747 77.1649C127.097 76.321 129.291 76.321 130.725 77.0805C131.4 77.5024 131.738 78.0088 131.738 78.5151C131.907 78.5151 131.907 78.5151 131.907 78.5995Z" fill="#EBEBEB"/>
<path d="M131.484 78.5993C131.484 78.6837 131.484 78.7681 131.484 78.7681V78.8525V78.9369V79.0212C131.484 79.0212 131.484 79.1056 131.4 79.1056C131.4 79.1056 131.4 79.19 131.316 79.19L131.231 79.2744C131.231 79.2744 131.231 79.3588 131.147 79.3588L131.062 79.4432C131.062 79.4432 131.062 79.4432 130.978 79.5276L130.894 79.612C130.894 79.612 130.809 79.612 130.809 79.6964C130.725 79.7808 130.641 79.7808 130.556 79.8651C129.375 80.5403 127.35 80.5403 126.168 79.9495C126.084 79.9495 126 79.8651 125.915 79.8651C125.915 79.8651 125.915 79.8651 125.831 79.8651C125.747 79.8651 125.747 79.7808 125.662 79.7808C125.662 79.7808 125.662 79.7808 125.578 79.6964L125.493 79.612C125.493 79.612 125.493 79.612 125.409 79.5276L125.325 79.4432V79.3588C125.325 79.3588 125.325 79.2744 125.24 79.2744V79.19V79.1056V79.0212V78.9369V78.8525C125.156 78.4305 125.493 77.9242 126.168 77.5866C127.35 76.9115 129.375 76.9115 130.556 77.5022C131.147 77.8398 131.484 78.2617 131.484 78.6837C131.484 78.5149 131.484 78.5149 131.484 78.5993Z" fill="#A0A0A0"/>
<path d="M129.796 78.515C129.796 78.515 129.796 78.5994 129.796 78.515C129.796 78.5994 129.796 78.5994 129.796 78.515C129.796 78.5994 129.796 78.5994 129.796 78.5994C129.796 78.5994 129.796 78.5994 129.712 78.5994C129.712 78.5994 129.628 78.5994 129.628 78.6838C129.121 79.0213 128.193 79.0213 127.687 78.6838C127.687 78.6838 127.602 78.6838 127.602 78.5994C127.602 78.5994 127.602 78.5994 127.518 78.515C127.518 78.515 127.518 78.515 127.434 78.4306C127.434 78.4306 127.434 78.4306 127.434 78.3462C127.434 78.1774 127.518 77.9243 127.855 77.7555C128.362 77.4179 129.29 77.4179 129.796 77.7555C129.628 78.093 129.796 78.3462 129.796 78.515Z" fill="#CCCCCC"/>
<path d="M131.907 79.6964C130.726 80.3715 129.629 80.5402 128.025 80.5402C127.604 80.5402 126 80.4558 124.65 79.5276C124.144 79.19 123.385 78.5149 123.216 77.5022C123.216 77.4178 123.216 77.2491 123.216 77.1647C123.216 77.5022 123.216 77.8398 123.3 78.0929C123.469 79.1056 124.228 79.6964 124.735 80.1183C126.085 81.0466 127.688 81.131 128.11 81.131C129.629 81.131 130.81 80.8778 131.991 80.2871C133.426 79.4432 133.763 78.3461 133.763 77.5866C133.763 77.5022 133.763 77.3334 133.763 77.2491C133.594 77.9242 133.257 78.8525 131.907 79.6964Z" fill="url(#paint8_linear_3_17437)"/>
<path d="M3.3125 23.0712C3.3125 23.1556 3.3125 23.24 3.3125 23.3244C3.3125 23.4088 3.31248 23.4931 3.39686 23.5775C3.39686 23.6619 3.39689 23.7463 3.48127 23.7463C3.48127 23.8307 3.56563 23.9151 3.56563 23.9995C3.56563 24.0839 3.65004 24.1683 3.65004 24.1683C3.73442 24.2526 3.73437 24.337 3.81875 24.4214C3.90313 24.5058 3.90316 24.5902 3.90316 24.5902C3.98754 24.6746 4.07193 24.759 4.07193 24.8434C4.15631 24.9278 4.15627 25.0122 4.24065 25.0122C4.32503 25.0965 4.40945 25.1809 4.49383 25.2653C4.57821 25.3497 4.57816 25.3497 4.66254 25.4341C4.74692 25.5185 4.83132 25.6029 5.00008 25.6873C5.08446 25.7717 5.08447 25.7717 5.16885 25.856C5.33761 25.9404 5.50637 26.1092 5.75951 26.1936C9.05029 28.1346 14.3661 28.1346 17.6569 26.1936C17.8257 26.1092 18.0788 25.9404 18.2476 25.856C18.332 25.856 18.332 25.7717 18.4164 25.7717C18.5007 25.6873 18.6695 25.6029 18.7538 25.5185C18.8382 25.4341 18.8382 25.4341 18.9226 25.3497C19.007 25.2653 19.0914 25.1809 19.1757 25.0965C19.2601 25.0122 19.2601 25.0121 19.3445 24.9278C19.4289 24.8434 19.5133 24.759 19.5976 24.6746C19.682 24.5902 19.682 24.5902 19.682 24.5058C19.7664 24.4214 19.7664 24.337 19.8508 24.2526C19.8508 24.1683 19.9352 24.0839 19.9352 24.0839C19.9352 23.9995 20.0195 23.9151 20.0195 23.8307C20.0195 23.7463 20.0196 23.6619 20.1039 23.5775C20.1039 23.4931 20.1883 23.4088 20.1883 23.3244C20.1883 23.24 20.1883 23.1556 20.1883 23.0712C20.2727 21.721 19.5132 20.3707 17.7413 19.3581C14.4505 17.4171 9.13465 17.4171 5.84387 19.3581C4.24067 20.2863 3.39686 21.5522 3.39686 22.818C3.31248 22.9024 3.3125 22.9868 3.3125 23.0712Z" fill="#8AE8FF"/>
<path d="M19.3453 16.5733C19.3453 16.6577 19.3453 16.742 19.2609 16.8264C19.2609 16.9108 19.2609 16.9952 19.1765 16.9952C19.1765 17.0796 19.0922 17.164 19.0922 17.2484C19.0922 17.3328 19.0078 17.3328 19.0078 17.4172C19.0078 17.5016 18.9234 17.5859 18.839 17.6703C18.839 17.7547 18.7546 17.7547 18.7546 17.8391C18.6703 17.9235 18.5859 18.0079 18.5859 18.0923C18.5859 18.1767 18.5015 18.1767 18.5015 18.2611C18.4171 18.3455 18.3328 18.4298 18.2484 18.5142C18.164 18.5142 18.164 18.5986 18.0796 18.5986C17.9952 18.683 17.8265 18.7674 17.7421 18.8518L17.6577 18.9362C17.489 19.0206 17.3202 19.1893 17.1515 19.2737C14.1982 20.9615 9.38854 21.0459 6.35089 19.2737C6.18213 19.1893 6.01339 19.0206 5.84463 18.9362C5.76025 18.8518 5.76024 18.8518 5.67586 18.7674C5.59148 18.683 5.50712 18.5986 5.42274 18.5142C5.33836 18.4298 5.33835 18.4298 5.25397 18.3454C5.16959 18.2611 5.08522 18.1767 5.00084 18.0923C4.91646 18.0079 4.91645 18.0079 4.83207 17.9235C4.74769 17.8391 4.74768 17.7547 4.6633 17.6703C4.57892 17.5859 4.57895 17.5859 4.57895 17.5016C4.49457 17.4172 4.49456 17.3328 4.41018 17.2484C4.41018 17.164 4.32582 17.164 4.32582 17.0796C4.32582 16.9952 4.24141 16.9108 4.24141 16.8264C4.24141 16.742 4.24143 16.7421 4.15705 16.6577C4.15705 16.5733 4.07269 16.4889 4.07269 16.4045C4.07269 16.3201 4.07269 16.2357 4.07269 16.2357C4.07269 16.1513 4.07269 16.0669 4.07269 15.9825L3.98828 22.3961C3.98828 23.5776 4.7477 24.6747 6.26653 25.5185C9.30418 27.2063 14.1138 27.2063 17.067 25.5185C18.5859 24.6747 19.2609 23.5776 19.2609 22.3961L19.3453 15.9825C19.3453 16.0669 19.3453 16.1513 19.3453 16.2357C19.3453 16.4889 19.3453 16.4889 19.3453 16.5733Z" fill="url(#paint9_linear_3_17437)"/>
<path d="M4.15703 16.4045C4.15703 16.4888 4.15703 16.5732 4.15703 16.5732C4.15703 16.6576 4.15701 16.742 4.24139 16.8264C4.24139 16.9108 4.24142 16.9952 4.3258 16.9952C4.3258 17.0796 4.41016 17.164 4.41016 17.2483C4.41016 17.3327 4.49457 17.3327 4.49457 17.4171C4.49457 17.5015 4.57891 17.5859 4.66329 17.6703C4.66329 17.7547 4.7477 17.7547 4.7477 17.8391C4.83208 17.9235 4.83209 18.0079 4.91647 18.0922C5.00085 18.1766 5.0008 18.1766 5.08518 18.261C5.16956 18.3454 5.25398 18.4298 5.33836 18.5142C5.42274 18.5986 5.4227 18.5986 5.50708 18.683C5.59146 18.7674 5.67588 18.8517 5.76026 18.9361C5.84464 19.0205 5.8446 19.0205 5.92897 19.1049C6.09773 19.1893 6.26652 19.3581 6.43528 19.4425C9.47293 21.2146 14.2825 21.1303 17.2358 19.4425C17.4046 19.3581 17.5733 19.1893 17.742 19.1049C17.8264 19.1049 17.8265 19.0205 17.8265 19.0205C17.9108 18.9361 18.0796 18.8518 18.1639 18.7674C18.2483 18.7674 18.2483 18.683 18.3327 18.683C18.4171 18.5986 18.5015 18.5142 18.5858 18.4298C18.6702 18.3454 18.6702 18.3454 18.6702 18.261C18.7546 18.1766 18.839 18.0922 18.839 18.0079C18.839 17.9235 18.9234 17.9235 18.9234 17.8391C19.0078 17.7547 19.0078 17.6703 19.0921 17.5859C19.0921 17.5015 19.1765 17.5015 19.1765 17.4171C19.1765 17.3327 19.2609 17.2484 19.2609 17.164C19.2609 17.0796 19.2609 16.9952 19.3453 16.9952C19.3453 16.9108 19.4296 16.8264 19.4296 16.742C19.4296 16.6576 19.4296 16.5732 19.4296 16.5732C19.514 15.3918 18.7546 14.1259 17.1514 13.1977C14.1982 11.4255 9.30414 11.4255 6.35087 13.1977C4.83205 14.0416 4.15703 15.223 4.15703 16.3201C4.07266 16.2357 4.07266 16.3201 4.15703 16.4045Z" fill="#EBEBEB"/>
<path d="M8.20605 10.3282V10.4126V10.497C8.20605 10.497 8.20609 10.5814 8.29046 10.5814V10.6658L8.37482 10.7502C8.37482 10.7502 8.3748 10.8346 8.45918 10.8346L8.54359 10.919C8.54359 10.919 8.54357 11.0034 8.62795 11.0034L8.71236 11.0877C8.71236 11.0877 8.71233 11.0877 8.79671 11.1721C8.88109 11.1721 8.8811 11.2565 8.96548 11.2565C8.96548 11.2565 8.96546 11.2565 9.04984 11.2565C9.13422 11.3409 9.21858 11.3409 9.30296 11.4253C10.653 12.1848 12.8469 12.1848 14.2813 11.4253C14.3657 11.3409 14.45 11.3409 14.5344 11.2565C14.5344 11.2565 14.6188 11.2565 14.6188 11.1721C14.7032 11.1721 14.7032 11.0877 14.7876 11.0877L14.872 11.0034L14.9563 10.919L15.0407 10.8346L15.1251 10.7502C15.1251 10.7502 15.1251 10.6658 15.2094 10.6658L15.2939 10.5814V10.497C15.2939 10.497 15.2938 10.4126 15.3782 10.4126V10.3282V10.2439V10.1595V10.0751V15.8135C15.3782 16.3199 15.0407 16.8262 14.3657 17.2482C13.0156 18.0077 10.8218 18.0077 9.38737 17.2482C8.71235 16.8262 8.37482 16.3199 8.37482 15.8135V10.0751V10.1595C8.20606 10.2439 8.20605 10.2439 8.20605 10.3282Z" fill="url(#paint10_linear_3_17437)"/>
<path d="M15.1252 10.2441V10.3285V10.4129V10.4973C15.1252 10.4973 15.1253 10.5817 15.0409 10.5817V10.6661C15.0409 10.6661 15.0409 10.7505 14.9565 10.7505C14.9565 10.7505 14.9565 10.8348 14.8721 10.8348L14.7877 10.9192C14.7877 10.9192 14.7877 11.0036 14.7034 11.0036L14.619 11.088L14.5346 11.1724C14.5346 11.1724 14.4502 11.2568 14.3658 11.2568C14.3658 11.2568 14.2815 11.2568 14.2815 11.3412C14.1971 11.4256 14.1127 11.4256 14.0283 11.51C12.6783 12.2695 10.4844 12.2695 9.04999 11.51C8.96562 11.4256 8.88125 11.4256 8.79687 11.3412C8.79687 11.3412 8.79689 11.3412 8.71251 11.3412C8.62813 11.2568 8.62812 11.2568 8.54374 11.2568C8.54374 11.2568 8.54371 11.2568 8.45934 11.1724L8.37498 11.088C8.37498 11.088 8.375 11.088 8.29062 11.0036L8.20621 10.9192C8.20621 10.9192 8.20623 10.8348 8.12185 10.8348L8.03744 10.7505V10.6661C8.03744 10.6661 8.03746 10.5817 7.95309 10.5817V10.4973V10.4129V10.3285C7.86871 9.73778 8.20623 9.23144 8.96564 8.8095C10.3157 8.04999 12.5095 8.04999 13.9439 8.8095C14.619 9.23144 14.9565 9.73779 14.9565 10.2441C15.1252 10.1597 15.1252 10.1597 15.1252 10.2441Z" fill="#EBEBEB"/>
<path d="M14.7878 10.1595C14.7878 10.2439 14.7878 10.2439 14.7878 10.1595C14.7878 10.2439 14.7878 10.3283 14.7878 10.3283V10.4127C14.7878 10.4127 14.7878 10.4971 14.7035 10.4971V10.5815C14.7035 10.5815 14.7035 10.6659 14.6191 10.6659C14.6191 10.6659 14.6191 10.7503 14.5347 10.7503L14.4503 10.8347C14.4503 10.8347 14.4503 10.9191 14.3659 10.9191L14.2816 11.0034C14.2816 11.0034 14.2816 11.0034 14.1972 11.0878L14.1128 11.1722C14.1128 11.1722 14.0284 11.1722 14.0284 11.2566C13.9441 11.341 13.8597 11.341 13.7753 11.4254C12.594 12.1005 10.5689 12.1005 9.3876 11.4254C9.30322 11.4254 9.21886 11.341 9.13448 11.341C9.13448 11.341 9.13445 11.341 9.05007 11.341C8.96569 11.341 8.96568 11.2566 8.8813 11.2566C8.8813 11.2566 8.88132 11.2566 8.79694 11.1722L8.71258 11.0878C8.71258 11.0878 8.71255 11.0878 8.62817 11.0034L8.54382 10.9191C8.54382 10.9191 8.54378 10.8347 8.45941 10.8347C8.45941 10.8347 8.45943 10.7503 8.37505 10.7503V10.6659V10.5815V10.4971V10.4127V10.3283C8.29067 9.82199 8.62816 9.40005 9.30319 9.06249C10.4845 8.38737 12.5096 8.38737 13.6909 9.06249C14.2815 9.40005 14.6191 9.82199 14.6191 10.2439C14.7879 10.1596 14.7878 10.1595 14.7878 10.1595Z" fill="#A0A0A0"/>
<path d="M13.0159 10.1595C13.0159 10.1595 13.0159 10.2439 13.0159 10.1595C13.0159 10.2439 13.0159 10.2439 13.0159 10.2439C13.0159 10.2439 13.016 10.2439 12.9316 10.2439L12.8472 10.3283C12.3409 10.5815 11.4127 10.5815 10.9064 10.3283C10.9064 10.3283 10.8221 10.3283 10.8221 10.2439C10.8221 10.2439 10.8221 10.2439 10.7377 10.1595C10.7377 10.1595 10.7377 10.1595 10.6533 10.0751C10.6533 10.0751 10.6533 10.0751 10.6533 9.99073C10.6533 9.99073 10.6533 9.99073 10.6533 9.90634C10.6533 9.73756 10.7377 9.48439 11.0752 9.31561C11.5815 9.06244 12.5097 9.06244 13.0159 9.31561C12.9316 9.73756 13.0159 9.90634 13.0159 10.1595Z" fill="#CCCCCC"/>
<path d="M125.663 11.2565C126.844 11.8473 127.941 12.1004 129.544 12.1004C129.966 12.1004 131.569 11.9317 132.92 11.0878C133.426 10.7502 134.185 10.0751 134.354 9.06241C134.354 8.97802 134.354 8.80924 134.354 8.72485C134.354 9.06241 134.354 9.39997 134.354 9.65314C134.185 10.6658 133.51 11.2565 132.92 11.6785C131.569 12.6068 130.051 12.6912 129.544 12.6912C128.026 12.7755 126.844 12.5224 125.663 11.8473C124.144 11.0034 123.807 9.90631 123.807 9.1468C123.807 9.06241 123.807 8.89363 123.807 8.80924C123.975 9.48436 124.313 10.497 125.663 11.2565Z" fill="url(#paint11_linear_3_17437)"/>
<path d="M132.919 11.0034C131.569 11.9317 130.051 12.0161 129.544 12.0161C128.026 12.1005 126.844 11.8473 125.663 11.1722C124.313 10.4127 123.891 9.40002 123.807 8.72491C123.807 7.54346 124.144 5.94006 124.904 4.42105C126.507 1.46742 128.701 0.707913 129.038 0.792303C129.713 0.961081 130.894 1.55181 131.907 2.73326C132.751 3.74593 133.426 4.92738 133.848 6.19322C133.932 6.44639 134.101 7.03712 134.185 7.9654C134.185 8.13418 134.27 8.38735 134.27 8.64052C134.27 8.72491 134.27 8.89369 134.27 8.97808C134.101 9.99075 133.426 10.6659 132.919 11.0034Z" fill="url(#paint12_linear_3_17437)"/>
<path d="M8.9667 79.6965C10.148 80.2872 11.2449 80.5404 12.8481 80.5404C13.27 80.5404 14.8732 80.3716 16.2233 79.5277C16.7296 79.1901 17.489 78.515 17.6577 77.5023C17.6577 77.418 17.6577 77.2492 17.6577 77.1648C17.6577 77.5024 17.6577 77.8399 17.6577 78.0931C17.489 79.1057 16.8139 79.6965 16.2233 80.1184C14.8732 81.0467 13.3544 81.1311 12.8481 81.1311C11.3293 81.2155 10.148 80.9623 8.9667 80.2872C7.44788 79.4433 7.11035 78.3462 7.11035 77.5867C7.11035 77.5024 7.11035 77.3336 7.11035 77.2492C7.19473 78.0087 7.61664 78.937 8.9667 79.6965Z" fill="url(#paint13_linear_3_17437)"/>
<path d="M16.1383 79.4432C14.7883 80.3715 13.2695 80.4559 12.7632 80.4559C11.2443 80.5403 10.063 80.2871 8.88169 79.612C7.53163 78.8525 7.10977 77.8398 7.02539 77.1647C7.02539 75.9833 7.3629 74.3799 8.12231 72.8609C9.72552 69.9072 11.9194 69.1477 12.2569 69.2321C12.9319 69.4009 14.1132 69.9916 15.1258 71.1731C16.054 72.1858 16.6446 73.3672 17.0665 74.6331C17.1509 74.8862 17.3197 75.4769 17.404 76.4052C17.404 76.574 17.404 76.8272 17.4884 77.0803C17.4884 77.1647 17.4884 77.3335 17.4884 77.4179C17.404 78.4306 16.729 79.1057 16.1383 79.4432Z" fill="url(#paint14_linear_3_17437)"/>
<path d="M124.65 79.5276C126 80.4559 127.603 80.5403 128.025 80.5403C129.544 80.5403 130.725 80.2871 131.907 79.6964C133.257 78.9369 133.594 77.9242 133.679 77.1647C133.594 75.9833 133.341 74.3799 132.497 72.8609C130.894 69.9072 128.616 69.1477 128.278 69.2321C127.603 69.4009 126.422 70.076 125.409 71.1731C124.566 72.1858 123.891 73.3672 123.469 74.7174C123.384 74.9706 123.216 75.5613 123.131 76.4896C123.131 76.6584 123.131 76.9116 123.047 77.1647C123.047 77.2491 123.047 77.4179 123.047 77.5023C123.469 78.515 124.144 79.1901 124.65 79.5276Z" fill="url(#paint15_linear_3_17437)"/>
<path d="M15.1257 11.3411C13.9444 11.9319 12.8474 12.185 11.2442 12.185C10.8223 12.185 9.21911 12.0162 7.86904 11.1724C7.36276 10.8348 6.60333 10.1597 6.43457 9.14701C6.43457 9.06262 6.43457 8.89384 6.43457 8.80945C6.43457 9.14701 6.43457 9.48456 6.43457 9.73773C6.60333 10.7504 7.27838 11.3411 7.86904 11.7631C9.21911 12.6914 10.7379 12.7758 11.2442 12.7758C12.7631 12.8601 13.9444 12.607 15.1257 11.9319C16.6445 11.088 16.982 9.9909 16.982 9.23139C16.982 9.14701 16.982 8.97823 16.982 8.89384C16.8977 9.56895 16.4758 10.4972 15.1257 11.3411Z" fill="url(#paint16_linear_3_17437)"/>
<path d="M7.95356 11.088C9.30363 12.0163 10.8225 12.1007 11.3287 12.1007C12.8476 12.1851 14.0289 11.9319 15.2102 11.2568C16.5602 10.4973 16.9821 9.48461 17.0665 8.8095C17.0665 7.62805 16.729 6.02465 15.9696 4.50564C14.3664 1.55201 12.1725 0.792508 11.835 0.876897C11.16 1.04568 9.97868 1.6364 8.96613 2.81785C8.03795 3.83052 7.44731 5.01198 7.02541 6.27782C6.94103 6.53098 6.77225 7.12171 6.68787 8.04999C6.68787 8.21877 6.68789 8.47194 6.60352 8.72511C6.60352 8.8095 6.60352 8.97828 6.60352 9.06267C6.68789 10.0753 7.36291 10.6661 7.95356 11.088Z" fill="url(#paint17_linear_3_17437)"/>
<path d="M85.1601 30.3287C93.9355 35.392 95.4543 44.5061 86.4258 49.6538C77.8191 54.464 63.1372 53.7045 54.6149 49.0631C54.4461 48.9787 54.193 48.8099 54.0242 48.7255C45.5863 43.831 43.5613 35.1389 52.2523 29.8223C60.7746 24.6746 75.3721 25.3497 83.9787 29.6535C84.4006 29.8223 84.8226 30.0755 85.1601 30.3287Z" fill="#94E1FF"/>
<path d="M78.5795 34.2106C83.6422 37.1643 84.486 42.3964 79.3389 45.35C74.3605 48.1349 65.9227 47.7129 61.0287 45.0125C60.9443 44.9281 60.7756 44.8437 60.6912 44.8437C55.7972 42.0588 54.6159 36.9955 59.6786 33.9575C64.5726 31.0038 73.0105 31.3414 77.9888 33.8731C78.0732 33.9575 78.3264 34.0418 78.5795 34.2106Z" fill="url(#paint18_linear_3_17437)"/>
<path d="M92.5017 41.3837C92.5017 41.6368 92.4172 41.9744 92.4172 42.2276C92.4172 42.3963 92.3329 42.5651 92.3329 42.7339C92.2485 42.9871 92.2485 43.2402 92.1641 43.409C92.0797 43.5778 91.9954 43.7466 91.911 43.9154C91.8266 44.1685 91.7422 44.3373 91.5735 44.5905C91.4891 44.7593 91.4047 44.928 91.236 45.0968C91.0672 45.35 90.8984 45.5188 90.8141 45.7719C90.6453 46.0251 90.4765 46.1939 90.3078 46.447C90.2234 46.5314 90.2234 46.6158 90.139 46.6158C89.8859 46.9534 89.5484 47.2065 89.2108 47.5441C89.0421 47.7129 88.8734 47.7973 88.7046 47.9661C88.4515 48.1348 88.2827 48.3036 88.0296 48.5568C87.8608 48.7256 87.6077 48.8099 87.4389 48.9787C87.1014 49.2319 86.7639 49.4007 86.4263 49.5695C85.8357 49.907 85.245 50.1602 84.57 50.4977C84.4012 50.5821 84.1481 50.6665 83.895 50.7509C83.4731 50.9197 83.0512 51.0885 82.5449 51.2572C82.2074 51.3416 81.8699 51.426 81.6167 51.5104C81.2792 51.5948 81.0261 51.6792 80.6886 51.7636C80.3511 51.848 80.0135 51.9324 79.676 52.0167C79.3385 52.1011 79.0854 52.1855 78.7479 52.1855C78.4947 52.2699 78.3259 52.2699 78.0728 52.2699C77.3978 52.3543 76.8071 52.4387 76.1321 52.5231C75.879 52.5231 75.6258 52.6075 75.2883 52.6075C74.782 52.6919 74.1914 52.6919 73.6851 52.6919C73.432 52.6919 73.1789 52.6919 72.8413 52.6919C72.2507 52.6919 71.66 52.6919 71.0694 52.6919C70.9006 52.6919 70.6474 52.6919 70.4787 52.6919C69.7193 52.6919 68.8755 52.6075 68.1161 52.6075C67.9473 52.6075 67.7786 52.6075 67.6098 52.5231C67.0192 52.4387 66.3441 52.4387 65.7535 52.3543C65.5003 52.3543 65.2472 52.2699 64.9941 52.2699C64.4034 52.1855 63.8972 52.1011 63.3909 52.0167C63.1377 51.9324 62.8846 51.9324 62.5471 51.848C61.9564 51.6792 61.2814 51.5948 60.6907 51.426C60.522 51.3416 60.2688 51.3416 60.1001 51.2572C59.1719 51.0041 58.3281 50.6665 57.4843 50.4133C57.1468 50.2446 56.8093 50.1602 56.4718 49.9914C56.303 49.907 56.1343 49.8226 55.9655 49.7382C55.4593 49.4851 54.9529 49.2319 54.4467 48.9787C54.2779 48.8943 54.0248 48.7256 53.8561 48.6412C49.1308 45.9407 46.4307 42.0588 46.4307 38.1769V45.8563C46.4307 49.6538 49.1308 53.6201 53.8561 56.3206C54.0248 56.405 54.2779 56.5738 54.4467 56.6582C54.9529 56.9113 55.4593 57.1645 55.9655 57.4177C56.1343 57.5021 56.303 57.5865 56.4718 57.6708C56.7249 57.7552 56.9781 57.8396 57.2312 58.0084C57.3156 58.0084 57.4 58.0928 57.4843 58.0928C58.3281 58.4303 59.1719 58.6835 60.1001 58.9367C60.1845 58.9367 60.1845 58.9367 60.2688 59.0211C60.4376 59.0211 60.6064 59.1055 60.6907 59.1055C61.2814 59.2742 61.9564 59.443 62.5471 59.5274C62.7159 59.5274 62.8002 59.6118 62.969 59.6118C63.1377 59.6118 63.2221 59.6962 63.3909 59.6962C63.8972 59.7806 64.4878 59.865 64.9941 59.9494C65.1628 59.9494 65.3316 60.0337 65.5004 60.0337C65.5847 60.0337 65.6691 60.0337 65.7535 60.0337C66.3441 60.1181 67.0192 60.2025 67.6098 60.2025C67.7786 60.2025 67.863 60.2025 68.0317 60.2869C68.0317 60.2869 68.0317 60.2869 68.1161 60.2869C68.8755 60.3713 69.6349 60.3713 70.4787 60.3713H70.5631C70.7319 60.3713 70.9006 60.3713 71.0694 60.3713C71.66 60.3713 72.2507 60.3713 72.8413 60.3713C72.9257 60.3713 73.0101 60.3713 73.0945 60.3713C73.2632 60.3713 73.5164 60.3713 73.6851 60.3713C74.1914 60.3713 74.782 60.2869 75.2883 60.2869C75.4571 60.2869 75.5414 60.2869 75.7102 60.2869C75.879 60.2869 75.9633 60.2025 76.1321 60.2025C76.8071 60.1181 77.4822 60.0337 78.0728 59.9494C78.2416 59.9494 78.4103 59.9494 78.4947 59.865C78.5791 59.865 78.6635 59.865 78.7479 59.7806C79.0854 59.6962 79.3385 59.6118 79.676 59.6118C80.0135 59.5274 80.3511 59.443 80.6886 59.3586C81.0261 59.2742 81.2792 59.1898 81.6167 59.1055C81.8699 59.0211 82.123 58.9367 82.3762 58.9367C82.4605 58.9367 82.5449 58.8523 82.6293 58.8523C83.0512 58.6835 83.5574 58.5147 83.9793 58.346C84.2325 58.2616 84.4013 58.1772 84.6544 58.0928C85.2451 57.8396 85.9201 57.5021 86.5107 57.1645C86.6795 57.0801 86.8482 56.9957 86.9326 56.9113C87.1014 56.827 87.2701 56.6582 87.5233 56.5738C87.692 56.405 87.9452 56.3206 88.1139 56.1518C88.3671 55.983 88.6202 55.8143 88.789 55.5611C88.9577 55.3923 89.1265 55.3079 89.2953 55.1392L89.3796 55.0548C89.6328 54.8016 89.8859 54.5484 90.139 54.2953C90.2234 54.2109 90.2234 54.1265 90.3078 54.1265C90.3921 54.0421 90.4765 53.8733 90.6453 53.7889C90.7297 53.7045 90.7297 53.6201 90.8141 53.5358C90.9828 53.2826 91.1516 53.1138 91.236 52.8606C91.3203 52.7763 91.4047 52.6919 91.4047 52.6075C91.4891 52.5231 91.4891 52.4387 91.4891 52.3543C91.5735 52.1011 91.7422 51.9324 91.8266 51.6792C91.911 51.5948 91.911 51.426 91.9953 51.3416C91.9953 51.2572 91.9954 51.1728 92.0798 51.0885C92.1641 50.8353 92.2485 50.5821 92.2485 50.4133C92.2485 50.329 92.3329 50.1602 92.3329 50.0758C92.3329 49.9914 92.3329 49.9914 92.3329 49.907C92.4173 49.6538 92.4172 49.3163 92.4172 49.0631C92.4172 48.9787 92.4172 48.8099 92.4172 48.7256C92.4172 48.6412 92.4172 48.5568 92.4172 48.4724V40.793C92.586 40.9617 92.5017 41.1305 92.5017 41.3837Z" fill="#0E7DA0"/>
<defs>
<linearGradient id="paint0_linear_3_17437" x1="19.1814" y1="236.267" x2="118.092" y2="236.267" gradientUnits="userSpaceOnUse">
<stop stop-color="white"/>
<stop offset="0.4447" stop-color="#FFC548"/>
<stop offset="1" stop-color="#FFA148"/>
</linearGradient>
<linearGradient id="paint1_linear_3_17437" x1="46.1947" y1="59.5392" x2="92.9373" y2="59.5392" gradientUnits="userSpaceOnUse">
<stop stop-color="white"/>
<stop offset="0.4447" stop-color="#FFC548"/>
<stop offset="1" stop-color="#FFA148"/>
</linearGradient>
<linearGradient id="paint2_linear_3_17437" x1="20.0448" y1="89.9856" x2="4.72238" y2="89.9856" gradientUnits="userSpaceOnUse">
<stop stop-color="#CCCCCC"/>
<stop offset="0.5047" stop-color="#CCCCCC"/>
<stop offset="0.6954" stop-color="#CFCFCF"/>
<stop offset="0.8522" stop-color="#D9D9D9"/>
<stop offset="0.9969" stop-color="#EBEBEB"/>
<stop offset="1" stop-color="#EBEBEB"/>
</linearGradient>
<linearGradient id="paint3_linear_3_17437" x1="8.91543" y1="82.3821" x2="15.9353" y2="82.3821" gradientUnits="userSpaceOnUse">
<stop stop-color="#CCCCCC"/>
<stop offset="0.5047" stop-color="#CCCCCC"/>
<stop offset="0.6954" stop-color="#CFCFCF"/>
<stop offset="0.8522" stop-color="#D9D9D9"/>
<stop offset="0.9969" stop-color="#EBEBEB"/>
<stop offset="1" stop-color="#EBEBEB"/>
</linearGradient>
<linearGradient id="paint4_linear_3_17437" x1="136.766" y1="21.5128" x2="121.444" y2="21.5128" gradientUnits="userSpaceOnUse">
<stop stop-color="#CCCCCC"/>
<stop offset="0.5047" stop-color="#CCCCCC"/>
<stop offset="0.6954" stop-color="#CFCFCF"/>
<stop offset="0.8522" stop-color="#D9D9D9"/>
<stop offset="0.9969" stop-color="#EBEBEB"/>
<stop offset="1" stop-color="#EBEBEB"/>
</linearGradient>
<linearGradient id="paint5_linear_3_17437" x1="125.636" y1="13.9108" x2="132.657" y2="13.9108" gradientUnits="userSpaceOnUse">
<stop stop-color="#CCCCCC"/>
<stop offset="0.5047" stop-color="#CCCCCC"/>
<stop offset="0.6954" stop-color="#CFCFCF"/>
<stop offset="0.8522" stop-color="#D9D9D9"/>
<stop offset="0.9969" stop-color="#EBEBEB"/>
<stop offset="1" stop-color="#EBEBEB"/>
</linearGradient>
<linearGradient id="paint6_linear_3_17437" x1="120.889" y1="90.0563" x2="136.211" y2="89.8879" gradientUnits="userSpaceOnUse">
<stop stop-color="#CCCCCC"/>
<stop offset="0.5047" stop-color="#CCCCCC"/>
<stop offset="0.6954" stop-color="#CFCFCF"/>
<stop offset="0.8522" stop-color="#D9D9D9"/>
<stop offset="0.9969" stop-color="#EBEBEB"/>
<stop offset="1" stop-color="#EBEBEB"/>
</linearGradient>
<linearGradient id="paint7_linear_3_17437" x1="131.965" y1="82.3309" x2="124.947" y2="82.408" gradientUnits="userSpaceOnUse">
<stop stop-color="#CCCCCC"/>
<stop offset="0.5047" stop-color="#CCCCCC"/>
<stop offset="0.6954" stop-color="#CFCFCF"/>
<stop offset="0.8522" stop-color="#D9D9D9"/>
<stop offset="0.9969" stop-color="#EBEBEB"/>
<stop offset="1" stop-color="#EBEBEB"/>
</linearGradient>
<linearGradient id="paint8_linear_3_17437" x1="123.184" y1="79.1401" x2="133.703" y2="79.1401" gradientUnits="userSpaceOnUse">
<stop stop-color="white"/>
<stop offset="0.4447" stop-color="#FFC548"/>
<stop offset="1" stop-color="#FFA148"/>
</linearGradient>
<linearGradient id="paint9_linear_3_17437" x1="4.04768" y1="21.5768" x2="19.3702" y2="21.5768" gradientUnits="userSpaceOnUse">
<stop stop-color="#CCCCCC"/>
<stop offset="0.5047" stop-color="#CCCCCC"/>
<stop offset="0.6954" stop-color="#CFCFCF"/>
<stop offset="0.8522" stop-color="#D9D9D9"/>
<stop offset="0.9969" stop-color="#EBEBEB"/>
<stop offset="1" stop-color="#EBEBEB"/>
</linearGradient>
<linearGradient id="paint10_linear_3_17437" x1="15.1777" y1="13.9758" x2="8.15669" y2="13.9758" gradientUnits="userSpaceOnUse">
<stop stop-color="#CCCCCC"/>
<stop offset="0.5047" stop-color="#CCCCCC"/>
<stop offset="0.6954" stop-color="#CFCFCF"/>
<stop offset="0.8522" stop-color="#D9D9D9"/>
<stop offset="0.9969" stop-color="#EBEBEB"/>
<stop offset="1" stop-color="#EBEBEB"/>
</linearGradient>
<linearGradient id="paint11_linear_3_17437" x1="123.844" y1="10.6542" x2="134.361" y2="10.6542" gradientUnits="userSpaceOnUse">
<stop stop-color="white"/>
<stop offset="0.4447" stop-color="#FFC548"/>
<stop offset="1" stop-color="#FFA148"/>
</linearGradient>
<linearGradient id="paint12_linear_3_17437" x1="123.86" y1="6.44344" x2="134.352" y2="6.44344" gradientUnits="userSpaceOnUse">
<stop stop-color="white"/>
<stop offset="0.4447" stop-color="#FFC548"/>
<stop offset="1" stop-color="#FFA148"/>
</linearGradient>
<linearGradient id="paint13_linear_3_17437" x1="7.12216" y1="79.1269" x2="17.6393" y2="79.1269" gradientUnits="userSpaceOnUse">
<stop stop-color="white"/>
<stop offset="0.4447" stop-color="#FFC548"/>
<stop offset="1" stop-color="#FFA148"/>
</linearGradient>
<linearGradient id="paint14_linear_3_17437" x1="7.13719" y1="74.9143" x2="17.6295" y2="74.9143" gradientUnits="userSpaceOnUse">
<stop stop-color="white"/>
<stop offset="0.4447" stop-color="#FFC548"/>
<stop offset="1" stop-color="#FFA148"/>
</linearGradient>
<linearGradient id="paint15_linear_3_17437" x1="123.19" y1="74.907" x2="133.683" y2="74.907" gradientUnits="userSpaceOnUse">
<stop stop-color="white"/>
<stop offset="0.4447" stop-color="#FFC548"/>
<stop offset="1" stop-color="#FFA148"/>
</linearGradient>
<linearGradient id="paint16_linear_3_17437" x1="6.45423" y1="10.7181" x2="16.9714" y2="10.7181" gradientUnits="userSpaceOnUse">
<stop stop-color="white"/>
<stop offset="0.4447" stop-color="#FFC548"/>
<stop offset="1" stop-color="#FFA148"/>
</linearGradient>
<linearGradient id="paint17_linear_3_17437" x1="6.46362" y1="6.5066" x2="16.9559" y2="6.5066" gradientUnits="userSpaceOnUse">
<stop stop-color="white"/>
<stop offset="0.4447" stop-color="#FFC548"/>
<stop offset="1" stop-color="#FFA148"/>
</linearGradient>
<linearGradient id="paint18_linear_3_17437" x1="56.3431" y1="39.5115" x2="82.8115" y2="39.5115" gradientUnits="userSpaceOnUse">
<stop stop-color="white"/>
<stop offset="0.4447" stop-color="#FFC548"/>
<stop offset="1" stop-color="#FFA148"/>
</linearGradient>
</defs>
</svg>
